<?xml version="1.0" standalone="no"?>
<!DOCTYPE svg PUBLIC "-//W3C//DTD SVG 20010904//EN"
 "http://www.w3.org/TR/2001/REC-SVG-20010904/DTD/svg10.dtd">
<svg version="1.0" xmlns="http://www.w3.org/2000/svg"
 width="323.000000pt" height="302.000000pt" viewBox="0 0 323.000000 302.000000"
 preserveAspectRatio="xMidYMid meet">
<metadata>
Created by potrace 1.13, written by Peter Selinger 2001-2015
</metadata>
<g transform="translate(0.000000,302.000000) scale(0.100000,-0.100000)"
fill="#000000" stroke="none">
<path d="M2420 2685 l0 -335 -250 0 -250 0 0 -710 0 -711 -305 2 c-168 1 -308
-1 -312 -5 -3 -3 299 -6 672 -6 l679 0 28 -27 c27 -26 28 -29 28 -138 0 -167
27 -155 -356 -155 l-309 0 -35 -55 c-37 -58 -54 -66 -76 -37 -12 15 -13 10
-14 -35 0 -29 -4 -53 -10 -53 -5 0 -10 -11 -10 -24 0 -24 -1 -24 -82 -22 -62
2 -88 -1 -100 -12 -16 -14 -18 -13 -18 11 0 24 -4 27 -32 27 -18 0 -50 3 -70
6 -27 5 -38 3 -38 -6 0 -7 -11 -21 -25 -32 -27 -21 -33 -56 -13 -76 15 -15 70
-16 85 -1 8 8 13 8 17 0 4 -6 22 -10 39 -10 l32 2 -35 6 c-30 5 -35 10 -38 38
-2 24 1 33 17 38 28 8 38 0 56 -42 8 -19 24 -37 35 -40 18 -5 20 -14 20 -94
l0 -89 35 0 c31 0 35 3 35 25 0 23 4 25 40 25 29 0 40 -4 40 -15 0 -9 -9 -15
-24 -15 -19 0 -24 -6 -27 -33 -2 -17 -3 -44 -1 -59 l3 -28 690 0 689 0 0 750
c0 660 -2 750 -15 750 -8 0 -15 -4 -15 -10 0 -5 -18 -10 -40 -10 -22 0 -40 5
-40 10 0 6 -7 10 -15 10 -20 0 -85 65 -85 85 0 8 -4 15 -10 15 -5 0 -10 18
-10 40 0 22 5 40 10 40 6 0 10 7 10 15 0 20 65 85 85 85 8 0 15 5 15 10 0 6
18 10 40 10 22 0 40 -4 40 -10 0 -5 7 -10 15 -10 13 0 15 21 15 130 l0 130
-65 0 -65 0 0 30 0 30 65 0 65 0 0 460 0 460 -405 0 -405 0 0 -335z m-360
-2300 c0 -20 5 -25 25 -25 24 0 25 -2 25 -75 0 -73 -1 -75 -25 -75 -23 0 -25
-3 -25 -50 l0 -50 -75 0 -75 0 0 50 c0 47 -2 50 -25 50 -24 0 -25 2 -25 75 0
73 1 75 25 75 20 0 25 5 25 25 0 24 2 25 75 25 73 0 75 -1 75 -25z"/>
<path d="M275 2199 c-44 -3 255 -6 664 -7 409 -1 741 1 738 5 -8 8 -1292 10
-1402 2z"/>
<path d="M3120 1770 c0 -5 -7 -10 -15 -10 -20 0 -65 -45 -65 -65 0 -8 -4 -15
-10 -15 -5 0 -10 -18 -10 -40 0 -22 5 -40 10 -40 6 0 10 -7 10 -15 0 -20 45
-65 65 -65 8 0 15 -4 15 -10 0 -5 18 -10 40 -10 22 0 40 5 40 10 0 6 7 10 15
10 13 0 15 20 15 120 0 100 -2 120 -15 120 -8 0 -15 5 -15 10 0 6 -18 10 -40
10 -22 0 -40 -4 -40 -10z"/>
<path d="M202 1025 c3 -3 90 -6 194 -6 104 0 204 -5 222 -11 l32 -10 0 -179 0
-179 30 0 c23 0 30 -5 30 -19 0 -11 4 -21 9 -23 5 -2 5 -21 1 -43 -8 -40 -8
-40 -9 -7 -1 45 -35 42 -39 -4 -3 -28 -6 -30 -33 -26 -24 3 -29 9 -27 25 2 12
13 24 28 29 25 7 25 7 1 5 -49 -4 -55 -67 -6 -67 14 0 25 -4 25 -10 0 -11 -39
-13 -64 -4 -23 9 -21 67 4 89 11 10 28 15 40 12 11 -3 18 -1 14 4 -10 16 -40
9 -62 -14 -28 -30 -29 -82 -3 -97 26 -13 68 -13 77 1 4 8 9 8 17 0 6 -6 19
-11 29 -11 13 0 18 -8 18 -25 0 -25 1 -25 80 -25 69 0 82 -3 92 -20 9 -13 24
-20 45 -20 26 0 33 4 33 20 0 18 7 20 66 20 56 0 65 -2 60 -16 -3 -9 -6 -25
-6 -36 0 -16 -3 -18 -14 -9 -17 14 -116 4 -116 -12 0 -7 -4 -7 -12 1 -15 15
-64 16 -73 2 -5 -8 -11 -7 -21 1 -7 6 -30 9 -49 7 -19 -2 -35 0 -35 4 0 5 -11
14 -25 20 -21 9 -28 8 -45 -7 -25 -23 -25 -40 0 -58 l21 -14 -22 -6 c-12 -3
-19 -12 -17 -19 6 -17 55 -23 73 -8 11 9 14 6 17 -12 4 -28 34 -36 41 -11 3
10 5 1 6 -19 1 -34 -2 -38 -24 -38 -22 0 -25 -4 -25 -35 0 -31 3 -35 25 -35
20 0 25 -5 25 -25 0 -20 5 -25 25 -25 16 0 25 -6 25 -15 0 -11 -12 -15 -50
-15 -47 0 -50 -2 -50 -25 l0 -25 185 0 185 0 0 25 c0 23 -3 25 -50 25 -38 0
-50 4 -50 15 0 9 9 15 25 15 20 0 25 5 25 25 0 32 37 42 77 22 70 -37 156 -33
195 8 13 14 31 25 41 25 24 0 22 46 -3 87 -18 30 -18 33 -2 34 9 0 33 1 52 2
32 2 35 5 38 35 2 18 -2 40 -9 48 -12 15 -45 19 -53 6 -2 -4 8 -8 22 -7 24 0
27 -4 30 -37 3 -36 2 -38 -27 -38 -47 0 -49 22 -6 49 18 11 18 12 -7 8 -26 -4
-28 -2 -28 30 0 29 3 33 19 28 25 -8 96 9 114 27 8 8 18 24 21 36 4 12 14 22
22 22 8 0 14 9 14 20 0 13 9 22 25 26 14 3 25 12 25 18 0 17 58 36 110 36 30
0 60 -9 97 -30 l53 -30 -22 35 -23 35 -305 0 c-236 0 -301 -3 -292 -12 7 -7
12 -20 12 -30 0 -13 8 -18 25 -18 19 0 25 -5 25 -21 0 -34 -66 -17 -104 27
-25 29 -34 34 -58 29 l-28 -7 0 141 0 141 -35 0 -35 0 0 -100 c0 -86 -2 -100
-16 -100 -14 0 -16 8 -11 48 7 59 -1 102 -19 102 -8 0 -20 11 -26 25 -6 14
-15 25 -20 25 -16 0 -8 73 13 107 37 59 57 63 381 62 159 -1 292 2 295 5 4 3
-142 6 -323 6 l-329 0 -35 -55 c-19 -30 -42 -55 -50 -55 -8 0 -31 25 -50 55
l-35 55 -329 0 c-181 0 -327 -2 -324 -5z m628 -60 c21 -11 30 -23 30 -40 0
-23 3 -25 50 -25 44 0 50 -3 50 -20 0 -17 -3 -19 -19 -10 -26 13 -31 13 -31
-5 0 -11 -12 -15 -44 -15 -33 0 -52 -7 -75 -26 l-31 -26 0 26 c0 21 -5 26 -25
26 -20 0 -25 -5 -25 -25 0 -20 -5 -25 -25 -25 -20 0 -25 5 -25 25 0 20 5 25
25 25 20 0 25 5 25 25 0 23 3 25 50 25 47 0 50 2 50 25 0 20 -5 25 -25 25 -16
0 -25 6 -25 15 0 19 33 19 70 0z m160 -175 c0 -47 2 -50 25 -50 23 0 25 -3 25
-50 0 -47 -2 -50 -25 -50 -20 0 -25 -5 -25 -25 0 -20 -5 -25 -25 -25 -20 0
-25 -5 -25 -25 0 -20 -5 -25 -25 -25 -20 0 -25 5 -25 25 0 20 -5 25 -25 25
-20 0 -25 5 -25 25 0 20 -5 25 -25 25 -23 0 -25 3 -25 50 0 47 2 50 25 50 23
0 25 3 25 50 l0 50 75 0 75 0 0 -50z m170 -360 c0 -18 7 -20 80 -20 73 0 80 2
80 20 0 13 7 20 20 20 13 0 20 -7 20 -20 0 -13 -7 -20 -20 -20 -18 0 -20 -7
-20 -60 0 -53 2 -60 20 -60 13 0 20 -7 20 -20 0 -13 7 -20 20 -20 11 0 20 -4
20 -10 0 -5 -9 -10 -20 -10 -11 0 -20 5 -20 10 0 6 -9 10 -20 10 -11 0 -20 5
-20 10 0 6 -9 10 -20 10 -11 0 -20 5 -20 10 0 6 -10 10 -22 10 -13 0 -36 11
-52 25 -16 14 -33 25 -38 25 -4 0 -8 16 -8 35 0 28 -4 35 -20 35 -13 0 -20 7
-20 20 0 13 7 20 20 20 13 0 20 -7 20 -20z m-120 -165 c0 -20 -5 -25 -25 -25
-20 0 -25 -5 -25 -25 0 -23 3 -25 50 -25 47 0 50 2 50 25 0 20 5 25 25 25 20
0 25 5 25 25 0 20 5 25 25 25 20 0 25 -5 25 -25 0 -20 -5 -25 -25 -25 -20 0
-25 -5 -25 -25 0 -20 -5 -25 -25 -25 -20 0 -25 -5 -25 -25 0 -20 -5 -25 -25
-25 -20 0 -25 -5 -25 -25 0 -20 -5 -25 -25 -25 -20 0 -25 -5 -25 -25 0 -20 -5
-25 -25 -25 -20 0 -25 5 -25 25 0 20 5 25 25 25 20 0 25 5 25 25 0 23 -3 25
-50 25 -47 0 -50 2 -50 25 0 20 5 25 25 25 23 0 25 3 25 50 l0 50 50 0 c47 0
50 -2 50 -25z"/>
<path d="M408 603 c-25 -7 -41 -62 -27 -100 20 -58 118 -58 138 0 27 75 -26
123 -111 100z"/>
<path d="M528 393 c-25 -7 -41 -62 -27 -100 20 -58 118 -58 138 0 27 75 -26
123 -111 100z"/>
</g>
</svg>
