<?xml version="1.0" standalone="no"?>
<!DOCTYPE svg PUBLIC "-//W3C//DTD SVG 20010904//EN"
 "http://www.w3.org/TR/2001/REC-SVG-20010904/DTD/svg10.dtd">
<svg version="1.0" xmlns="http://www.w3.org/2000/svg"
 width="312.163029pt" height="302.000000pt" viewBox="0 0 312.163029 302.000000"
 preserveAspectRatio="xMidYMid meet">
<metadata>
Created by potrace 1.12, written by Peter Selinger 2001-2015
</metadata>
<g transform="translate(-10.836971,302.000000) scale(0.100000,-0.100000)"
fill="#000000" stroke="none">
<path d="M2420 2685 l0 -335 -250 0 -250 0 0 -710 0 -711 -300 2 c-165 1 -303
-1 -307 -5 -3 -3 297 -6 667 -6 l674 0 28 -27 c27 -26 28 -29 28 -138 0 -167
27 -155 -356 -155 l-309 0 -35 -55 c-37 -58 -54 -66 -76 -37 -12 15 -13 10
-14 -35 0 -29 -4 -53 -10 -53 -5 0 -10 -11 -10 -24 0 -24 -1 -24 -82 -22 -62
2 -88 -1 -100 -12 -16 -14 -18 -13 -18 11 0 25 -3 27 -47 29 -27 1 -76 1 -110
-1 -41 -2 -63 1 -63 8 0 6 12 11 26 11 27 0 44 13 63 48 6 12 18 22 26 22 7 0
15 10 17 23 2 14 11 23 26 25 12 2 22 9 22 17 0 19 54 35 115 35 38 0 62 -6
86 -23 59 -40 61 -40 37 -3 l-23 36 -296 0 -296 0 5 -30 c3 -24 9 -30 28 -30
18 0 24 -6 24 -21 0 -35 -64 -19 -103 26 -26 30 -35 35 -59 30 l-28 -7 0 141
0 141 -35 0 -35 0 0 -100 c0 -82 -3 -100 -15 -100 -12 0 -15 15 -15 74 0 66
-2 74 -21 79 -11 3 -23 15 -26 26 -3 12 -9 21 -14 21 -18 0 -9 82 12 111 41
57 50 59 369 58 160 -1 294 2 297 5 4 3 -140 6 -318 6 l-324 0 -35 -55 c-19
-30 -42 -55 -50 -55 -8 0 -31 25 -50 55 l-35 55 -324 0 c-178 0 -322 -2 -319
-5 3 -3 93 -6 199 -7 107 0 204 -4 217 -9 22 -8 22 -11 22 -189 l0 -180 34 0
c30 0 33 -3 29 -21 -5 -19 -11 -21 -51 -15 -38 5 -49 3 -69 -16 -29 -28 -32
-83 -4 -98 11 -5 32 -9 48 -9 20 1 22 3 8 6 -11 2 -30 6 -42 9 -47 9 -19 104
30 104 9 0 19 -4 22 -10 3 -5 -3 -10 -13 -10 -11 0 -25 -7 -32 -15 -20 -24 -8
-49 28 -56 19 -4 39 -12 45 -18 6 -6 19 -11 29 -11 13 0 18 -8 18 -25 0 -25 1
-25 83 -25 78 0 107 -9 107 -33 0 -5 -44 -7 -99 -6 -72 3 -102 0 -115 -10 -22
-18 -20 -37 4 -54 l21 -14 -22 -6 c-12 -3 -19 -12 -17 -19 5 -15 57 -23 69
-11 5 5 -6 7 -26 5 -21 -3 -35 0 -35 7 0 6 12 11 28 11 l27 1 -27 22 c-16 13
-28 28 -28 34 0 19 28 35 50 28 26 -8 26 -29 0 -22 -29 7 -34 -10 -8 -25 13
-7 25 -12 28 -11 3 1 5 -11 6 -27 1 -39 11 -60 28 -60 8 0 17 8 19 17 3 10 5
1 6 -19 1 -34 -2 -38 -24 -38 -22 0 -25 -4 -25 -35 0 -31 3 -35 25 -35 20 0
25 -5 25 -25 0 -20 5 -25 25 -25 16 0 25 -6 25 -15 0 -11 -12 -15 -50 -15 -47
0 -50 -2 -50 -25 l0 -25 185 0 185 0 0 25 c0 23 -3 25 -50 25 -38 0 -50 4 -50
15 0 9 9 15 24 15 19 0 25 6 28 28 2 21 9 28 30 30 15 2 39 -3 55 -11 68 -35
173 -26 189 18 3 8 17 15 30 15 30 0 32 25 5 80 -17 36 -18 40 -3 41 10 0 33
1 52 2 30 2 36 6 41 32 4 20 7 23 8 9 0 -11 6 -25 13 -32 15 -15 70 -16 85 -1
8 8 13 8 17 0 4 -6 22 -10 39 -10 l32 2 -35 6 c-30 5 -35 10 -38 38 -2 24 1
33 17 38 28 8 38 0 56 -42 8 -19 24 -37 35 -40 18 -5 20 -14 20 -94 l0 -89 35
0 c31 0 35 3 35 25 0 23 4 25 40 25 29 0 40 -4 40 -15 0 -9 -9 -15 -25 -15
-24 0 -25 -3 -25 -60 l0 -60 690 0 690 0 0 750 c0 660 -2 750 -15 750 -8 0
-15 -4 -15 -10 0 -5 -18 -10 -40 -10 -22 0 -40 5 -40 10 0 6 -7 10 -15 10 -20
0 -85 65 -85 85 0 8 -4 15 -10 15 -5 0 -10 18 -10 40 0 22 5 40 10 40 6 0 10
7 10 15 0 20 65 85 85 85 8 0 15 5 15 10 0 6 18 10 40 10 22 0 40 -4 40 -10 0
-5 7 -10 15 -10 13 0 15 76 15 620 l0 620 -405 0 -405 0 0 -335z m-1594 -1704
c37 -17 40 -21 36 -50 -4 -28 -2 -31 22 -31 19 0 26 -5 26 -20 0 -14 -9 -21
-37 -26 -21 -4 -46 -17 -56 -31 -10 -12 -27 -23 -38 -23 -16 0 -19 7 -19 50 0
47 2 50 25 50 20 0 25 5 25 25 0 20 -5 25 -25 25 -20 0 -25 5 -25 25 0 30 11
31 66 6z m164 -191 c0 -47 2 -50 25 -50 23 0 25 -3 25 -50 0 -47 -2 -50 -25
-50 -20 0 -25 -5 -25 -25 0 -20 -5 -25 -25 -25 -20 0 -25 -5 -25 -25 0 -20 -5
-25 -25 -25 -20 0 -25 5 -25 25 0 20 -5 25 -25 25 -20 0 -25 5 -25 25 0 20 -5
25 -25 25 -23 0 -25 3 -25 50 0 47 2 50 25 50 23 0 25 3 25 50 l0 50 75 0 75
0 0 -50z m150 -175 c0 -20 -5 -25 -25 -25 -20 0 -25 5 -25 25 0 20 5 25 25 25
20 0 25 -5 25 -25z m-350 -50 c0 -20 -5 -25 -25 -25 -20 0 -25 5 -25 25 0 20
5 25 25 25 20 0 25 -5 25 -25z m-90 -20 c0 -14 7 -28 15 -31 23 -9 18 -26 -7
-22 -19 2 -24 10 -26 41 -2 21 1 37 7 37 6 0 11 -11 11 -25z m650 9 c0 -2 -11
-4 -25 -4 -14 0 -25 4 -25 9 0 4 11 6 25 3 14 -2 25 -6 25 -8z m-680 -27 c0
-9 -10 -12 -30 -9 -16 2 -30 8 -30 13 0 5 14 9 30 9 18 0 30 -5 30 -13z m888
-14 c-27 -2 -69 -2 -95 0 -27 2 -5 3 47 3 52 0 74 -1 48 -3z m-228 -39 c0 -7
-27 -34 -34 -34 -3 0 -6 9 -6 20 0 13 7 20 20 20 11 0 20 -3 20 -6z m113 -54
c18 -22 15 -23 -31 -14 -17 3 -33 12 -36 20 -9 22 47 17 67 -6z m-335 -7 c-3
-15 -16 -19 -66 -21 -57 -3 -62 -1 -62 18 0 18 6 20 66 20 57 0 65 -2 62 -17z
m952 -28 c0 -20 5 -25 25 -25 24 0 25 -2 25 -75 0 -73 -1 -75 -25 -75 -23 0
-25 -3 -25 -50 l0 -50 -75 0 -75 0 0 50 c0 47 -2 50 -25 50 -24 0 -25 2 -25
75 0 73 1 75 25 75 20 0 25 5 25 25 0 24 2 25 75 25 73 0 75 -1 75 -25z m-651
-32 c0 -36 -3 -43 -9 -28 -12 28 -12 75 0 75 6 0 10 -21 9 -47z m191 -9 l0
-55 -37 3 c-31 2 -39 7 -41 26 -4 28 16 55 35 48 8 -3 13 2 13 14 0 11 7 20
15 20 12 0 15 -13 15 -56z m-280 -14 l0 -40 -40 0 c-33 0 -40 3 -40 20 0 11
-7 20 -15 20 -8 0 -24 9 -35 20 l-20 20 75 0 75 0 0 -40z m168 -2 c3 -36 2
-38 -27 -38 -47 0 -50 23 -6 48 19 11 19 11 -3 12 -14 0 -21 4 -17 11 4 5 17
9 28 7 17 -2 23 -11 25 -40z m262 32 c0 -5 -4 -10 -10 -10 -5 0 -10 -14 -10
-31 0 -17 -4 -28 -10 -24 -14 9 -13 48 2 63 15 15 28 16 28 2z m60 -100 l0
-100 -25 0 -25 0 0 100 0 100 25 0 25 0 0 -100z m-770 5 c0 -20 5 -25 25 -25
20 0 25 -5 25 -25 0 -20 -5 -25 -25 -25 -23 0 -25 -3 -25 -50 0 -47 -2 -50
-25 -50 -20 0 -25 -5 -25 -25 0 -20 -5 -25 -25 -25 -20 0 -25 5 -25 25 0 20 5
25 25 25 20 0 25 5 25 25 0 23 -3 25 -50 25 -38 0 -50 4 -50 15 0 9 -9 15 -25
15 -14 0 -25 5 -25 10 0 6 23 10 50 10 l50 0 0 50 0 50 50 0 c47 0 50 -2 50
-25z m150 0 c0 -20 -5 -25 -25 -25 -20 0 -25 5 -25 25 0 20 5 25 25 25 20 0
25 -5 25 -25z m660 -15 c0 -20 -5 -30 -15 -30 -10 0 -15 10 -15 30 0 20 5 30
15 30 10 0 15 -10 15 -30z m310 -115 c0 -20 -5 -25 -25 -25 -20 0 -25 5 -25
25 0 20 5 25 25 25 20 0 25 -5 25 -25z"/>
<path d="M840 715 c0 -20 5 -25 25 -25 20 0 25 5 25 25 0 20 -5 25 -25 25 -20
0 -25 -5 -25 -25z"/>
<path d="M940 715 c0 -20 5 -25 25 -25 20 0 25 5 25 25 0 20 -5 25 -25 25 -20
0 -25 -5 -25 -25z"/>
<path d="M1547 343 c-13 -12 -7 -33 8 -33 8 0 15 9 15 20 0 20 -11 26 -23 13z"/>
<path d="M990 215 c0 -20 5 -25 25 -25 20 0 25 5 25 25 0 20 -5 25 -25 25 -20
0 -25 -5 -25 -25z"/>
<path d="M280 2199 c-41 -3 255 -6 659 -7 404 -1 732 1 728 4 -7 8 -1289 11
-1387 3z"/>
<path d="M109 1938 c-2 -449 0 -811 5 -816 3 -3 6 214 6 481 0 268 -2 487 -5
487 -3 0 -5 -69 -6 -152z"/>
<path d="M221 2043 c1 -26 4 -38 6 -26 3 13 13 23 26 25 34 5 29 42 -5 46 -27
3 -28 2 -27 -45z m42 22 c1 -5 -6 -11 -15 -13 -11 -2 -18 3 -18 13 0 17 30 18
33 0z"/>
<path d="M293 2045 c0 -27 2 -38 4 -22 2 15 2 37 0 50 -2 12 -4 0 -4 -28z"/>
<path d="M334 2067 c10 -15 12 -27 6 -37 -15 -23 -12 -34 5 -20 12 10 18 10
30 0 17 -14 20 -3 5 20 -6 10 -4 22 6 37 17 27 7 31 -12 6 -13 -17 -15 -17
-28 0 -19 25 -29 21 -12 -6z"/>
<path d="M410 2045 c0 -43 1 -45 28 -44 23 2 24 2 5 6 -13 2 -23 11 -23 18 0
7 10 16 23 18 l22 4 -22 2 c-13 0 -23 7 -23 15 0 8 10 17 23 19 19 4 18 4 -5
6 -27 1 -28 -1 -28 -44z"/>
<path d="M482 2048 l-2 -48 63 1 c34 1 52 4 40 6 -27 5 -27 6 -7 41 14 23 12
22 -12 -6 -16 -18 -39 -32 -51 -32 -18 0 -22 7 -26 43 l-4 42 -1 -47z"/>
<path d="M553 2083 c9 -2 25 -2 35 0 9 3 1 5 -18 5 -19 0 -27 -2 -17 -5z"/>
<path d="M620 2045 c0 -43 1 -45 28 -44 23 2 24 2 5 6 -13 2 -23 11 -23 18 0
7 10 16 23 18 l22 4 -22 2 c-13 0 -23 7 -23 15 0 8 10 17 23 19 19 4 18 4 -5
6 -27 1 -28 -1 -28 -44z"/>
<path d="M691 2043 c1 -27 4 -38 6 -25 5 24 33 31 33 8 0 -8 4 -18 10 -21 7
-4 7 2 0 19 -6 17 -6 26 2 28 21 7 -1 38 -27 38 -23 0 -25 -3 -24 -47z m42 22
c1 -5 -6 -11 -15 -13 -11 -2 -18 3 -18 13 0 17 30 18 33 0z"/>
<path d="M772 2078 c-17 -17 -15 -65 4 -72 35 -13 54 -7 54 19 0 17 -5 25 -17
24 -11 0 -13 -3 -5 -6 20 -8 14 -33 -8 -33 -45 0 -35 58 11 71 l24 7 -25 1
c-15 1 -31 -4 -38 -11z"/>
<path d="M854 2075 c-7 -18 3 -35 22 -35 23 0 16 -28 -8 -33 l-23 -4 23 -2
c32 -2 41 29 14 47 -28 18 -28 29 1 35 l22 4 -23 2 c-12 0 -25 -6 -28 -14z"/>
<path d="M952 2048 c-2 -46 -1 -48 26 -47 22 1 23 2 5 6 -18 3 -23 13 -26 46
l-4 42 -1 -47z"/>
<path d="M1020 2045 c0 -43 1 -45 28 -44 23 2 24 2 5 6 -13 2 -23 11 -23 18 0
7 10 16 23 18 l22 4 -22 2 c-13 0 -23 7 -23 15 0 8 10 17 23 19 19 4 18 4 -5
6 -27 1 -28 -1 -28 -44z"/>
<path d="M1102 2045 c-12 -25 -17 -45 -12 -45 6 0 13 7 16 15 8 20 24 19 40
-2 12 -16 12 -16 7 5 -3 13 -13 22 -24 22 -13 0 -16 5 -12 16 5 13 7 13 14 2
5 -7 9 -8 9 -3 0 6 -4 16 -8 22 -5 9 -15 -2 -30 -32z"/>
<path d="M1173 2045 c0 -27 2 -40 4 -27 5 27 20 29 28 2 3 -11 11 -20 17 -20
6 0 4 10 -5 23 -13 20 -13 25 1 47 l16 25 -26 -23 -26 -24 -5 24 c-2 12 -4 1
-4 -27z"/>
<path d="M1250 2045 c0 -43 1 -45 28 -44 23 2 24 2 5 6 -13 2 -23 11 -23 18 0
7 10 16 23 18 l22 4 -22 2 c-13 0 -23 7 -23 15 0 8 10 17 23 19 19 4 18 4 -5
6 -27 1 -28 -1 -28 -44z"/>
<path d="M1320 2045 c0 -43 1 -45 30 -45 22 0 33 6 41 24 16 35 -3 66 -41 66
-29 0 -30 -2 -30 -45z m62 18 c7 -33 -4 -53 -28 -53 -21 0 -24 5 -24 35 0 30
3 35 24 35 15 0 26 -7 28 -17z"/>
<path d="M1760 1600 c0 -271 3 -491 6 -487 8 7 7 967 -1 975 -3 3 -5 -217 -5
-488z"/>
<path d="M316 1947 c-27 -20 -18 -81 12 -85 48 -7 71 48 34 81 -22 20 -23 20
-46 4z m44 -21 c16 -31 7 -56 -20 -56 -11 0 -23 7 -27 16 -6 15 14 64 27 64 4
0 12 -11 20 -24z"/>
<path d="M220 1904 c0 -44 1 -45 28 -42 24 3 27 7 25 38 0 19 -1 38 -2 43 -1
4 -12 7 -26 7 -23 0 -25 -4 -25 -46z m40 28 c0 -4 -5 -13 -12 -20 -9 -9 -8
-12 5 -12 9 0 17 -7 17 -15 0 -8 -9 -15 -20 -15 -16 0 -20 7 -20 35 0 24 5 35
15 35 8 0 15 -4 15 -8z"/>
<path d="M392 1943 c12 -3 18 -17 21 -46 l4 -42 1 42 c2 30 7 43 20 46 9 3 -1
5 -23 5 -22 0 -32 -2 -23 -5z"/>
<path d="M532 1938 c-17 -17 -15 -65 4 -72 35 -13 54 -7 54 19 0 17 -5 25 -17
24 -11 0 -13 -3 -5 -6 20 -8 14 -33 -8 -33 -45 0 -35 58 11 71 l24 7 -25 1
c-15 1 -31 -4 -38 -11z"/>
<path d="M610 1905 c0 -43 1 -45 28 -44 23 2 24 2 5 6 -13 2 -23 11 -23 18 0
7 10 16 23 18 l22 4 -22 2 c-13 0 -23 7 -23 15 0 8 10 17 23 19 19 4 18 4 -5
6 -27 1 -28 -1 -28 -44z"/>
<path d="M682 1943 c12 -3 18 -17 21 -46 l4 -42 1 42 c2 30 7 43 20 46 9 3 -1
5 -23 5 -22 0 -32 -2 -23 -5z"/>
<path d="M775 1930 c12 -39 24 -70 28 -70 9 0 -7 56 -20 75 -14 19 -15 19 -8
-5z"/>
<path d="M816 1928 c-9 -37 -6 -55 6 -28 l11 25 7 -25 c5 -14 8 -18 9 -10 1
23 -10 60 -19 60 -4 0 -10 -10 -14 -22z"/>
<path d="M865 1923 c-12 -56 -13 -63 -9 -63 3 0 8 10 13 23 19 51 22 67 12 67
-6 0 -13 -12 -16 -27z"/>
<path d="M903 1905 c0 -27 2 -40 4 -27 3 15 11 22 28 22 17 0 25 -7 28 -22 2
-13 4 0 4 27 0 28 -2 40 -4 28 -3 -16 -11 -23 -28 -23 -17 0 -25 7 -28 23 -2
12 -4 0 -4 -28z"/>
<path d="M993 1905 c0 -27 2 -38 4 -22 2 15 2 37 0 50 -2 12 -4 0 -4 -28z"/>
<path d="M1022 1943 c12 -3 18 -17 21 -46 l4 -42 1 42 c2 30 7 43 20 46 9 3
-1 5 -23 5 -22 0 -32 -2 -23 -5z"/>
<path d="M1090 1905 c0 -43 1 -45 28 -44 23 2 24 2 5 6 -13 2 -23 11 -23 18 0
7 10 16 23 18 l22 4 -22 2 c-13 0 -23 7 -23 15 0 8 10 17 23 19 19 4 18 4 -5
6 -27 1 -28 -1 -28 -44z"/>
<path d="M1194 1935 c-7 -18 3 -35 22 -35 23 0 16 -28 -8 -33 l-23 -4 23 -2
c32 -2 41 29 14 47 -28 18 -28 29 1 35 l22 4 -23 2 c-12 0 -25 -6 -28 -14z"/>
<path d="M1262 1943 c12 -3 18 -17 21 -46 l4 -42 1 42 c2 30 7 43 20 46 9 3
-1 5 -23 5 -22 0 -32 -2 -23 -5z"/>
<path d="M1342 1905 c-12 -25 -17 -45 -12 -45 6 0 13 7 16 15 8 20 24 19 40
-2 12 -16 12 -16 7 5 -3 13 -13 22 -24 22 -13 0 -16 5 -12 16 5 13 7 13 14 2
5 -7 9 -8 9 -3 0 6 -4 16 -8 22 -5 9 -15 -2 -30 -32z"/>
<path d="M1411 1903 c1 -27 4 -38 6 -25 5 24 33 31 33 8 0 -8 4 -18 10 -21 7
-4 7 2 0 19 -6 17 -6 26 2 28 21 7 -1 38 -27 38 -23 0 -25 -3 -24 -47z m42 22
c1 -5 -6 -11 -15 -13 -11 -2 -18 3 -18 13 0 17 30 18 33 0z"/>
<path d="M1523 1905 c0 -27 2 -38 4 -22 2 15 2 37 0 50 -2 12 -4 0 -4 -28z"/>
<path d="M1552 1905 c1 -46 1 -47 7 -15 l7 35 20 -32 c10 -18 22 -33 27 -33 4
0 6 21 6 48 l-2 47 -7 -40 c-4 -22 -8 -35 -9 -30 0 6 -12 24 -26 40 l-24 30 1
-50z"/>
<path d="M426 1807 c-27 -20 -18 -81 12 -85 48 -7 71 48 34 81 -22 20 -23 20
-46 4z m44 -21 c16 -31 7 -56 -20 -56 -11 0 -23 7 -27 16 -6 15 14 64 27 64 4
0 12 -11 20 -24z"/>
<path d="M222 1804 c12 -4 18 -19 21 -47 l4 -42 1 43 c2 35 5 43 19 40 9 -2
21 -17 27 -35 17 -49 27 -51 13 -2 -13 43 -14 44 -57 46 -25 1 -37 -1 -28 -3z"/>
<path d="M326 1794 c-3 -9 -6 -25 -5 -37 0 -21 1 -20 11 3 l11 25 7 -25 c7
-23 8 -23 9 -3 1 26 -8 53 -19 53 -4 0 -11 -7 -14 -16z"/>
<path d="M380 1803 c0 -5 -4 -25 -9 -45 -15 -63 1 -43 23 30 5 13 3 22 -3 22
-6 0 -11 -3 -11 -7z"/>
<path d="M530 1765 c0 -43 1 -45 30 -45 22 0 33 6 41 24 16 35 -3 66 -41 66
-29 0 -30 -2 -30 -45z m63 14 c8 -31 -2 -49 -29 -49 -21 0 -24 5 -24 35 0 30
3 35 24 35 16 0 26 -7 29 -21z"/>
<path d="M642 1765 c-12 -25 -17 -45 -12 -45 6 0 13 7 16 15 8 20 24 19 40 -2
12 -16 12 -16 7 5 -3 13 -13 22 -24 22 -13 0 -16 5 -12 16 5 13 7 13 14 2 5
-7 9 -8 9 -3 0 6 -4 16 -8 22 -5 9 -15 -2 -30 -32z"/>
<path d="M711 1788 c6 -12 15 -33 20 -47 5 -18 8 -20 8 -8 1 11 10 32 22 48
22 31 16 41 -7 12 -13 -17 -15 -17 -28 0 -19 24 -29 21 -15 -5z"/>
<path d="M794 1795 c-7 -18 3 -35 22 -35 23 0 16 -28 -8 -33 l-23 -4 23 -2
c32 -2 41 29 14 47 -28 18 -28 29 1 35 l22 4 -23 2 c-12 0 -25 -6 -28 -14z"/>
<path d="M862 1780 c0 -19 2 -27 5 -17 2 9 2 25 0 35 -3 9 -5 1 -5 -18z"/>
<path d="M920 1765 c0 -27 2 -46 4 -44 8 8 10 78 3 85 -4 4 -7 -14 -7 -41z"/>
<path d="M980 1774 l0 -36 -20 23 -20 24 17 -32 c24 -45 33 -41 33 12 0 25 -2
45 -5 45 -3 0 -5 -16 -5 -36z"/>
<path d="M1010 1765 c0 -43 1 -45 28 -44 23 2 24 2 5 6 -13 2 -23 11 -23 18 0
7 10 16 23 18 l22 4 -22 2 c-13 0 -23 7 -23 15 0 8 10 17 23 19 19 4 18 4 -5
6 -27 1 -28 -1 -28 -44z"/>
<path d="M1075 1790 c17 -54 25 -71 35 -65 5 3 1 21 -11 43 -27 47 -33 53 -24
22z"/>
<path d="M1132 1790 c-7 -11 -12 -25 -12 -32 1 -7 8 0 16 15 18 33 14 46 -4
17z"/>
<path d="M1160 1765 c0 -43 1 -45 28 -44 23 2 24 2 5 6 -13 2 -23 11 -23 18 0
7 10 16 23 18 l22 4 -22 2 c-13 0 -23 7 -23 15 0 8 10 17 23 19 19 4 18 4 -5
6 -27 1 -28 -1 -28 -44z"/>
<path d="M1221 1763 c1 -27 4 -38 6 -25 5 27 33 29 33 2 0 -11 5 -20 10 -20
12 0 13 10 0 30 -6 9 -5 17 2 21 19 12 0 39 -27 39 -23 0 -25 -3 -24 -47z m42
22 c1 -5 -6 -11 -15 -13 -11 -2 -18 3 -18 13 0 17 30 18 33 0z"/>
<path d="M1330 1765 c0 -43 1 -45 30 -45 22 0 33 6 41 24 16 35 -3 66 -41 66
-29 0 -30 -2 -30 -45z m63 14 c8 -31 -2 -49 -29 -49 -21 0 -24 5 -24 35 0 30
3 35 24 35 16 0 26 -7 29 -21z"/>
<path d="M1423 1765 c0 -27 2 -38 4 -22 2 15 2 37 0 50 -2 12 -4 0 -4 -28z"/>
<path d="M1460 1765 c0 -43 1 -45 28 -44 23 2 24 2 5 6 -13 2 -23 11 -23 18 0
7 10 16 23 18 l22 4 -22 2 c-13 0 -23 7 -23 15 0 8 10 17 23 19 19 4 18 4 -5
6 -27 1 -28 -1 -28 -44z"/>
<path d="M1524 1795 c-7 -18 3 -35 22 -35 23 0 16 -28 -8 -33 l-23 -4 23 -2
c32 -2 41 29 14 47 -28 18 -28 29 1 35 l22 4 -23 2 c-12 0 -25 -6 -28 -14z"/>
<path d="M1592 1780 c0 -19 2 -27 5 -17 2 9 2 25 0 35 -3 9 -5 1 -5 -18z"/>
<path d="M3120 1770 c0 -5 -7 -10 -15 -10 -20 0 -65 -45 -65 -65 0 -8 -4 -15
-10 -15 -5 0 -10 -18 -10 -40 0 -22 5 -40 10 -40 6 0 10 -7 10 -15 0 -20 45
-65 65 -65 8 0 15 -4 15 -10 0 -5 18 -10 40 -10 22 0 40 5 40 10 0 6 7 10 15
10 13 0 15 20 15 120 0 100 -2 120 -15 120 -8 0 -15 5 -15 10 0 6 -18 10 -40
10 -22 0 -40 -4 -40 -10z m60 -84 c0 -26 -5 -36 -20 -41 -11 -3 -20 -11 -20
-16 0 -18 -31 -9 -58 18 -17 17 -22 28 -14 31 7 2 12 12 12 23 0 16 7 19 50
19 l50 0 0 -34z"/>
<path d="M486 1667 c-27 -20 -18 -81 12 -85 48 -7 71 48 34 81 -22 20 -23 20
-46 4z m44 -21 c16 -31 7 -56 -20 -56 -11 0 -23 7 -27 16 -6 15 14 64 27 64 4
0 12 -11 20 -24z"/>
<path d="M676 1667 c-27 -20 -18 -81 12 -85 48 -7 71 48 34 81 -22 20 -23 20
-46 4z m44 -21 c16 -31 7 -56 -20 -56 -11 0 -23 7 -27 16 -6 15 14 64 27 64 4
0 12 -11 20 -24z"/>
<path d="M906 1667 c-27 -20 -18 -81 12 -85 31 -5 52 14 53 47 1 25 1 25 12
-6 16 -42 26 -50 19 -16 -6 32 -32 76 -32 54 0 -11 -4 -10 -18 2 -22 20 -23
20 -46 4z m44 -21 c16 -31 7 -56 -20 -56 -11 0 -23 7 -27 16 -6 15 14 64 27
64 4 0 12 -11 20 -24z"/>
<path d="M232 1625 c-12 -25 -17 -45 -12 -45 6 0 13 7 16 15 8 20 24 19 40 -2
12 -16 12 -16 7 5 -3 13 -13 22 -24 22 -13 0 -16 5 -12 16 5 13 7 13 14 2 5
-7 9 -8 9 -3 0 6 -4 16 -8 22 -5 9 -15 -2 -30 -32z"/>
<path d="M314 1630 c1 -43 2 -45 31 -45 29 0 30 2 31 45 l2 45 -7 -40 c-5 -31
-10 -40 -26 -40 -16 0 -21 9 -26 40 l-7 40 2 -45z"/>
<path d="M402 1663 c12 -3 18 -17 21 -46 l4 -42 1 42 c2 30 7 43 20 46 9 3 -1
5 -23 5 -22 0 -32 -2 -23 -5z"/>
<path d="M591 1623 c1 -27 4 -38 6 -26 2 13 13 24 26 26 l22 4 -22 2 c-13 0
-23 7 -23 15 0 8 10 17 23 19 19 4 18 4 -5 6 -27 1 -28 -1 -27 -46z"/>
<path d="M762 1628 c-2 -46 -1 -48 26 -47 22 1 23 2 5 6 -18 3 -23 13 -26 46
l-4 42 -1 -47z"/>
<path d="M822 1628 c-2 -46 -1 -48 26 -47 22 1 23 2 5 6 -18 3 -23 13 -26 46
l-4 42 -1 -47z"/>
<path d="M1016 1648 c-9 -37 -6 -55 6 -28 l11 25 7 -25 c5 -14 8 -18 9 -10 1
23 -10 60 -19 60 -4 0 -10 -10 -14 -22z"/>
<path d="M1065 1643 c-12 -56 -13 -63 -9 -63 3 0 8 10 13 23 19 51 22 67 12
67 -6 0 -13 -12 -16 -27z"/>
<path d="M1104 1655 c-7 -18 3 -35 22 -35 23 0 16 -28 -8 -33 l-23 -4 23 -2
c32 -2 41 29 14 47 -28 18 -28 29 1 35 l22 4 -23 2 c-12 0 -25 -6 -28 -14z"/>
<path d="M1172 1640 c0 -19 2 -27 5 -17 2 9 2 25 0 35 -3 9 -5 1 -5 -18z"/>
<path d="M767 1525 c-10 -7 -17 -26 -17 -43 0 -30 15 -43 48 -41 10 1 6 4 -8
8 -19 5 -25 13 -25 36 0 25 5 31 30 35 26 5 27 7 9 12 -11 3 -28 0 -37 -7z"/>
<path d="M846 1527 c-27 -20 -18 -81 12 -85 48 -7 71 48 34 81 -22 20 -23 20
-46 4z m44 -21 c16 -31 7 -56 -20 -56 -11 0 -23 7 -27 16 -6 15 14 64 27 64 4
0 12 -11 20 -24z"/>
<path d="M1070 1537 c0 -3 -9 -30 -21 -59 -11 -29 -16 -48 -11 -43 14 15 44
97 37 103 -3 3 -5 2 -5 -1z"/>
<path d="M222 1523 c12 -3 18 -17 21 -46 l4 -42 1 42 c2 30 7 43 20 46 9 3 -1
5 -23 5 -22 0 -32 -2 -23 -5z"/>
<path d="M293 1485 c0 -27 2 -38 4 -22 2 15 2 37 0 50 -2 12 -4 0 -4 -28z"/>
<path d="M320 1485 c0 -27 2 -46 4 -44 8 8 10 78 3 85 -4 4 -7 -14 -7 -41z"/>
<path d="M380 1494 l0 -36 -20 23 -20 24 17 -32 c24 -45 33 -41 33 12 0 25 -2
45 -5 45 -3 0 -5 -16 -5 -36z"/>
<path d="M411 1508 c6 -12 15 -33 20 -47 5 -18 8 -20 8 -8 1 11 10 32 22 48
22 31 16 41 -7 12 -13 -17 -15 -17 -28 0 -19 24 -29 21 -15 -5z"/>
<path d="M494 1490 c1 -43 2 -45 31 -45 29 0 30 2 31 45 l2 45 -7 -40 c-5 -31
-10 -40 -26 -40 -16 0 -21 9 -26 40 l-7 40 2 -45z"/>
<path d="M581 1483 c1 -27 4 -38 6 -25 5 27 33 29 33 2 0 -11 5 -20 10 -20 12
0 13 10 0 30 -6 9 -5 17 2 21 19 12 0 39 -27 39 -23 0 -25 -3 -24 -47z m42 22
c1 -5 -6 -11 -15 -13 -11 -2 -18 3 -18 13 0 17 30 18 33 0z"/>
<path d="M662 1488 c-2 -46 -1 -48 26 -47 22 1 23 2 5 6 -18 3 -23 13 -26 46
l-4 42 -1 -47z"/>
<path d="M932 1483 l1 -48 5 40 4 40 18 -40 18 -40 15 35 15 35 5 -35 c3 -30
4 -28 5 13 2 52 -13 64 -23 17 -4 -16 -10 -30 -15 -30 -4 0 -13 14 -19 30 -15
46 -31 36 -29 -17z"/>
<path d="M1090 1485 c0 -43 1 -45 28 -44 23 2 24 2 5 6 -13 2 -23 11 -23 18 0
7 10 16 23 18 l22 4 -22 2 c-13 0 -23 7 -23 15 0 8 10 17 23 19 19 4 18 4 -5
6 -27 1 -28 -1 -28 -44z"/>
<path d="M1173 1523 c9 -2 25 -2 35 0 9 3 1 5 -18 5 -19 0 -27 -2 -17 -5z"/>
<path d="M1231 1483 c1 -27 4 -38 6 -26 2 13 13 24 26 26 l22 4 -22 2 c-13 0
-23 7 -23 15 0 8 10 17 23 19 19 4 18 4 -5 6 -27 1 -28 -1 -27 -46z"/>
<path d="M1312 1485 c-12 -25 -17 -45 -12 -45 6 0 13 7 16 15 8 20 24 19 40
-2 12 -16 12 -16 7 5 -3 13 -13 22 -24 22 -13 0 -16 5 -12 16 5 13 7 13 14 2
5 -7 9 -8 9 -3 0 6 -4 16 -8 22 -5 9 -15 -2 -30 -32z"/>
<path d="M1392 1483 l1 -48 5 40 4 40 18 -40 18 -40 15 35 15 35 5 -35 c3 -30
4 -28 5 13 2 52 -13 64 -23 17 -4 -16 -10 -30 -15 -30 -4 0 -13 14 -19 30 -15
46 -31 36 -29 -17z"/>
<path d="M1500 1485 c0 -43 1 -45 28 -44 23 2 24 2 5 6 -13 2 -23 11 -23 18 0
7 10 16 23 18 l22 4 -22 2 c-13 0 -23 7 -23 15 0 8 10 17 23 19 19 4 18 4 -5
6 -27 1 -28 -1 -28 -44z"/>
<path d="M1176 1475 l-27 -35 38 1 c23 1 29 3 16 6 -27 5 -28 7 -7 38 24 37
10 30 -20 -10z"/>
<path d="M1136 1387 c-27 -20 -18 -81 12 -85 48 -7 71 48 34 81 -22 20 -23 20
-46 4z m44 -21 c16 -31 7 -56 -20 -56 -11 0 -23 7 -27 16 -6 15 14 64 27 64 4
0 12 -11 20 -24z"/>
<path d="M232 1378 c-17 -17 -15 -65 4 -72 35 -13 54 -7 54 19 0 17 -5 25 -17
24 -11 0 -13 -3 -5 -6 20 -8 14 -33 -8 -33 -45 0 -35 58 11 71 l24 7 -25 1
c-15 1 -31 -4 -38 -11z"/>
<path d="M310 1345 c0 -43 1 -45 28 -44 23 2 24 2 5 6 -13 2 -23 11 -23 18 0
7 10 16 23 18 l22 4 -22 2 c-13 0 -23 7 -23 15 0 8 10 17 23 19 19 4 18 4 -5
6 -27 1 -28 -1 -28 -44z"/>
<path d="M382 1383 c12 -3 18 -17 21 -46 l4 -42 1 42 c2 30 7 43 20 46 9 3 -1
5 -23 5 -22 0 -32 -2 -23 -5z"/>
<path d="M498 1383 c27 -5 27 -4 2 -49 -25 -43 -4 -42 21 2 26 44 23 54 -13
53 -24 -1 -27 -3 -10 -6z"/>
<path d="M557 1383 c-4 -3 -7 -24 -7 -45 0 -31 4 -38 20 -38 27 0 42 32 30 64
-9 25 -29 34 -43 19z m33 -44 c0 -19 -5 -29 -15 -29 -15 0 -22 50 -9 63 12 12
24 -4 24 -34z"/>
<path d="M654 1375 c-7 -18 3 -35 22 -35 23 0 16 -28 -8 -33 l-23 -4 23 -2
c32 -2 41 29 14 47 -28 18 -28 29 1 35 l22 4 -23 2 c-12 0 -25 -6 -28 -14z"/>
<path d="M722 1383 c12 -3 18 -17 21 -46 l4 -42 1 42 c2 30 7 43 20 46 9 3 -1
5 -23 5 -22 0 -32 -2 -23 -5z"/>
<path d="M802 1345 c-12 -25 -17 -45 -12 -45 6 0 13 7 16 15 8 20 24 19 40 -2
12 -16 12 -16 7 5 -3 13 -13 22 -24 22 -13 0 -16 5 -12 16 5 13 7 13 14 2 5
-7 9 -8 9 -3 0 6 -4 16 -8 22 -5 9 -15 -2 -30 -32z"/>
<path d="M871 1343 c1 -27 4 -38 6 -25 5 24 33 31 33 8 0 -8 4 -18 10 -21 7
-4 7 2 0 19 -6 17 -6 26 2 28 21 7 -1 38 -27 38 -23 0 -25 -3 -24 -47z m42 22
c1 -5 -6 -11 -15 -13 -11 -2 -18 3 -18 13 0 17 30 18 33 0z"/>
<path d="M954 1375 c-7 -18 3 -35 22 -35 23 0 16 -28 -8 -33 l-23 -4 23 -2
c32 -2 41 29 14 47 -28 18 -28 29 1 35 l22 4 -23 2 c-12 0 -25 -6 -28 -14z"/>
<path d="M1051 1343 c1 -27 4 -38 6 -26 2 13 13 24 26 26 l22 4 -22 2 c-13 0
-23 7 -23 15 0 8 10 17 23 19 19 4 18 4 -5 6 -27 1 -28 -1 -27 -46z"/>
<path d="M1211 1343 c1 -27 4 -38 6 -25 5 24 33 31 33 8 0 -8 4 -18 10 -21 7
-4 7 2 0 19 -6 17 -6 26 2 28 21 7 -1 38 -27 38 -23 0 -25 -3 -24 -47z m42 22
c1 -5 -6 -11 -15 -13 -11 -2 -18 3 -18 13 0 17 30 18 33 0z"/>
<path d="M1321 1343 c1 -27 4 -38 6 -26 2 13 13 24 26 26 l22 4 -22 2 c-13 0
-23 7 -23 15 0 8 10 17 23 19 19 4 18 4 -5 6 -27 1 -28 -1 -27 -46z"/>
<path d="M1381 1343 c1 -27 4 -38 6 -25 5 27 33 29 33 2 0 -11 5 -20 10 -20
12 0 13 10 0 30 -6 9 -5 17 2 21 19 12 0 39 -27 39 -23 0 -25 -3 -24 -47z m42
22 c1 -5 -6 -11 -15 -13 -11 -2 -18 3 -18 13 0 17 30 18 33 0z"/>
<path d="M1460 1345 c0 -43 1 -45 28 -44 23 2 24 2 5 6 -13 2 -23 11 -23 18 0
7 10 16 23 18 l22 4 -22 2 c-13 0 -23 7 -23 15 0 8 10 17 23 19 19 4 18 4 -5
6 -27 1 -28 -1 -28 -44z"/>
<path d="M1530 1345 c0 -43 1 -45 28 -44 23 2 24 2 5 6 -13 2 -23 11 -23 18 0
7 10 16 23 18 l22 4 -22 2 c-13 0 -23 7 -23 15 0 8 10 17 23 19 19 4 18 4 -5
6 -27 1 -28 -1 -28 -44z"/>
<path d="M220 1205 c0 -43 1 -45 28 -44 23 2 24 2 5 6 -13 2 -23 11 -23 18 0
7 10 16 23 18 l22 4 -22 2 c-13 0 -23 7 -23 15 0 8 10 17 23 19 19 4 18 4 -5
6 -27 1 -28 -1 -28 -44z"/>
<path d="M303 1243 c9 -2 25 -2 35 0 9 3 1 5 -18 5 -19 0 -27 -2 -17 -5z"/>
<path d="M306 1195 l-27 -35 38 1 c23 1 29 3 16 6 -27 5 -28 11 -7 41 24 35 9
25 -20 -13z"/>
<path d="M1210 810 c0 -11 -4 -20 -10 -20 -5 0 -10 -16 -10 -35 0 -19 4 -35 9
-35 5 0 12 -10 14 -22 2 -13 5 12 6 55 0 42 -1 77 -4 77 -3 0 -5 -9 -5 -20z"/>
<path d="M1619 813 c-11 -13 -13 -29 -8 -53 l6 -35 2 33 c0 18 6 32 14 32 9 0
8 3 -2 9 -11 7 -10 11 5 20 11 6 14 11 8 11 -6 0 -17 -8 -25 -17z"/>
<path d="M1793 780 c0 -30 2 -43 4 -27 2 15 2 39 0 55 -2 15 -4 2 -4 -28z"/>
<path d="M2029 813 c-11 -13 -13 -29 -8 -53 l6 -35 2 33 c0 18 6 32 14 32 9 0
8 3 -2 9 -11 7 -10 11 5 20 11 6 14 11 8 11 -6 0 -17 -8 -25 -17z"/>
<path d="M1553 775 c0 -27 2 -38 4 -22 2 15 2 37 0 50 -2 12 -4 0 -4 -28z"/>
<path d="M2580 809 c23 -10 24 -11 7 -24 -15 -11 -16 -13 -2 -19 21 -8 19 -24
-5 -29 -17 -4 -16 -4 2 -3 20 1 23 6 23 41 0 35 -3 40 -25 42 l-25 3 25 -11z"/>
<path d="M1356 774 c-7 -25 -8 -26 -21 -8 -8 11 -15 14 -15 9 0 -6 6 -17 12
-23 10 -10 10 -17 -1 -35 -13 -20 -13 -21 2 -9 17 14 42 80 34 88 -2 3 -8 -7
-11 -22z"/>
<path d="M1410 790 c13 -8 12 -12 -8 -25 -27 -19 -21 -35 14 -35 18 0 24 5 24
23 0 24 -17 47 -34 47 -6 0 -4 -5 4 -10z m20 -40 c0 -5 -7 -10 -15 -10 -8 0
-15 5 -15 10 0 6 7 10 15 10 8 0 15 -4 15 -10z"/>
<path d="M1484 771 c-5 -24 -9 -29 -16 -19 -7 9 -8 8 -4 -6 4 -10 1 -26 -6
-35 -12 -14 -11 -14 4 -3 19 15 44 80 34 89 -3 4 -9 -8 -12 -26z"/>
<path d="M1657 793 c-4 -3 -7 -19 -7 -35 0 -24 4 -28 28 -27 23 2 24 2 5 6
-31 6 -29 23 2 23 23 0 24 2 15 20 -11 20 -31 26 -43 13z"/>
<path d="M1727 793 c-4 -3 -7 -19 -7 -35 0 -24 4 -28 28 -27 23 2 24 2 5 6
-31 6 -29 23 2 23 23 0 24 2 15 20 -11 20 -31 26 -43 13z"/>
<path d="M1853 784 c-4 -10 1 -20 13 -27 17 -10 17 -11 -1 -18 -19 -7 -18 -8
3 -8 26 -1 30 23 5 38 -16 9 -16 12 -3 21 11 7 11 10 2 10 -7 0 -15 -7 -19
-16z"/>
<path d="M1922 788 c-7 -7 -12 -22 -12 -35 0 -18 6 -23 25 -23 29 0 43 25 28
48 -13 21 -26 25 -41 10z m32 -14 c8 -20 -1 -34 -20 -34 -8 0 -14 8 -14 18 0
33 23 44 34 16z"/>
<path d="M2080 790 c13 -8 12 -12 -8 -25 -27 -19 -21 -35 14 -35 18 0 24 5 24
23 0 24 -17 47 -34 47 -6 0 -4 -5 4 -10z m20 -40 c0 -5 -7 -10 -15 -10 -8 0
-15 5 -15 10 0 6 7 10 15 10 8 0 15 -4 15 -10z"/>
<path d="M2121 762 c1 -36 1 -36 8 -7 3 17 11 30 16 30 5 0 12 -13 15 -30 l6
-30 6 30 c7 35 6 37 -27 40 -23 3 -25 0 -24 -33z"/>
<path d="M2195 792 c4 -8 11 -26 15 -40 7 -22 8 -23 9 -6 1 11 -6 29 -15 40
-8 10 -12 13 -9 6z"/>
<path d="M2252 788 c-7 -7 -12 -22 -12 -35 0 -18 6 -23 25 -23 29 0 43 25 28
48 -13 21 -26 25 -41 10z m32 -14 c8 -20 -1 -34 -20 -34 -8 0 -14 8 -14 18 0
33 23 44 34 16z"/>
<path d="M2322 768 c-2 -36 0 -38 28 -38 28 0 30 3 30 35 0 19 -4 35 -10 35
-5 0 -10 -13 -10 -30 0 -42 -27 -40 -33 3 -4 31 -4 31 -5 -5z"/>
<path d="M2393 784 c-4 -10 1 -20 13 -27 17 -10 17 -11 -1 -18 -19 -7 -18 -8
3 -8 26 -1 30 23 5 38 -16 9 -16 12 -3 21 11 7 11 10 2 10 -7 0 -15 -7 -19
-16z"/>
<path d="M2480 762 c0 -9 50 -35 56 -29 2 2 -10 11 -26 21 -17 9 -30 13 -30 8z"/>
<path d="M408 603 c-25 -7 -41 -62 -27 -100 20 -58 118 -58 138 0 27 75 -26
123 -111 100z"/>
<path d="M528 393 c-25 -7 -41 -62 -27 -100 20 -58 118 -58 138 0 27 75 -26
123 -111 100z"/>
<path d="M1640 316 c0 -2 11 -6 25 -8 14 -3 25 -1 25 3 0 5 -11 9 -25 9 -14 0
-25 -2 -25 -4z"/>
</g>
</svg>
