<!DOCTYPE svg PUBLIC "-//W3C//DTD SVG 20010904//EN" "http://www.w3.org/TR/2001/REC-SVG-20010904/DTD/svg10.dtd">
<svg version="1.0" xmlns="http://www.w3.org/2000/svg" width="323px" height="302px" viewBox="0 0 3230 3020" preserveAspectRatio="xMidYMid meet"><g fill="#522f17" stroke="none">
 <path d="M1852 2983 c3 -24 8 -28 33 -28 25 0 30 4 33 28 3 25 1 27 -33 27 -34 0 -36 -2 -33 -27z"/>
 <path d="M2030 2997 c0 -22 37 -49 62 -45 17 2 24 10 26 31 3 26 2 27 -42 27 -32 0 -46 -4 -46 -13z"/>
 <path d="M1754 2906 c-12 -31 0 -51 31 -51 27 0 30 3 30 30 0 25 -4 30 -28 33 -17 2 -29 -2 -33 -12z"/>
 <path d="M1327 2723 c-11 -10 -8 -61 3 -68 6 -3 14 5 19 18 6 14 15 28 21 32 5 3 8 11 5 16 -7 10 -38 12 -48 2z"/>
 <path d="M1125 2671 c-7 -12 12 -24 25 -16 11 7 4 25 -10 25 -5 0 -11 -4 -15 -9z"/>
 <path d="M784 2576 c-12 -31 0 -51 31 -51 27 0 30 3 30 30 0 25 -4 30 -28 33 -17 2 -29 -2 -33 -12z"/>
 <path d="M984 2576 c-12 -31 0 -51 31 -51 27 0 30 3 30 30 0 25 -4 30 -28 33 -17 2 -29 -2 -33 -12z"/>
 <path d="M1401 2566 c-21 -26 -9 -51 24 -51 27 0 30 3 30 30 0 23 -5 31 -21 33 -11 2 -26 -4 -33 -12z"/>
 <path d="M1084 2537 c-3 -8 -4 -36 -2 -63 3 -47 4 -49 33 -49 28 0 30 3 33 38 3 39 -8 61 -40 78 -13 7 -20 6 -24 -4z"/>
 <path d="M784 2476 c-12 -31 0 -51 31 -51 27 0 30 3 30 30 0 25 -4 30 -28 33 -17 2 -29 -2 -33 -12z"/>
 <path d="M984 2476 c-12 -31 0 -51 31 -51 27 0 30 3 30 30 0 25 -4 30 -28 33 -17 2 -29 -2 -33 -12z"/>
 <path d="M2026 2481 c-4 -5 -2 -12 3 -15 5 -4 12 -2 15 3 4 5 2 12 -3 15 -5 4 -12 2 -15 -3z"/>
 <path d="M1345 2470 c-9 -15 3 -30 25 -30 10 0 21 -7 24 -16 4 -10 15 -14 33 -12 24 3 28 8 28 33 0 29 -2 30 -52 33 -28 2 -54 -2 -58 -8z"/>
 <path d="M1494 2466 c-16 -42 35 -78 61 -43 6 9 30 17 56 19 31 2 44 7 44 18 0 22 -153 28 -161 6z"/>
 <path d="M1084 2375 c-9 -22 9 -37 37 -33 16 2 24 10 24 23 0 26 -52 35 -61 10z"/>
 <path d="M654 2367 c-3 -8 -4 -45 -2 -83 l3 -69 47 -3 c59 -4 90 11 86 41 -2 17 -11 23 -35 25 -31 3 -33 6 -33 42 0 29 -5 42 -19 50 -26 14 -41 13 -47 -3z"/>
 <path d="M654 2165 c-9 -22 9 -37 37 -33 16 2 24 10 24 23 0 26 -52 35 -61 10z"/>
 <path d="M654 2056 c-11 -28 4 -48 33 -44 22 2 28 8 28 28 0 20 -6 26 -28 28 -18 2 -29 -2 -33 -12z"/>
 </g>

<g fill="#25c417" stroke="none">
 <path d="M1034 2876 c-10 -26 1 -51 24 -54 14 -2 22 -10 22 -23 0 -11 6 -22 14 -25 8 -3 17 -15 20 -27 6 -24 22 -14 28 18 2 14 11 19 33 20 28 0 30 3 30 35 0 29 -4 36 -23 38 -12 2 -24 -3 -28 -11 -8 -22 -52 -9 -56 17 -4 26 -55 36 -64 12z"/>
 <path d="M1274 2847 c-3 -8 -4 -39 -2 -68 l3 -54 45 0 c39 0 45 3 48 23 3 17 -2 25 -17 29 -15 4 -21 15 -23 42 -2 29 -8 37 -26 39 -12 2 -24 -3 -28 -11z"/>
 <path d="M745 2687 c-18 -14 -13 -43 6 -31 6 3 9 -2 7 -12 -3 -18 8 -19 170 -22 147 -2 173 0 178 13 4 8 3 22 0 31 -5 14 -9 14 -22 3 -18 -14 -92 -13 -110 2 -9 7 -19 6 -33 -2 -16 -11 -25 -10 -45 0 -19 10 -29 11 -39 3 -16 -13 -59 -4 -70 15 -10 16 -18 16 -42 0z"/>
 <path d="M1417 2684 c-4 -4 -7 -18 -7 -31 0 -27 -8 -29 -25 -6 -13 18 -35 10 -35 -13 0 -21 -17 -17 -23 6 -5 18 -14 20 -87 20 -72 0 -82 -2 -87 -19 -3 -11 -14 -21 -25 -24 -28 -8 -21 -51 10 -55 17 -3 25 2 29 17 5 19 13 21 73 21 60 0 68 -2 73 -21 8 -29 51 -22 55 9 4 25 1 25 109 22 45 -1 87 1 93 5 12 8 -5 45 -22 45 -6 0 -17 8 -24 18 -12 16 -14 15 -38 -7 -25 -23 -41 -22 -41 2 0 13 -19 20 -28 11z"/>
 <path d="M1194 2566 c-13 -33 4 -47 48 -44 38 3 43 6 43 28 0 22 -5 25 -43 28 -31 2 -44 -1 -48 -12z"/>
 <path d="M605 2480 c-8 -13 13 -40 30 -40 7 0 15 -7 19 -15 7 -19 75 -20 82 -2 3 8 0 27 -6 43 -11 28 -12 29 -26 9 -14 -19 -16 -19 -25 -2 -11 19 -64 24 -74 7z"/>
 <path d="M654 2216 c-10 -26 0 -51 23 -54 14 -2 23 -12 25 -25 2 -17 10 -22 33 -22 27 0 30 3 30 30 0 23 -5 31 -22 33 -14 2 -23 11 -25 25 -4 27 -55 37 -64 13z"/>
 <path d="M904 2166 c-12 -31 0 -51 31 -51 27 0 30 3 30 30 0 25 -4 30 -28 33 -17 2 -29 -2 -33 -12z"/>
 </g>

<g fill="#52506e" stroke="none">
 <path d="M926 2991 c-4 -5 -2 -12 3 -15 5 -4 12 -2 15 3 4 5 2 12 -3 15 -5 4 -12 2 -15 -3z"/>
 <path d="M1235 2898 c-40 -14 -58 -29 -47 -40 5 -5 21 -2 38 7 37 19 64 19 93 -1 29 -21 49 -5 23 19 -24 22 -70 29 -107 15z"/>
 <path d="M1121 2856 c-9 -10 -9 -16 -1 -21 13 -8 42 14 34 26 -8 13 -20 11 -33 -5z"/>
 <path d="M781 2776 c-7 -8 -8 -17 -3 -20 6 -3 15 1 21 8 7 8 8 17 3 20 -6 3 -15 -1 -21 -8z"/>
 <path d="M1095 2770 c-4 -6 -3 -16 3 -22 6 -6 12 -6 17 2 4 6 3 16 -3 22 -6 6 -12 6 -17 -2z"/>
 <path d="M533 2760 c-24 -10 -41 -66 -25 -82 7 -7 15 1 26 26 15 35 37 46 61 28 15 -11 11 -50 -7 -69 -16 -16 -19 -16 -37 1 -14 13 -21 14 -27 5 -17 -29 62 -47 89 -20 6 6 12 32 13 57 2 40 0 46 -22 55 -30 11 -42 11 -71 -1z"/>
 <path d="M1376 2741 c-4 -5 -2 -12 3 -15 5 -4 12 -2 15 3 4 5 2 12 -3 15 -5 4 -12 2 -15 -3z"/>
 <path d="M1716 2741 c-4 -5 -2 -12 3 -15 5 -4 12 -2 15 3 4 5 2 12 -3 15 -5 4 -12 2 -15 -3z"/>
 <path d="M1416 2702 c-3 -6 1 -15 8 -21 8 -7 17 -8 20 -3 3 6 -1 15 -8 21 -8 7 -17 8 -20 3z"/>
 <path d="M1846 2651 c-4 -5 -2 -12 3 -15 5 -4 12 -2 15 3 4 5 2 12 -3 15 -5 4 -12 2 -15 -3z"/>
 <path d="M1096 2631 c-4 -5 -2 -12 3 -15 5 -4 12 -2 15 3 4 5 2 12 -3 15 -5 4 -12 2 -15 -3z"/>
 <path d="M1165 2601 c-7 -12 12 -24 25 -16 11 7 4 25 -10 25 -5 0 -11 -4 -15 -9z"/>
 <path d="M1296 2601 c-4 -5 -2 -12 3 -15 5 -4 12 -2 15 3 4 5 2 12 -3 15 -5 4 -12 2 -15 -3z"/>
 <path d="M734 2576 c-10 -26 0 -51 23 -54 14 -2 23 -12 25 -25 3 -21 7 -22 133 -22 127 0 130 0 133 23 2 14 10 22 22 22 28 0 34 18 15 46 -19 30 -49 28 -53 -4 -4 -29 -30 -29 -34 1 -3 21 -8 22 -83 22 -75 0 -80 -1 -83 -22 -2 -13 -10 -23 -17 -23 -7 0 -15 10 -17 23 -4 27 -55 38 -64 13z"/>
 <path d="M1454 2576 c-9 -23 0 -51 16 -51 10 0 15 10 15 29 0 32 -21 47 -31 22z"/>
 <path d="M427 2549 c-24 -14 -12 -29 23 -29 36 0 47 16 21 29 -23 13 -21 13 -44 0z"/>
 <path d="M396 2512 c-18 -30 20 -102 54 -102 36 0 78 88 50 105 -18 11 -31 -5 -20 -24 7 -14 5 -23 -10 -36 -19 -17 -21 -17 -39 -1 -11 10 -17 25 -14 35 5 20 -12 38 -21 23z"/>
 <path d="M1226 2481 c-4 -5 -2 -12 3 -15 5 -4 12 -2 15 3 4 5 2 12 -3 15 -5 4 -12 2 -15 -3z"/>
 <path d="M1156 2461 c-4 -5 -2 -12 3 -15 5 -4 12 -2 15 3 4 5 2 12 -3 15 -5 4 -12 2 -15 -3z"/>
 <path d="M1866 2445 c-16 -13 -24 -25 -18 -29 6 -3 23 4 38 17 36 31 18 42 -20 12z"/>
 <path d="M734 2426 c-15 -38 -1 -51 56 -51 54 0 55 0 55 30 0 29 -1 30 -53 33 -39 2 -54 -1 -58 -12z"/>
 <path d="M984 2426 c-15 -38 -1 -51 56 -51 54 0 55 0 55 30 0 29 -1 30 -53 33 -39 2 -54 -1 -58 -12z"/>
 <path d="M1666 2431 c-4 -5 -2 -12 3 -15 5 -4 12 -2 15 3 4 5 2 12 -3 15 -5 4 -12 2 -15 -3z"/>
 <path d="M704 2357 c-3 -8 -4 -32 -2 -53 2 -32 7 -40 26 -42 47 -7 55 4 33 46 -26 50 -49 70 -57 49z"/>
 <path d="M704 2216 c-12 -31 0 -51 31 -51 27 0 30 3 30 30 0 25 -4 30 -28 33 -17 2 -29 -2 -33 -12z"/>
 <path d="M707 2124 c-4 -4 -7 -30 -7 -59 0 -28 -5 -56 -12 -63 -7 -7 -10 -12 -7 -13 2 0 39 -2 83 -5 l78 -4 34 36 c19 19 32 39 29 44 -3 4 11 15 31 25 49 23 38 40 -27 40 -49 0 -54 -2 -57 -24 -2 -13 1 -28 7 -34 8 -8 3 -16 -17 -29 -37 -24 -72 -24 -72 1 0 13 8 21 23 23 17 2 22 10 22 33 0 29 -2 30 -50 33 -28 2 -54 0 -58 -4z"/>
 <path d="M966 2081 c-4 -5 -2 -12 3 -15 5 -4 12 -2 15 3 4 5 2 12 -3 15 -5 4 -12 2 -15 -3z"/>
 <path d="M996 2031 c-5 -8 15 -30 41 -45 26 -14 20 12 -7 32 -16 12 -31 18 -34 13z"/>
 </g>

<g fill="#9b7331" stroke="none">
 <path d="M1354 2847 c-3 -8 -4 -30 -2 -49 2 -28 7 -33 28 -33 23 0 25 4 25 45 0 39 -3 45 -23 48 -13 2 -24 -3 -28 -11z"/>
 <path d="M796 2751 c-4 -5 -2 -12 3 -15 5 -4 12 -2 15 3 4 5 2 12 -3 15 -5 4 -12 2 -15 -3z"/>
 <path d="M524 2738 c-3 -4 -2 -13 1 -19 4 -5 -1 -19 -10 -29 -17 -19 -17 -20 1 -26 11 -4 27 -14 37 -22 15 -13 19 -13 35 0 9 8 25 18 36 22 16 5 16 9 5 23 -8 9 -14 25 -14 37 0 17 -7 20 -43 21 -24 1 -45 -3 -48 -7z"/>
 <path d="M1193 2722 c-3 -11 -13 -22 -24 -25 -24 -6 -25 -45 -2 -54 10 -4 22 1 32 13 9 11 24 23 34 27 27 10 18 51 -11 55 -17 3 -25 -2 -29 -16z"/>
 <path d="M1385 2730 c-4 -6 -3 -16 3 -22 6 -6 12 -6 17 2 4 6 3 16 -3 22 -6 6 -12 6 -17 -2z"/>
 <path d="M1736 2731 c-4 -5 -2 -12 3 -15 5 -4 12 -2 15 3 4 5 2 12 -3 15 -5 4 -12 2 -15 -3z"/>
 <path d="M1818 2733 c-13 -24 -6 -63 12 -73 22 -12 26 -6 25 40 0 24 -5 36 -17 38 -9 2 -18 -1 -20 -5z"/>
 <path d="M895 2670 c-8 -13 20 -24 41 -16 20 8 9 26 -16 26 -10 0 -22 -5 -25 -10z"/>
 <path d="M975 2670 c-8 -14 7 -18 57 -16 27 0 48 6 48 11 0 12 -98 16 -105 5z"/>
 <path d="M1105 2668 c-9 -23 2 -51 17 -46 18 6 20 22 4 43 -14 19 -15 19 -21 3z"/>
 <path d="M1334 2646 c-4 -10 -2 -22 4 -28 8 -8 13 -7 18 6 4 10 2 22 -4 28 -8 8 -13 7 -18 -6z"/>
 <path d="M1194 2606 c-13 -33 4 -47 48 -44 38 3 43 6 43 28 0 22 -5 25 -43 28 -31 2 -44 -1 -48 -12z"/>
 <path d="M2053 2610 c-20 -8 -23 -17 -23 -65 0 -49 3 -57 24 -67 46 -20 57 -6 54 69 -3 72 -11 81 -55 63z"/>
 <path d="M1124 2559 c-9 -16 12 -33 31 -25 14 5 15 9 5 21 -15 18 -26 19 -36 4z"/>
 <path d="M404 2528 c-3 -4 -2 -13 1 -19 4 -5 -1 -19 -10 -29 -17 -19 -17 -20 1 -26 11 -4 27 -14 37 -22 15 -13 19 -13 35 0 9 8 25 18 36 22 16 5 16 9 5 23 -8 9 -14 25 -14 37 0 17 -7 20 -43 21 -24 1 -45 -3 -48 -7z"/>
 <path d="M1167 2533 c-3 -5 -8 -22 -11 -40 -8 -34 8 -53 27 -34 6 6 18 11 27 11 9 0 25 9 35 20 17 19 17 20 -1 26 -11 3 -29 10 -42 15 -28 11 -30 11 -35 2z"/>
 <path d="M734 2516 c-4 -10 -2 -22 4 -28 8 -8 13 -7 18 6 4 10 2 22 -4 28 -8 8 -13 7 -18 -6z"/>
 <path d="M1047 2524 c-4 -4 -3 -12 2 -18 5 -6 11 -22 13 -36 5 -38 23 -25 23 17 0 36 -20 55 -38 37z"/>
 <path d="M1347 2524 c-4 -4 -7 -15 -7 -25 0 -11 -9 -19 -22 -21 -18 -2 -23 -10 -23 -33 0 -27 3 -30 30 -30 23 0 31 5 33 22 3 22 8 23 125 25 101 3 122 6 122 18 0 12 -21 16 -110 20 -68 3 -108 9 -105 15 6 12 -32 19 -43 9z"/>
 <path d="M834 2476 c-12 -31 0 -51 31 -51 27 0 30 3 30 30 0 25 -4 30 -28 33 -17 2 -29 -2 -33 -12z"/>
 <path d="M934 2476 c-12 -31 0 -51 31 -51 27 0 30 3 30 30 0 25 -4 30 -28 33 -17 2 -29 -2 -33 -12z"/>
 <path d="M2034 2057 c-3 -8 -4 -30 -2 -49 3 -31 6 -33 38 -33 35 0 35 0 35 45 0 43 -1 45 -33 48 -21 2 -34 -2 -38 -11z"/>
 <path d="M2034 1607 c-3 -8 -4 -41 -2 -73 l3 -59 35 0 35 0 0 70 0 70 -33 3 c-21 2 -34 -2 -38 -11z"/>
 <path d="M1974 1106 c-3 -8 -4 -25 -2 -38 2 -19 9 -23 38 -23 33 0 35 2 35 35 0 32 -3 35 -33 38 -21 2 -34 -2 -38 -12z"/>
 <path d="M2594 976 c-3 -8 -4 -25 -2 -38 3 -22 7 -23 73 -23 l70 0 0 35 0 35 -68 3 c-52 2 -69 0 -73 -12z"/>
 <path d="M3094 976 c-3 -8 -4 -25 -2 -38 3 -21 9 -23 71 -26 l67 -3 0 41 0 40 -65 0 c-48 0 -67 -4 -71 -14z"/>
 <path d="M1974 916 c-3 -8 -4 -25 -2 -38 2 -19 9 -23 38 -23 33 0 35 2 35 35 0 32 -3 35 -33 38 -21 2 -34 -2 -38 -12z"/>
 <path d="M2154 916 c-3 -8 -4 -25 -2 -38 3 -20 9 -23 43 -23 39 0 40 1 40 35 0 33 -2 35 -38 38 -26 2 -39 -1 -43 -12z"/>
 <path d="M3157 44 c-4 -4 -7 -16 -7 -26 0 -13 8 -18 31 -18 26 0 30 3 27 23 -3 22 -36 36 -51 21z"/>
 </g>

<g fill="#5c492c" stroke="none">
 <path d="M1346 2701 c-21 -24 -14 -54 11 -49 20 4 30 45 16 59 -6 6 -17 2 -27 -10z"/>
 <path d="M1676 2661 c-10 -11 -13 -22 -8 -25 5 -3 17 3 26 13 10 11 13 22 8 25 -5 3 -17 -3 -26 -13z"/>
 <path d="M1605 2661 c-3 -6 3 -15 14 -21 12 -6 22 -6 26 -1 3 6 -3 15 -14 21 -12 6 -22 6 -26 1z"/>
 <path d="M1157 2572 c-16 -18 -16 -20 3 -37 24 -22 43 -9 38 26 -4 30 -20 34 -41 11z"/>
 <path d="M1205 2520 c-8 -13 20 -24 41 -16 20 8 9 26 -16 26 -10 0 -22 -5 -25 -10z"/>
 <path d="M2035 2491 c-7 -12 12 -24 25 -16 11 7 4 25 -10 25 -5 0 -11 -4 -15 -9z"/>
 <path d="M1084 2347 c-2 -7 -4 -49 -2 -93 l3 -79 30 0 30 0 0 90 0 90 -28 3 c-16 2 -29 -2 -33 -11z"/>
 <path d="M755 2240 c-10 -17 12 -37 25 -24 8 8 6 15 -4 23 -10 9 -16 9 -21 1z"/>
 <path d="M654 2137 c-3 -8 -4 -30 -2 -49 3 -29 6 -33 33 -33 29 0 30 2 30 45 0 42 -2 45 -28 48 -17 2 -29 -2 -33 -11z"/>
 <path d="M2034 2096 c-12 -30 4 -47 38 -44 28 2 33 7 33 28 0 21 -5 26 -33 28 -22 2 -34 -2 -38 -12z"/>
 <path d="M1974 1976 c-3 -8 -4 -25 -2 -38 2 -19 9 -23 38 -23 33 0 35 2 35 35 0 32 -3 35 -33 38 -21 2 -34 -2 -38 -12z"/>
 <path d="M1974 1666 c-3 -8 -4 -25 -2 -38 2 -19 9 -23 38 -23 33 0 35 2 35 35 0 32 -3 35 -33 38 -21 2 -34 -2 -38 -12z"/>
 <path d="M1974 1476 c-3 -8 -4 -25 -2 -38 2 -19 9 -23 38 -23 33 0 35 2 35 35 0 32 -3 35 -33 38 -21 2 -34 -2 -38 -12z"/>
 <path d="M2034 1166 c-3 -8 -4 -25 -2 -38 2 -19 9 -23 38 -23 33 0 35 2 35 35 0 32 -3 35 -33 38 -21 2 -34 -2 -38 -12z"/>
 <path d="M2034 1047 c-3 -8 -4 -41 -2 -73 l3 -59 65 0 65 0 0 35 c0 31 -3 35 -27 38 -22 3 -27 9 -30 35 -3 28 -7 32 -36 35 -21 2 -34 -2 -38 -11z"/>
 <path d="M2224 976 c-3 -8 -4 -25 -2 -38 2 -19 9 -23 38 -23 33 0 35 2 35 35 0 32 -3 35 -33 38 -21 2 -34 -2 -38 -12z"/>
 <path d="M2534 916 c-3 -8 -4 -25 -2 -38 2 -19 9 -23 38 -23 33 0 35 2 35 35 0 32 -3 35 -33 38 -21 2 -34 -2 -38 -12z"/>
 <path d="M2724 916 c-3 -8 -4 -25 -2 -38 2 -19 9 -23 38 -23 33 0 35 2 35 35 0 32 -3 35 -33 38 -21 2 -34 -2 -38 -12z"/>
 <path d="M3034 916 c-3 -8 -4 -25 -2 -38 2 -19 9 -23 38 -23 33 0 35 2 35 35 0 32 -3 35 -33 38 -21 2 -34 -2 -38 -12z"/>
 <path d="M3154 356 c-3 -8 -4 -25 -2 -38 2 -19 10 -24 41 -26 l37 -3 0 40 c0 40 -1 41 -35 41 -22 0 -38 -6 -41 -14z"/>
 <path d="M2914 297 c-2 -7 -4 -54 -2 -103 l3 -89 65 0 c63 0 65 1 68 27 3 21 9 27 30 30 24 3 27 7 27 38 0 31 -3 35 -27 38 -22 3 -27 9 -30 35 -3 32 -3 32 -66 35 -46 2 -64 -1 -68 -11z"/>
 <path d="M3156 111 c-8 -12 25 -31 54 -31 15 0 20 5 18 18 -4 19 -62 30 -72 13z"/>
 <path d="M2976 53 c-3 -4 -6 -17 -6 -30 0 -23 2 -23 100 -23 94 0 100 1 100 20 0 11 -6 22 -12 24 -25 8 -176 15 -182 9z"/>
 </g>

<g fill="#dccb39" stroke="none">
 <path d="M934 2976 c-10 -26 1 -51 24 -54 43 -6 25 -31 -25 -34 -46 -3 -48 -4 -48 -33 0 -23 5 -31 22 -33 19 -3 22 -11 25 -50 l3 -47 55 0 c54 0 55 0 55 30 0 23 -5 31 -22 33 -13 2 -23 10 -23 17 0 7 10 15 23 17 20 3 22 9 22 58 0 49 -2 55 -22 58 -14 2 -23 11 -25 25 -4 27 -55 37 -64 13z"/>
 <path d="M2104 2906 c-12 -31 0 -51 31 -51 27 0 30 3 30 30 0 25 -4 30 -28 33 -17 2 -29 -2 -33 -12z"/>
 <path d="M1754 2856 c-12 -31 0 -51 31 -51 27 0 30 3 30 30 0 25 -4 30 -28 33 -17 2 -29 -2 -33 -12z"/>
 <path d="M1854 2806 c-15 -38 -1 -51 56 -51 54 0 55 0 55 30 0 29 -1 30 -53 33 -39 2 -54 -1 -58 -12z"/>
 <path d="M2004 2806 c-15 -38 -1 -51 56 -51 54 0 55 0 55 30 0 29 -1 30 -53 33 -39 2 -54 -1 -58 -12z"/>
 <path d="M1134 2776 c-12 -31 0 -51 31 -51 27 0 30 3 30 30 0 25 -4 30 -28 33 -17 2 -29 -2 -33 -12z"/>
 <path d="M783 2764 c-9 -23 11 -38 26 -20 13 16 7 36 -10 36 -5 0 -12 -7 -16 -16z"/>
 <path d="M695 2741 c-9 -15 3 -31 23 -31 13 0 12 -3 -6 -16 -27 -19 -28 -36 -2 -59 17 -15 24 -16 45 -7 28 13 32 30 10 39 -14 5 -14 8 2 25 13 15 15 23 7 36 -13 19 -69 28 -79 13z"/>
 <path d="M1237 2734 c-14 -14 -7 -46 12 -51 11 -3 21 -14 24 -25 4 -14 12 -19 29 -16 20 3 23 9 23 48 l0 45 -40 3 c-23 2 -44 0 -48 -4z"/>
 <path d="M1384 2704 c-15 -36 -5 -89 17 -89 8 0 15 10 17 22 3 19 6 21 23 10 30 -19 54 2 54 49 l0 39 -49 0 c-45 1 -50 -1 -62 -31z"/>
 <path d="M1522 2728 c-21 -21 -13 -53 23 -87 38 -35 65 -36 65 -2 0 18 3 19 25 9 21 -9 28 -8 45 7 19 17 21 17 40 0 26 -23 52 -6 30 20 -9 11 -10 18 -1 29 9 10 7 17 -5 27 -14 11 -19 10 -36 -11 -18 -22 -20 -22 -16 -5 2 16 -3 21 -25 23 -16 2 -34 -2 -42 -8 -9 -7 -15 -8 -20 0 -9 14 -68 13 -83 -2z"/>
 <path d="M785 2670 c-3 -5 -2 -11 2 -13 14 -8 63 -2 66 8 3 12 -61 17 -68 5z"/>
 <path d="M1816 2671 c-8 -12 21 -34 34 -26 8 5 8 11 -1 21 -13 16 -25 18 -33 5z"/>
 <path d="M1035 2660 c-8 -12 20 -24 35 -15 6 3 8 11 5 16 -8 12 -32 12 -40 -1z"/>
 <path d="M1186 2661 c-4 -5 -2 -12 3 -15 5 -4 12 -2 15 3 4 5 2 12 -3 15 -5 4 -12 2 -15 -3z"/>
 <path d="M588 2529 c-27 -15 -23 -71 5 -97 27 -26 50 -28 67 -7 12 15 11 16 -37 31 -7 2 -13 12 -13 23 0 13 9 20 30 23 26 4 29 2 32 -26 4 -41 31 -41 39 -1 6 32 15 21 21 -25 2 -20 8 -25 33 -25 27 0 30 3 30 30 0 23 -5 31 -21 33 -12 2 -24 12 -27 23 -7 25 -35 35 -58 21 -11 -7 -20 -8 -24 -2 -8 13 -55 12 -77 -1z"/>
 <path d="M1369 2511 c-34 -28 -16 -32 122 -29 106 3 114 4 114 23 0 19 -8 20 -106 23 -93 2 -109 0 -130 -17z"/>
 <path d="M1185 2477 c-19 -14 -13 -37 9 -37 7 0 20 8 29 18 27 30 -2 44 -38 19z"/>
 <path d="M1084 2426 c-12 -31 0 -51 31 -51 27 0 30 3 30 30 0 25 -4 30 -28 33 -17 2 -29 -2 -33 -12z"/>
 <path d="M784 2376 c-3 -7 -4 -33 -2 -57 3 -41 5 -44 33 -44 23 0 31 5 33 23 2 12 10 22 17 22 7 0 15 -10 17 -22 2 -18 10 -23 33 -23 23 0 31 5 33 23 2 12 10 22 17 22 7 0 15 -10 17 -22 2 -18 10 -23 33 -23 30 0 30 1 30 55 l0 55 -128 3 c-102 2 -128 0 -133 -12z"/>
 </g>

<g fill="#70717e" stroke="none">
 <path d="M1835 2970 c-4 -6 -3 -16 3 -22 6 -6 12 -6 17 2 4 6 3 16 -3 22 -6 6 -12 6 -17 -2z"/>
 <path d="M1200 2914 c-19 -9 -51 -17 -70 -18 -29 -1 -36 -5 -38 -25 -5 -30 13 -50 30 -33 7 7 22 12 33 12 12 0 37 8 56 17 45 23 102 22 127 -1 23 -20 57 -18 57 3 0 47 -128 76 -195 45z"/>
 <path d="M834 2876 c-12 -31 0 -51 31 -51 27 0 30 3 30 30 0 25 -4 30 -28 33 -17 2 -29 -2 -33 -12z"/>
 <path d="M1407 2863 c-11 -10 -8 -81 3 -88 6 -4 17 10 26 30 12 28 12 40 3 51 -13 15 -22 18 -32 7z"/>
 <path d="M1034 2826 c-12 -31 0 -51 31 -51 27 0 30 3 30 30 0 25 -4 30 -28 33 -17 2 -29 -2 -33 -12z"/>
 <path d="M806 2781 c-4 -5 -2 -12 3 -15 5 -4 12 -2 15 3 4 5 2 12 -3 15 -5 4 -12 2 -15 -3z"/>
 <path d="M524 2770 c-59 -23 -47 -141 15 -155 54 -12 91 3 107 42 35 82 -36 148 -122 113z m71 -28 c6 -4 11 -11 12 -17 8 -57 8 -59 -19 -69 -50 -18 -89 41 -52 78 16 17 42 21 59 8z"/>
 <path d="M1375 2760 c-11 -18 5 -32 21 -19 12 10 15 10 12 -1 -2 -8 5 -14 15 -15 9 0 16 5 15 10 -2 6 -6 9 -10 8 -3 -1 -12 4 -18 12 -14 17 -26 19 -35 5z"/>
 <path d="M690 2746 c-9 -12 -8 -20 6 -41 13 -19 13 -25 3 -23 -7 2 -13 -5 -14 -14 0 -10 5 -17 10 -15 6 1 9 5 8 9 -1 3 4 11 12 18 11 9 12 17 4 31 -5 11 -7 24 -4 29 9 15 -12 21 -25 6z"/>
 <path d="M747 2753 c-4 -3 1 -15 10 -26 10 -10 17 -21 16 -23 -2 -2 0 -4 4 -4 4 0 8 6 9 14 2 17 -30 49 -39 39z"/>
 <path d="M1475 2741 c-3 -5 5 -17 17 -25 20 -14 24 -14 40 1 17 16 15 39 -3 27 -5 -3 -6 -11 -2 -17 4 -7 -5 -4 -19 5 -15 10 -30 14 -33 9z"/>
 <path d="M1586 2742 c-3 -5 3 -17 13 -26 16 -15 19 -15 35 3 11 12 14 21 7 26 -11 6 -15 -1 -11 -20 1 -5 -7 -1 -18 8 -11 10 -23 14 -26 9z"/>
 <path d="M1675 2741 c-6 -11 1 -15 18 -12 4 1 3 -7 -2 -17 -7 -14 -6 -24 4 -38 16 -21 16 -21 19 19 2 30 -27 66 -39 48z"/>
 <path d="M1416 2691 c-4 -5 -2 -12 3 -15 5 -4 12 -2 15 3 4 5 2 12 -3 15 -5 4 -12 2 -15 -3z"/>
 <path d="M1725 2650 c-3 -5 -2 -10 2 -12 13 -7 33 -3 36 6 3 12 -31 17 -38 6z"/>
 <path d="M1826 2651 c-4 -5 -2 -12 3 -15 5 -4 12 -2 15 3 4 5 2 12 -3 15 -5 4 -12 2 -15 -3z"/>
 <path d="M715 2630 c-3 -5 -2 -10 2 -12 13 -7 33 -3 36 6 3 12 -31 17 -38 6z"/>
 <path d="M890 2620 c-16 -30 -4 -40 50 -40 55 0 61 5 49 38 -12 31 -83 32 -99 2z"/>
 <path d="M1094 2616 c-4 -10 -2 -22 4 -28 8 -8 13 -7 18 6 4 10 2 22 -4 28 -8 8 -13 7 -18 -6z"/>
 <path d="M1366 2623 c-3 -4 -6 -15 -6 -25 0 -25 -29 -52 -69 -63 -42 -13 -40 -30 3 -30 25 0 32 -3 25 -12 -7 -7 -6 -13 1 -18 15 -9 31 4 28 23 -2 10 6 18 22 22 19 5 25 13 27 35 3 57 4 61 13 38 6 -15 18 -23 34 -23 18 0 25 -6 28 -22 3 -21 8 -23 63 -23 54 0 60 2 57 20 -2 11 -16 33 -31 48 -25 26 -36 29 -108 32 -45 2 -84 1 -87 -2z"/>
 <path d="M1556 2621 c-4 -5 -2 -12 3 -15 5 -4 12 -2 15 3 4 5 2 12 -3 15 -5 4 -12 2 -15 -3z"/>
 <path d="M1596 2621 c-4 -5 -2 -12 3 -15 5 -4 12 -2 15 3 4 5 2 12 -3 15 -5 4 -12 2 -15 -3z"/>
 <path d="M404 2560 c-59 -23 -47 -141 15 -155 54 -12 91 3 107 42 35 82 -36 148 -122 113z m64 -28 c7 -5 16 -22 21 -39 7 -25 6 -35 -8 -47 -10 -9 -24 -16 -31 -16 -7 0 -21 7 -31 16 -14 12 -15 22 -8 47 8 27 24 47 39 47 3 0 11 -4 18 -8z"/>
 <path d="M579 2532 c-29 -24 -11 -36 20 -13 14 11 19 21 13 25 -5 3 -20 -2 -33 -12z"/>
 <path d="M649 2549 c-5 -25 -4 -51 1 -54 11 -7 61 35 54 46 -8 14 -26 0 -17 -14 3 -7 -3 -3 -15 7 -12 11 -22 17 -23 15z"/>
 <path d="M755 2510 c-4 -6 -3 -16 3 -22 6 -6 12 -6 17 2 4 6 3 16 -3 22 -6 6 -12 6 -17 -2z"/>
 <path d="M1046 2501 c-4 -5 -2 -12 3 -15 5 -4 12 -2 15 3 4 5 2 12 -3 15 -5 4 -12 2 -15 -3z"/>
 <path d="M1605 2500 c-10 -17 12 -37 25 -24 8 8 6 15 -4 23 -10 9 -16 9 -21 1z"/>
 <path d="M1867 2473 c-49 -34 -130 -42 -176 -19 -29 16 -32 16 -38 0 -11 -30 24 -44 114 -44 81 0 84 1 123 36 22 20 37 40 34 45 -8 13 -15 11 -57 -18z"/>
 <path d="M1445 2470 c-4 -7 -3 -16 3 -22 14 -14 57 -6 57 12 0 18 -50 26 -60 10z"/>
 <path d="M566 2461 c-4 -5 -2 -12 3 -15 5 -4 12 -2 15 3 4 5 2 12 -3 15 -5 4 -12 2 -15 -3z"/>
 <path d="M1146 2461 c-4 -5 -2 -12 4 -16 5 -3 10 -3 10 1 0 3 6 2 13 -3 16 -12 37 -11 37 2 0 6 -8 10 -17 10 -10 0 -23 4 -30 8 -6 4 -14 3 -17 -2z"/>
 <path d="M1056 2451 c-4 -5 -2 -12 3 -15 5 -4 12 -2 15 3 4 5 2 12 -3 15 -5 4 -12 2 -15 -3z"/>
 <path d="M1271 2436 c-9 -10 -9 -16 -1 -21 17 -10 37 12 24 25 -8 8 -15 6 -23 -4z"/>
 <path d="M604 2418 c-6 -9 -4 -10 26 -11 11 -1 19 3 18 8 -4 12 -37 14 -44 3z"/>
 <path d="M704 2416 c-8 -22 3 -49 19 -43 6 2 12 14 12 27 0 27 -22 39 -31 16z"/>
 <path d="M1201 2338 c-5 -14 -17 -28 -25 -31 -25 -10 -22 -77 3 -84 11 -3 21 -14 23 -24 2 -11 8 -20 13 -19 13 0 19 160 6 173 -7 7 -13 2 -20 -15z"/>
 <path d="M1045 2301 c-6 -5 -21 -11 -35 -13 -26 -3 -37 -27 -24 -56 7 -16 8 -23 12 -46 1 -5 9 -3 17 4 8 7 12 16 9 21 -3 5 0 10 5 10 6 1 17 2 24 3 14 1 22 65 10 77 -5 5 -13 5 -18 0z"/>
 <path d="M786 2282 c-3 -5 -5 -26 -4 -46 1 -26 8 -40 25 -51 28 -19 33 -11 36 56 2 41 0 44 -25 47 -14 2 -29 -1 -32 -6z"/>
 <path d="M865 2171 c-8 -15 35 -35 47 -23 6 6 7 15 4 21 -9 14 -43 14 -51 2z"/>
 <path d="M964 2165 c-4 -9 -4 -37 -1 -63 4 -38 12 -53 46 -84 l40 -38 315 0 c289 0 349 5 316 25 -6 4 -140 7 -296 6 -310 -1 -332 2 -372 54 -14 17 -22 42 -22 66 0 40 -16 61 -26 34z"/>
 <path d="M1295 2101 c-3 -5 0 -13 6 -17 13 -8 607 -6 621 2 30 19 -33 24 -312 24 -180 0 -311 -4 -315 -9z"/>
 <path d="M844 2066 c-11 -8 -36 -18 -55 -23 -41 -11 -45 -37 -6 -41 31 -4 131 53 121 69 -8 13 -37 11 -60 -5z"/>
 <path d="M615 2020 c-11 -4 -107 -8 -213 -8 -106 -1 -198 -4 -203 -7 -30 -19 25 -25 245 -25 203 0 246 2 256 15 10 12 10 16 -1 19 -36 11 -66 14 -84 6z"/>
 <path d="M1757 1924 c-11 -11 -8 -1012 2 -1019 5 -3 12 -1 16 4 10 17 8 1002 -2 1012 -5 5 -12 6 -16 3z"/>
 <path d="M104 1909 c-8 -14 -7 -976 1 -990 21 -33 25 43 25 496 0 458 -4 529 -26 494z"/>
 <path d="M3067 1412 c-21 -22 -20 -101 1 -124 21 -25 103 -25 125 0 24 27 21 70 -9 109 -21 27 -32 33 -63 33 -24 0 -44 -7 -54 -18z m82 -50 c15 -22 17 -32 9 -40 -17 -17 -43 -15 -61 6 -15 16 -15 20 -1 40 20 29 29 28 53 -6z"/>
 <path d="M195 831 c-3 -5 0 -13 7 -17 16 -10 1460 -10 1476 0 7 4 10 12 7 17 -8 12 -1482 12 -1490 0z"/>
 <path d="M1914 797 c-3 -8 -4 -41 -2 -73 l3 -59 255 0 255 0 0 70 0 70 -253 3 c-207 2 -253 0 -258 -11z"/>
 </g>

<g fill="#5b1343" stroke="none">
 <path d="M2132 2998 c2 -13 10 -23 18 -23 8 0 16 10 18 23 3 17 -2 22 -18 22 -16 0 -21 -5 -18 -22z"/>
 <path d="M784 2876 c-10 -26 0 -51 23 -54 14 -2 23 -12 25 -25 2 -14 11 -23 25 -25 14 -2 23 -11 25 -25 2 -14 11 -23 25 -25 14 -2 23 -11 25 -25 3 -21 8 -22 108 -22 l105 0 0 30 c0 23 -5 31 -22 33 -14 2 -23 11 -25 25 -4 32 -62 32 -66 0 -3 -19 -10 -23 -42 -23 -32 0 -39 4 -42 23 -2 14 -11 23 -25 25 -14 2 -23 11 -25 25 -2 14 -11 23 -25 25 -14 2 -23 11 -25 25 -4 27 -55 37 -64 13z"/>
 <path d="M2067 2653 c-13 -12 -7 -44 8 -49 11 -4 15 -21 15 -59 0 -46 -3 -53 -22 -59 -22 -5 -22 -6 -6 -23 14 -13 22 -15 40 -5 13 6 32 12 43 14 18 3 20 11 20 73 0 68 -1 70 -26 73 -17 2 -29 11 -32 23 -5 19 -27 26 -40 12z"/>
 <path d="M2097 2074 c-4 -4 -7 -24 -7 -45 0 -34 -3 -38 -27 -41 -22 -2 -29 -9 -31 -30 -3 -21 -9 -27 -30 -30 -24 -3 -27 -7 -27 -38 0 -31 3 -35 28 -38 26 -3 27 -6 27 -57 0 -51 -1 -54 -27 -57 -25 -3 -28 -7 -28 -38 0 -31 3 -35 27 -38 21 -3 27 -9 30 -30 2 -21 9 -28 31 -30 26 -3 27 -6 27 -57 0 -51 -1 -54 -27 -57 -22 -2 -29 -9 -31 -30 -3 -21 -9 -27 -30 -30 -24 -3 -27 -7 -27 -38 0 -31 3 -35 28 -38 26 -3 27 -6 27 -57 0 -51 -1 -54 -27 -57 -27 -3 -28 -5 -28 -68 0 -63 1 -65 28 -68 19 -2 27 -9 27 -22 0 -13 -8 -20 -27 -22 -25 -3 -28 -7 -28 -43 0 -39 1 -40 35 -40 32 0 35 3 38 33 3 31 4 32 53 32 l49 0 0 -54 c0 -52 -1 -55 -27 -58 -25 -3 -28 -7 -28 -38 0 -33 2 -35 35 -35 31 0 35 3 38 28 3 21 9 27 27 27 18 0 24 -6 27 -27 3 -27 5 -28 68 -28 63 0 65 1 68 28 3 26 6 27 57 27 51 0 54 -1 57 -27 3 -25 7 -28 38 -28 31 0 35 3 38 27 3 21 9 27 30 30 21 2 28 9 30 31 3 26 6 27 57 27 51 0 54 -1 57 -27 2 -22 9 -29 30 -31 21 -3 27 -9 30 -30 3 -24 7 -27 38 -27 31 0 35 3 38 28 3 26 6 27 57 27 51 0 54 -1 57 -27 3 -25 7 -28 38 -28 31 0 35 3 38 27 3 21 9 27 30 30 21 2 28 9 30 31 3 26 5 27 63 27 l59 0 0 45 0 46 -67 -3 -68 -3 -3 -32 c-3 -26 -8 -32 -30 -35 -21 -2 -28 -9 -30 -30 -2 -20 -9 -28 -22 -28 -13 0 -20 8 -22 28 -3 27 -4 27 -73 27 -69 0 -70 0 -73 -27 -2 -20 -9 -28 -22 -28 -13 0 -20 8 -22 28 -2 21 -9 28 -30 30 -22 3 -27 9 -30 35 l-3 32 -70 0 -70 0 -3 -32 c-3 -26 -8 -32 -30 -35 -21 -2 -28 -9 -30 -30 -5 -39 -39 -39 -44 -1 -3 28 -4 28 -73 28 -69 0 -70 0 -73 -27 -3 -26 -6 -28 -52 -28 l-49 0 -3 63 c-3 62 -3 62 -35 65 -26 3 -32 8 -35 30 -3 25 -6 27 -60 30 l-58 3 0 49 c0 46 2 49 28 52 27 3 27 4 27 73 0 69 0 70 -27 73 -20 2 -28 9 -28 22 0 13 8 20 28 22 21 2 28 9 30 30 3 21 9 27 30 30 26 3 27 4 27 73 0 69 -1 70 -27 73 -21 3 -27 9 -30 30 -2 21 -9 28 -30 30 -20 2 -28 9 -28 22 0 13 8 20 28 22 27 3 27 4 27 73 0 69 0 70 -27 73 -20 2 -28 9 -28 22 0 13 8 20 28 22 21 2 28 9 30 30 3 21 9 27 30 30 25 3 27 6 27 53 0 48 -1 50 -30 53 -17 2 -34 0 -38 -4z"/>
 </g>

<g fill="#8b8c98" stroke="none">
 <path d="M1818 2993 c-3 -16 -4 -44 -4 -63 1 -28 5 -35 21 -35 18 0 20 7 22 63 2 54 -1 62 -16 62 -12 0 -20 -9 -23 -27z"/>
 <path d="M835 2970 c-8 -13 20 -24 41 -16 20 8 9 26 -16 26 -10 0 -22 -5 -25 -10z"/>
 <path d="M1045 2971 c-7 -12 12 -24 25 -16 11 7 4 25 -10 25 -5 0 -11 -4 -15 -9z"/>
 <path d="M1181 2924 c-24 -9 -52 -13 -62 -11 -21 6 -36 -10 -22 -24 17 -17 58 -16 98 2 67 31 163 19 186 -22 5 -10 19 -19 30 -19 23 0 20 -22 -12 -78 -19 -33 -19 -33 4 -41 26 -10 42 -4 29 12 -11 13 0 51 17 62 22 13 0 88 -27 91 -4 0 -27 10 -52 22 -53 26 -126 28 -189 6z"/>
 <path d="M1904 2907 c-3 -8 -4 -34 -2 -58 l3 -44 80 0 80 0 0 55 0 55 -78 3 c-60 2 -79 0 -83 -11z"/>
 <path d="M1748 2810 c-11 -7 -18 -23 -18 -40 0 -35 19 -50 27 -21 7 28 49 29 56 0 8 -31 41 -21 45 15 2 16 0 32 -5 37 -14 14 -87 20 -105 9z"/>
 <path d="M806 2801 c-3 -5 -1 -22 4 -37 13 -32 34 -20 28 17 -3 24 -22 36 -32 20z"/>
 <path d="M776 2781 c-4 -5 -2 -12 3 -15 5 -4 12 -2 15 3 4 5 2 12 -3 15 -5 4 -12 2 -15 -3z"/>
 <path d="M756 2752 c-3 -6 1 -15 8 -21 8 -7 17 -8 20 -3 3 6 -1 15 -8 21 -8 7 -17 8 -20 3z"/>
 <path d="M1706 2741 c-4 -5 -2 -12 3 -15 5 -4 12 -2 15 3 4 5 2 12 -3 15 -5 4 -12 2 -15 -3z"/>
 <path d="M766 2701 c-4 -5 -2 -12 3 -15 5 -4 12 -2 15 3 4 5 2 12 -3 15 -5 4 -12 2 -15 -3z"/>
 <path d="M1546 2691 c-4 -5 -2 -12 3 -15 5 -4 12 -2 15 3 4 5 2 12 -3 15 -5 4 -12 2 -15 -3z"/>
 <path d="M1706 2662 c-3 -6 1 -15 8 -21 8 -7 17 -8 20 -3 3 6 -1 15 -8 21 -8 7 -17 8 -20 3z"/>
 <path d="M1756 2651 c-4 -5 -2 -12 3 -15 5 -4 12 -2 15 3 4 5 2 12 -3 15 -5 4 -12 2 -15 -3z"/>
 <path d="M1816 2651 c-4 -5 -2 -12 3 -15 5 -4 12 -2 15 3 4 5 2 12 -3 15 -5 4 -12 2 -15 -3z"/>
 <path d="M1856 2651 c-4 -5 -2 -12 3 -15 5 -4 12 -2 15 3 4 5 2 12 -3 15 -5 4 -12 2 -15 -3z"/>
 <path d="M746 2631 c-4 -5 -2 -12 3 -15 5 -4 12 -2 15 3 4 5 2 12 -3 15 -5 4 -12 2 -15 -3z"/>
 <path d="M827 2633 c-11 -19 13 -53 37 -53 26 0 52 32 41 50 -7 12 -72 14 -78 3z"/>
 <path d="M974 2625 c-4 -8 -1 -22 6 -30 16 -20 59 -19 66 0 6 14 8 13 19 -1 17 -24 47 -11 43 18 -3 21 -9 23 -66 26 -49 2 -64 0 -68 -13z"/>
 <path d="M1478 2625 c-13 -13 2 -25 31 -25 26 0 61 -26 61 -44 0 -19 64 -87 77 -82 8 3 11 1 8 -4 -11 -17 57 -50 104 -50 64 0 183 63 167 88 -4 7 -24 0 -56 -20 -45 -28 -54 -30 -121 -26 -63 3 -74 7 -95 31 -13 16 -24 41 -24 56 0 47 -28 71 -90 78 -30 3 -58 2 -62 -2z"/>
 <path d="M1380 2600 c-9 -16 -8 -21 5 -26 23 -9 47 4 43 23 -5 26 -35 28 -48 3z"/>
 <path d="M1287 2583 c-15 -15 -6 -45 16 -51 19 -6 17 -7 -13 -12 -19 -3 -35 -11 -35 -17 0 -7 2 -12 5 -11 3 1 15 -4 28 -11 20 -11 27 -10 43 5 14 13 16 20 8 30 -6 7 -8 18 -4 24 4 6 -1 20 -11 31 -18 20 -27 23 -37 12z"/>
 <path d="M756 2521 c-4 -5 -2 -12 3 -15 5 -4 12 -2 15 3 4 5 2 12 -3 15 -5 4 -12 2 -15 -3z"/>
 <path d="M706 2501 c-4 -5 -2 -12 3 -15 5 -4 12 -2 15 3 4 5 2 12 -3 15 -5 4 -12 2 -15 -3z"/>
 <path d="M1044 2487 c-7 -20 -2 -47 11 -50 14 -3 19 43 6 56 -7 7 -12 6 -17 -6z"/>
 <path d="M884 2476 c-12 -31 0 -51 31 -51 27 0 30 3 30 30 0 25 -4 30 -28 33 -17 2 -29 -2 -33 -12z"/>
 <path d="M1216 2461 c-10 -11 -13 -22 -8 -25 5 -3 17 3 26 13 10 11 13 22 8 25 -5 3 -17 -3 -26 -13z"/>
 <path d="M1249 2430 c-19 -23 -51 -62 -71 -86 -41 -49 -52 -109 -23 -120 8 -3 27 -30 44 -58 36 -64 85 -96 158 -103 35 -4 53 -10 53 -19 0 -11 -32 -14 -164 -14 -91 0 -176 4 -190 10 -28 10 -56 57 -56 93 0 25 25 57 65 83 18 12 25 25 25 50 0 18 -4 35 -9 39 -6 3 -6 18 -1 36 7 23 5 31 -5 35 -30 12 -37 -7 -30 -77 6 -55 4 -69 -6 -69 -8 0 -26 -16 -41 -34 -36 -45 -36 -88 -2 -137 45 -65 67 -69 381 -68 333 1 352 -2 375 -61 13 -32 12 -998 -1 -1031 -18 -49 -45 -62 -144 -69 -149 -10 -1389 -4 -1417 8 -32 13 -56 40 -64 75 -9 39 -10 965 -1 1002 18 71 35 75 287 77 187 0 248 11 248 41 0 23 -11 27 -34 12 -15 -10 -67 -13 -198 -13 -191 -1 -241 -9 -286 -47 -63 -53 -64 -61 -63 -572 0 -397 3 -467 16 -500 19 -45 48 -77 96 -109 l36 -23 713 0 712 0 49 30 c49 31 81 73 93 122 4 16 7 234 8 485 0 405 -1 462 -16 497 -36 85 -91 114 -213 115 -67 0 -83 3 -83 15 0 12 33 15 218 17 185 3 217 5 217 18 0 13 -40 15 -292 16 -160 1 -306 4 -324 8 -46 9 -78 43 -86 89 -4 27 -12 41 -24 44 -22 6 -26 48 -5 56 8 3 19 23 26 44 7 21 28 55 48 75 26 27 33 41 25 49 -7 7 -20 -1 -44 -31z"/>
 <path d="M1166 2451 c-4 -5 -2 -12 3 -15 5 -4 12 -2 15 3 4 5 2 12 -3 15 -5 4 -12 2 -15 -3z"/>
 <path d="M646 2421 c-4 -5 -2 -12 3 -15 5 -4 12 -2 15 3 4 5 2 12 -3 15 -5 4 -12 2 -15 -3z"/>
 <path d="M684 2416 c-8 -22 3 -49 19 -43 6 2 12 14 12 27 0 27 -22 39 -31 16z"/>
 <path d="M635 2360 c-8 -14 -8 -116 0 -130 14 -23 25 5 25 65 0 60 -11 88 -25 65z"/>
 <path d="M766 2221 c-10 -16 93 -111 120 -111 57 0 34 54 -28 67 -15 3 -37 16 -49 29 -24 26 -35 29 -43 15z"/>
 <path d="M841 2076 c-7 -9 -28 -18 -47 -22 -37 -7 -51 -19 -34 -29 29 -18 125 33 104 55 -8 8 -14 7 -23 -4z"/>
 <path d="M3076 1378 c-32 -41 -18 -62 19 -28 24 22 27 23 42 7 14 -13 14 -19 3 -32 -22 -26 4 -44 30 -20 26 23 25 31 -6 72 -32 42 -56 42 -88 1z"/>
 <path d="M1914 356 c-3 -8 -4 -25 -2 -38 2 -19 9 -23 38 -23 33 0 35 2 35 35 0 32 -3 35 -33 38 -21 2 -34 -2 -38 -12z"/>
 <path d="M2344 356 c-3 -8 -4 -25 -2 -38 3 -20 9 -23 43 -23 39 0 40 1 40 35 0 33 -2 35 -38 38 -26 2 -39 -1 -43 -12z"/>
 </g>

<g fill="#a7a8b7" stroke="none">
 <path d="M756 3003 c3 -10 11 -28 17 -40 7 -17 7 -33 -3 -62 -7 -22 -10 -51 -8 -64 4 -19 0 -27 -14 -30 -28 -8 -21 -57 10 -68 17 -7 24 -5 29 8 4 10 18 27 31 38 27 24 23 45 -9 45 -29 0 -26 48 4 52 14 2 23 11 25 25 2 14 11 23 25 25 41 6 25 32 -25 42 -37 7 -48 14 -48 28 0 11 -7 18 -20 18 -14 0 -18 -5 -14 -17z"/>
 <path d="M1140 3000 c0 -16 -7 -20 -33 -20 -18 0 -41 -6 -52 -13 -20 -16 -13 -37 13 -37 10 0 23 -9 30 -20 14 -24 33 -25 87 -5 74 26 193 11 217 -28 4 -7 13 -12 20 -12 19 0 22 -44 5 -63 -8 -9 -18 -27 -21 -39 -9 -28 14 -43 28 -18 6 10 21 28 32 40 22 20 27 42 25 102 -1 23 -9 37 -32 54 -20 14 -34 18 -40 12 -6 -6 -28 -5 -61 3 -33 9 -76 11 -124 7 -75 -6 -90 1 -59 27 22 18 18 30 -10 30 -18 0 -25 -5 -25 -20z"/>
 <path d="M1754 2995 c4 -17 -2 -41 -19 -75 -14 -27 -25 -63 -25 -79 0 -16 -4 -32 -9 -35 -10 -7 -23 -95 -15 -108 3 -5 17 4 32 19 26 28 46 17 22 -13 -10 -12 -9 -18 5 -34 17 -19 17 -20 -2 -20 -12 0 -24 7 -27 16 -6 16 -20 12 -22 -7 -1 -5 -2 -13 -3 -19 0 -5 -18 -10 -40 -10 -43 0 -65 -17 -51 -40 6 -8 10 -27 10 -43 0 -17 13 -41 34 -64 32 -36 37 -38 108 -41 69 -4 76 -2 123 30 44 29 50 38 53 72 2 22 -1 49 -6 60 -6 12 -13 29 -16 39 -4 14 -13 16 -45 11 l-40 -6 -3 68 -3 69 -33 0 c-23 0 -31 4 -27 13 3 8 5 36 5 63 0 47 1 49 28 49 23 0 28 -4 28 -22 -1 -21 4 -23 44 -23 38 0 45 3 45 20 0 14 -8 21 -30 25 -33 6 -40 18 -37 73 l2 37 -46 0 c-44 0 -46 -1 -40 -25z m119 -393 c24 -21 21 -45 -9 -81 -24 -29 -30 -31 -95 -31 -79 0 -96 15 -60 54 11 12 21 27 21 33 0 6 12 20 27 31 31 23 86 20 116 -6z"/>
 <path d="M506 2776 c-32 -30 -36 -38 -26 -56 6 -11 15 -18 21 -15 5 4 7 10 4 15 -8 13 36 40 66 40 14 0 38 -10 53 -21 20 -16 30 -19 38 -11 16 16 -58 82 -92 82 -16 0 -41 -14 -64 -34z"/>
 <path d="M688 2753 c-3 -7 -3 -51 1 -76 0 -4 12 0 26 9 25 16 25 29 2 29 -7 0 -12 8 -12 17 0 19 -11 33 -17 21z"/>
 <path d="M1484 2739 c-2 -4 0 -10 5 -13 5 -3 7 -15 4 -25 -6 -23 15 -39 22 -17 3 9 7 23 10 31 2 8 3 18 2 22 -3 10 -37 11 -43 2z"/>
 <path d="M1595 2740 c-3 -4 1 -13 9 -19 10 -9 16 -8 26 4 7 8 11 15 9 16 -31 6 -40 6 -44 -1z"/>
 <path d="M415 2681 c-3 -5 -1 -12 3 -15 15 -9 67 -10 80 -2 21 13 2 26 -38 26 -21 0 -41 -4 -45 -9z"/>
 <path d="M687 2653 c-4 -3 0 -15 10 -25 15 -17 15 -19 -1 -31 -10 -7 -16 -22 -14 -32 2 -12 -3 -20 -11 -20 -15 0 -23 -42 -10 -51 4 -2 13 4 18 15 6 11 21 21 33 23 15 2 24 11 26 26 3 19 9 22 53 22 54 0 72 17 48 46 -10 13 -24 15 -63 10 -37 -4 -54 -2 -66 9 -9 8 -20 12 -23 8z"/>
 <path d="M1034 2615 c-4 -9 -2 -21 4 -27 15 -15 44 -1 40 19 -4 23 -36 29 -44 8z"/>
 <path d="M415 2570 c-3 -5 0 -13 9 -16 21 -8 61 -1 61 11 0 14 -62 19 -70 5z"/>
 <path d="M575 2536 c-11 -8 -14 -16 -8 -19 6 -4 18 0 28 7 11 8 14 16 8 19 -6 4 -18 0 -28 -7z"/>
 <path d="M606 2501 c-4 -5 -2 -12 3 -15 5 -4 12 -2 15 3 4 5 2 12 -3 15 -5 4 -12 2 -15 -3z"/>
 <path d="M1257 2502 c-10 -2 -22 -15 -28 -29 -8 -21 -14 -24 -47 -21 l-37 3 -3 -69 c-4 -100 1 -107 46 -56 20 24 51 62 67 83 61 81 58 75 38 85 -10 4 -26 7 -36 4z"/>
 <path d="M706 2491 c-4 -5 -2 -12 3 -15 5 -4 12 -2 15 3 4 5 2 12 -3 15 -5 4 -12 2 -15 -3z"/>
 <path d="M566 2452 c-3 -5 0 -15 8 -21 8 -7 12 -20 9 -31 -3 -11 0 -34 6 -51 6 -17 8 -36 4 -43 -9 -14 -4 -68 8 -83 6 -6 9 -44 7 -85 l-3 -73 -170 -2 c-282 -3 -340 -23 -371 -131 -14 -49 -16 -118 -16 -519 1 -476 5 -521 42 -573 17 -24 17 -27 2 -36 -14 -9 -13 -13 12 -29 23 -15 58 -21 170 -27 77 -4 145 -3 151 1 5 4 118 5 250 1 132 -4 245 -4 250 0 6 4 118 4 250 0 132 -4 244 -5 250 -2 5 3 79 6 165 6 136 1 159 3 185 20 25 16 27 21 14 29 -14 9 -14 14 6 43 13 18 26 57 29 86 4 30 7 256 8 504 0 471 -1 496 -43 556 -11 14 -19 29 -19 32 0 3 35 6 78 8 69 3 77 5 77 23 0 19 -7 20 -225 20 l-225 0 0 -30 0 -30 100 -5 c124 -7 159 -23 187 -88 20 -44 21 -63 20 -504 -1 -282 -5 -473 -12 -497 -12 -45 -53 -89 -89 -97 -14 -3 -33 -9 -42 -14 -9 -5 -327 -8 -707 -9 -651 0 -693 1 -729 19 -47 22 -67 44 -88 93 -13 32 -16 104 -17 501 -1 445 0 464 20 508 29 67 60 80 209 88 68 4 158 5 200 2 69 -4 81 -2 106 18 26 20 27 26 27 103 -1 45 -4 100 -8 122 -12 67 -4 105 24 116 19 6 25 15 22 32 -3 19 -8 22 -42 19 -28 -2 -44 2 -61 18 -13 12 -26 17 -29 12z"/>
 <path d="M834 2426 c-3 -8 -4 -23 -2 -33 3 -16 14 -18 83 -18 l80 0 0 30 0 30 -78 3 c-61 2 -78 0 -83 -12z"/>
 <path d="M415 2410 c-3 -5 0 -13 9 -16 21 -8 61 -1 61 11 0 14 -62 19 -70 5z"/>
 <path d="M1065 2359 c-12 -33 -10 -64 5 -64 9 0 16 11 18 29 4 32 -14 59 -23 35z"/>
 <path d="M834 2277 c-3 -8 -4 -34 -2 -58 l3 -44 73 -3 72 -3 0 -33 c0 -39 35 -95 70 -113 18 -9 75 -12 200 -10 l175 2 0 30 c0 29 -2 30 -58 36 -79 9 -121 33 -151 90 -41 74 -76 90 -76 33 0 -19 -5 -24 -24 -24 -19 0 -25 6 -28 27 -4 36 -20 39 -56 8 l-31 -26 -3 48 -3 48 -78 3 c-60 2 -79 0 -83 -11z m291 -127 c28 0 99 -70 85 -84 -4 -4 -43 -7 -85 -4 -83 4 -95 11 -95 65 0 35 14 44 48 32 13 -5 34 -9 47 -9z"/>
 <path d="M755 2218 c-4 -9 -5 -35 -3 -59 2 -37 7 -45 26 -47 12 -2 22 -10 22 -17 0 -7 -10 -15 -22 -17 -15 -2 -23 -10 -23 -23 0 -16 6 -20 33 -18 39 1 82 37 82 67 0 30 -107 135 -115 114z"/>
 <path d="M3102 1535 c-59 -32 -118 -113 -110 -151 4 -24 27 -29 34 -7 23 68 41 93 91 121 27 15 69 16 78 2 10 -16 35 -11 35 6 0 39 -78 57 -128 29z"/>
 <path d="M3087 1372 c-22 -24 -21 -45 1 -65 24 -22 45 -21 65 1 22 24 21 45 -1 65 -24 22 -45 21 -65 -1z m43 -32 c0 -5 -4 -10 -10 -10 -5 0 -10 5 -10 10 0 6 5 10 10 10 6 0 10 -4 10 -10z"/>
 <path d="M1914 667 c-2 -7 -3 -80 -2 -162 l3 -150 28 -3 c19 -2 27 -9 27 -22 0 -13 -8 -20 -27 -22 -25 -3 -28 -7 -28 -43 0 -39 1 -40 35 -40 32 0 35 3 38 32 l3 33 174 0 174 0 3 -32 c3 -31 5 -33 43 -33 l40 0 0 40 c0 38 -2 40 -32 43 -24 2 -33 8 -33 22 0 14 9 20 33 22 l32 3 0 160 0 160 -253 3 c-201 2 -254 0 -258 -11z"/>
 </g>

<g fill="#545353" stroke="none">
 <path d="M897 3003 c-22 -6 -17 -27 7 -31 18 -4 46 14 46 29 0 9 -22 10 -53 2z"/>
 <path d="M1854 2956 c-3 -8 -4 -23 -2 -33 3 -16 16 -18 133 -18 l130 0 0 30 0 30 -128 3 c-105 2 -128 0 -133 -12z"/>
 <path d="M1230 2887 c-46 -23 -31 -41 31 -38 55 2 69 -5 73 -41 3 -23 19 -8 22 19 3 27 -1 35 -30 52 -38 24 -61 26 -96 8z"/>
 <path d="M1804 2856 c-15 -38 -1 -51 56 -51 54 0 55 0 55 30 0 29 -1 30 -53 33 -39 2 -54 -1 -58 -12z"/>
 <path d="M2054 2856 c-15 -38 -1 -51 56 -51 54 0 55 0 55 30 0 29 -1 30 -53 33 -39 2 -54 -1 -58 -12z"/>
 <path d="M1136 2851 c-4 -5 -2 -12 3 -15 5 -4 12 -2 15 3 4 5 2 12 -3 15 -5 4 -12 2 -15 -3z"/>
 <path d="M796 2782 c-3 -6 1 -15 8 -21 8 -7 17 -8 20 -3 3 6 -1 15 -8 21 -8 7 -17 8 -20 3z"/>
 <path d="M545 2750 c-4 -7 -3 -16 3 -22 14 -14 47 -6 47 12 0 18 -40 26 -50 10z"/>
 <path d="M709 2758 c-7 -27 -3 -51 12 -59 23 -12 34 5 14 21 -8 7 -13 16 -10 20 3 5 1 11 -5 15 -5 3 -10 5 -11 3z"/>
 <path d="M1096 2751 c-4 -5 -2 -12 3 -15 5 -4 12 -2 15 3 4 5 2 12 -3 15 -5 4 -12 2 -15 -3z"/>
 <path d="M1381 2737 c-6 -8 -8 -17 -5 -20 10 -9 45 13 39 24 -9 13 -21 11 -34 -4z"/>
 <path d="M1435 2740 c-8 -13 20 -24 41 -16 20 8 9 26 -16 26 -10 0 -22 -5 -25 -10z"/>
 <path d="M1527 2739 c-21 -12 -13 -31 10 -22 10 4 14 2 10 -4 -4 -6 0 -16 7 -22 9 -8 16 -8 20 -2 4 5 1 13 -6 17 -8 5 -4 10 11 16 12 4 19 12 16 18 -8 13 -45 12 -68 -1z"/>
 <path d="M1617 2734 c-16 -9 -27 -22 -25 -31 5 -25 29 -28 35 -4 7 29 37 26 52 -5 15 -35 5 -47 -35 -41 -27 5 -36 2 -44 -14 -6 -10 -15 -18 -19 -16 -5 1 -9 -2 -10 -8 -1 -10 116 -8 132 2 5 3 7 15 6 26 -1 12 1 30 6 39 5 12 0 26 -16 43 -28 28 -43 30 -82 9z"/>
 <path d="M520 2715 c-9 -11 -10 -19 -3 -26 7 -7 14 -5 23 6 9 11 10 19 3 26 -7 7 -14 5 -23 -6z"/>
 <path d="M595 2720 c-4 -6 -3 -16 3 -22 6 -6 12 -6 17 2 4 6 3 16 -3 22 -6 6 -12 6 -17 -2z"/>
 <path d="M691 2682 c-11 -21 13 -67 30 -56 6 4 6 11 -2 20 -6 7 -9 20 -6 29 9 22 -11 28 -22 7z"/>
 <path d="M536 2671 c-4 -5 -2 -12 3 -15 5 -4 12 -2 15 3 4 5 2 12 -3 15 -5 4 -12 2 -15 -3z"/>
 <path d="M586 2671 c-4 -5 -2 -12 3 -15 5 -4 12 -2 15 3 4 5 2 12 -3 15 -5 4 -12 2 -15 -3z"/>
 <path d="M726 2671 c-4 -5 -2 -12 3 -15 5 -4 12 -2 15 3 4 5 2 12 -3 15 -5 4 -12 2 -15 -3z"/>
 <path d="M1385 2621 c-7 -12 12 -24 25 -16 11 7 4 25 -10 25 -5 0 -11 -4 -15 -9z"/>
 <path d="M607 2544 c-3 -4 -3 -12 1 -18 4 -6 7 -15 7 -21 0 -5 9 -10 20 -10 11 -1 26 -4 33 -9 8 -5 15 1 21 16 11 29 2 46 -14 25 -16 -22 -27 -22 -23 1 3 17 -31 30 -45 16z"/>
 <path d="M416 2521 c-10 -11 -15 -25 -11 -31 8 -13 28 -2 22 14 -3 7 4 11 17 11 28 0 37 19 10 23 -11 2 -28 -6 -38 -17z"/>
 <path d="M1146 2531 c-4 -5 -2 -12 3 -15 5 -4 12 -2 15 3 4 5 2 12 -3 15 -5 4 -12 2 -15 -3z"/>
 <path d="M766 2521 c-4 -5 -2 -12 3 -15 5 -4 12 -2 15 3 4 5 2 12 -3 15 -5 4 -12 2 -15 -3z"/>
 <path d="M567 2514 c-20 -21 12 -102 35 -88 6 4 6 10 -1 17 -15 15 -14 28 2 25 6 -2 12 3 12 10 0 6 -3 11 -7 10 -4 -2 -13 5 -20 15 -8 10 -17 15 -21 11z"/>
 <path d="M476 2501 c-4 -5 -2 -12 3 -15 5 -4 12 -2 15 3 4 5 2 12 -3 15 -5 4 -12 2 -15 -3z"/>
 <path d="M1146 2471 c-4 -5 -2 -12 3 -15 5 -4 12 -2 15 3 4 5 2 12 -3 15 -5 4 -12 2 -15 -3z"/>
 <path d="M415 2460 c-4 -6 -3 -16 3 -22 6 -6 12 -6 17 2 4 6 3 16 -3 22 -6 6 -12 6 -17 -2z"/>
 <path d="M465 2460 c-4 -6 -3 -16 3 -22 6 -6 12 -6 17 2 4 6 3 16 -3 22 -6 6 -12 6 -17 -2z"/>
 <path d="M1056 2462 c-3 -6 1 -15 8 -21 8 -7 17 -8 20 -3 3 6 -1 15 -8 21 -8 7 -17 8 -20 3z"/>
 <path d="M1444 2445 c-9 -22 9 -37 37 -33 16 2 24 10 24 23 0 26 -52 35 -61 10z"/>
 <path d="M1656 2431 c-4 -5 -2 -12 3 -15 5 -4 12 -2 15 3 4 5 2 12 -3 15 -5 4 -12 2 -15 -3z"/>
 <path d="M1855 2431 c-7 -12 12 -24 25 -16 11 7 4 25 -10 25 -5 0 -11 -4 -15 -9z"/>
 <path d="M1317 2324 c-4 -4 -2 -13 4 -21 9 -10 8 -21 -4 -45 -19 -40 -10 -59 13 -28 l17 23 6 -23 c3 -13 10 -19 17 -15 7 4 9 18 5 33 -5 22 -4 24 10 12 8 -7 14 -20 13 -29 -4 -20 40 -22 63 -3 14 11 18 10 23 -4 5 -12 10 -14 17 -7 8 8 8 21 0 46 -13 39 -46 74 -55 58 -4 -5 -2 -12 4 -16 5 -3 10 -11 10 -18 0 -8 -3 -8 -12 1 -15 15 -50 16 -65 1 -9 -9 -18 -5 -35 15 -13 15 -27 24 -31 20z"/>
 <path d="M1545 2288 c-9 -24 -2 -93 10 -93 14 0 19 85 6 98 -7 7 -12 5 -16 -5z"/>
 <path d="M1606 2288 c-15 -45 -12 -68 10 -89 26 -24 53 -17 32 8 -11 14 -10 15 10 9 13 -5 29 -3 37 4 10 8 18 8 33 -1 16 -10 23 -10 35 0 13 10 16 9 19 -9 6 -42 23 -19 23 33 l0 52 -80 0 -80 0 -6 -30 c-7 -30 -7 -30 -8 -3 -1 29 -19 47 -25 26z"/>
 <path d="M1849 2296 c-9 -18 -5 -67 6 -76 15 -13 39 -4 30 11 -16 24 9 26 30 2 23 -27 23 -28 44 -9 24 21 27 48 9 64 -10 8 -115 15 -119 8z m101 -35 c0 -6 -4 -13 -10 -16 -5 -3 -10 1 -10 9 0 9 5 16 10 16 6 0 10 -4 10 -9z"/>
 <path d="M2016 2289 c-15 -46 -12 -69 10 -90 26 -24 53 -17 32 8 -11 14 -10 15 9 9 12 -4 24 -2 28 4 3 6 12 7 18 3 23 -15 89 -9 101 9 10 16 12 16 33 -4 22 -20 24 -20 42 -4 17 15 19 15 25 1 9 -23 26 -9 27 23 1 27 1 27 8 -3 5 -26 10 -30 41 -30 24 0 34 5 32 14 -1 7 2 19 9 27 22 27 3 42 -55 43 -30 0 -58 -4 -62 -10 -4 -7 -10 -6 -19 1 -7 6 -30 9 -51 7 -31 -3 -40 -9 -42 -26 -4 -28 -20 -27 -24 2 -4 32 -22 27 -29 -8 l-6 -30 -4 30 c-3 25 -9 30 -41 33 -20 2 -39 -2 -43 -8 -5 -8 -11 -8 -21 1 -11 9 -15 8 -18 -2z m52 -55 c-10 -10 -28 6 -28 24 0 15 1 15 17 -1 9 -9 14 -19 11 -23z m212 27 c0 -6 -4 -13 -10 -16 -5 -3 -10 1 -10 9 0 9 5 16 10 16 6 0 10 -4 10 -9z"/>
 <path d="M2495 2283 c-33 -18 -32 -29 5 -48 36 -19 63 -9 34 12 -16 12 -17 15 -4 23 8 6 21 8 28 5 8 -3 19 -5 25 -5 6 0 2 -6 -9 -14 -19 -14 -19 -15 0 -22 18 -7 18 -8 -3 -16 -12 -4 -19 -12 -16 -18 9 -14 42 -12 52 3 12 18 12 70 1 84 -12 15 -80 13 -113 -4z"/>
 <path d="M896 2081 c-4 -5 -2 -12 3 -15 5 -4 12 -2 15 3 4 5 2 12 -3 15 -5 4 -12 2 -15 -3z"/>
 <path d="M705 2000 c-8 -13 20 -24 41 -16 20 8 9 26 -16 26 -10 0 -22 -5 -25 -10z"/>
 <path d="M836 2001 c-4 -5 -2 -12 3 -15 5 -4 12 -2 15 3 4 5 2 12 -3 15 -5 4 -12 2 -15 -3z"/>
 <path d="M1015 2001 c-7 -12 12 -24 25 -16 11 7 4 25 -10 25 -5 0 -11 -4 -15 -9z"/>
 <path d="M407 1869 c-9 -6 -15 -15 -12 -20 4 -5 11 -7 16 -4 5 4 9 -3 9 -14 0 -12 -3 -20 -7 -18 -5 1 -8 -2 -8 -8 0 -5 4 -9 8 -7 4 1 3 -7 -3 -17 -6 -13 -7 -22 0 -26 11 -7 40 46 40 73 0 31 -22 53 -43 41z"/>
 <path d="M214 1855 c-3 -7 -4 -30 -2 -51 l3 -39 60 -2 c86 -3 91 0 66 41 l-21 34 21 5 c41 11 7 26 -57 26 -44 -1 -67 -5 -70 -14z m87 -67 c-11 -4 -29 -4 -42 -1 l-23 6 23 9 c24 9 20 28 -7 29 -14 0 -13 2 3 9 15 6 25 2 42 -18 22 -26 22 -27 4 -34z"/>
 <path d="M456 1861 c-4 -5 -2 -12 3 -15 5 -4 12 -2 15 3 4 5 2 12 -3 15 -5 4 -12 2 -15 -3z"/>
 <path d="M227 1719 c-22 -13 -22 -62 1 -81 12 -11 42 -16 114 -16 93 -1 125 7 94 25 -8 4 -16 24 -18 43 -4 45 -22 45 -26 0 -4 -39 -15 -50 -45 -42 -20 5 -20 5 2 14 24 9 20 28 -7 29 -12 0 -10 3 6 10 13 5 21 13 18 18 -8 12 -117 12 -139 0z m34 -33 c-14 -17 2 -31 24 -22 9 3 15 0 15 -8 0 -11 -7 -12 -27 -7 -32 8 -46 51 -17 51 13 0 14 -3 5 -14z"/>
 <path d="M477 1724 c-3 -3 3 -21 13 -39 18 -33 18 -33 -2 -38 -40 -11 -6 -27 50 -24 51 2 58 5 70 30 12 24 11 31 -3 53 -23 35 -58 29 -66 -11 -4 -16 -7 -23 -8 -14 0 9 -9 23 -19 32 -20 18 -26 20 -35 11z m100 -61 c-3 -10 -5 -4 -5 12 0 17 2 24 5 18 2 -7 2 -21 0 -30z"/>
 <path d="M645 1720 c-4 -7 2 -14 14 -17 20 -5 20 -5 -2 -23 -36 -30 -13 -54 54 -58 69 -3 91 4 67 22 -9 7 -18 28 -20 47 -4 44 -22 44 -26 -1 -4 -39 -15 -50 -43 -43 -17 5 -17 6 4 23 18 15 20 22 11 37 -13 21 -49 29 -59 13z"/>
 <path d="M777 1724 c-3 -4 5 -29 20 -57 24 -48 26 -50 39 -32 8 10 15 26 15 34 1 9 4 3 8 -14 7 -33 41 -46 67 -24 11 9 18 9 26 1 15 -15 45 -15 53 -1 4 6 -2 13 -14 16 -20 5 -20 5 2 23 18 15 20 22 11 37 -15 25 -81 25 -99 0 -12 -17 -13 -17 -18 2 -5 21 -26 22 -50 3 -11 -10 -17 -9 -27 3 -13 16 -23 19 -33 9z m196 -24 c12 0 -23 -29 -35 -30 -5 0 -8 9 -8 21 0 15 4 19 16 15 9 -3 21 -6 27 -6z"/>
 <path d="M1044 1717 c-3 -8 -4 -32 -2 -53 2 -32 7 -40 27 -42 34 -5 51 15 21 26 l-24 9 22 5 c15 4 22 2 22 -8 0 -7 11 -21 25 -30 24 -16 27 -15 44 0 13 11 21 14 26 7 9 -15 50 -14 63 2 7 9 9 61 2 97 0 3 -9 -5 -19 -17 l-19 -22 -5 21 c-5 17 -9 19 -20 10 -9 -8 -17 -8 -24 -1 -16 16 -56 7 -68 -16 -11 -22 -45 -22 -45 0 0 20 -19 29 -26 12z m134 -39 c-2 -13 -10 -23 -18 -23 -8 0 -16 10 -18 23 -3 17 2 22 18 22 16 0 21 -5 18 -22z"/>
 <path d="M1314 1717 c-3 -8 -4 -32 -2 -53 l3 -39 54 -2 c30 -1 60 2 67 8 8 6 14 6 18 0 8 -12 124 -12 132 0 3 5 -5 13 -18 18 -16 7 -18 10 -6 10 27 1 32 22 7 28 l-23 6 23 9 c42 15 10 27 -71 25 -70 -2 -82 -5 -88 -21 -6 -19 -7 -18 -13 3 -6 24 -27 21 -27 -5 0 -8 -7 -14 -15 -14 -8 0 -15 6 -15 14 0 21 -19 30 -26 13z m206 -21 c0 -10 -7 -12 -22 -8 -21 5 -21 6 -2 13 10 4 20 8 22 8 1 1 2 -5 2 -13z m0 -40 c0 -10 -7 -12 -22 -8 -21 5 -21 6 -2 13 10 4 20 8 22 8 1 1 2 -5 2 -13z"/>
 <path d="M1012 1585 c-15 -11 -23 -12 -28 -4 -5 9 -11 7 -19 -5 -12 -15 -13 -15 -20 1 -6 17 -7 17 -19 0 -12 -15 -15 -15 -26 -2 -15 18 -51 20 -68 3 -7 -7 -12 -25 -12 -40 0 -23 -4 -28 -25 -28 -20 0 -25 5 -25 25 0 18 5 25 19 25 11 0 23 5 26 10 10 16 -24 24 -51 12 -19 -9 -24 -19 -24 -46 0 -42 32 -68 68 -55 15 6 31 5 44 -2 17 -9 24 -7 41 10 19 18 22 19 32 4 14 -19 33 -10 45 21 8 20 8 20 19 -7 14 -37 35 -30 41 14 l5 34 17 -43 c11 -28 21 -41 29 -37 6 4 53 7 105 7 93 0 126 10 83 26 l-23 9 23 6 c24 6 21 27 -3 27 -8 0 -16 8 -19 19 -4 16 -14 18 -83 17 l-79 -1 -6 -30 -6 -30 -7 27 c-12 40 -28 50 -54 33z m159 -77 c-11 -4 -29 -4 -42 -1 l-23 6 23 9 c24 9 20 28 -7 29 -14 0 -13 2 3 9 15 6 25 2 42 -18 22 -26 22 -27 4 -34z m-283 30 c-2 -13 -10 -23 -18 -23 -8 0 -16 10 -18 23 -3 17 2 22 18 22 16 0 21 -5 18 -22z m332 0 c0 -12 -1 -19 -3 -17 -1 2 -9 12 -16 22 -12 14 -11 17 3 17 10 0 16 -8 16 -22z"/>
 <path d="M236 1583 c-3 -3 -6 -21 -6 -39 0 -20 -6 -34 -16 -38 -34 -13 0 -27 58 -23 49 3 64 8 78 27 l18 24 4 -24 c4 -28 38 -36 56 -13 11 16 13 16 25 0 6 -9 21 -15 32 -13 15 2 21 12 23 39 4 50 30 50 34 1 3 -35 5 -37 42 -41 21 -2 44 1 51 7 9 8 15 8 20 0 12 -19 25 0 25 36 0 23 5 34 15 35 31 3 35 4 35 14 0 6 -25 11 -56 11 -47 1 -57 -2 -63 -19 -7 -20 -8 -20 -14 3 -5 19 -9 21 -21 11 -10 -8 -16 -9 -21 -1 -8 14 -48 13 -63 -2 -7 -7 -12 -26 -12 -42 0 -29 -1 -29 -14 -11 -7 11 -15 29 -17 40 -6 29 -22 21 -33 -17 l-10 -33 -5 34 c-8 44 -27 51 -43 15 l-13 -27 -5 24 c-4 17 -13 23 -30 23 -22 1 -25 -5 -28 -37 -4 -47 -22 -49 -22 -3 0 34 -11 52 -24 39z"/>
 <path d="M1287 1584 c-9 -10 42 -106 53 -99 5 3 15 25 22 48 l13 42 5 -45 c6 -51 27 -60 47 -20 l12 24 9 -25 c8 -21 17 -25 55 -27 51 -2 71 13 35 27 -16 7 -18 10 -6 10 27 1 32 22 7 28 l-23 6 23 9 c12 4 19 13 16 18 -7 11 -72 9 -92 -3 -6 -4 -15 -2 -19 4 -5 9 -11 7 -19 -5 -10 -13 -14 -14 -18 -3 -6 16 -39 16 -60 -1 -11 -10 -17 -9 -27 3 -13 16 -23 19 -33 9z"/>
 <path d="M207 1444 c-9 -9 42 -106 52 -99 12 7 41 92 33 99 -3 3 -13 -1 -22 -9 -15 -14 -18 -14 -30 0 -13 16 -23 19 -33 9z"/>
 <path d="M311 1436 c-14 -17 -11 -91 4 -91 6 0 11 17 13 38 2 23 8 37 17 37 9 0 15 -14 17 -37 l3 -38 61 -1 c33 0 66 -4 73 -8 17 -11 61 32 61 59 0 43 -60 71 -88 43 -7 -7 -12 -25 -12 -40 0 -40 -18 -34 -22 7 -2 20 -7 35 -13 35 -5 0 -11 -15 -13 -35 -4 -41 -22 -47 -22 -7 0 15 -5 33 -12 40 -16 16 -53 15 -67 -2z m217 -38 c-2 -13 -10 -23 -18 -23 -8 0 -16 10 -18 23 -3 17 2 22 18 22 16 0 21 -5 18 -22z"/>
 <path d="M584 1437 c-3 -8 -4 -32 -2 -53 2 -32 7 -40 27 -42 34 -5 51 15 21 26 l-24 9 22 5 c15 4 22 2 22 -8 0 -7 11 -21 25 -30 25 -16 27 -16 49 5 21 19 24 20 30 6 10 -26 26 -7 26 31 0 49 28 46 32 -3 4 -49 22 -49 26 -2 2 27 8 38 24 42 37 10 8 26 -48 26 -39 0 -57 -5 -61 -15 -5 -13 -8 -13 -23 1 -23 21 -62 16 -75 -10 -11 -22 -45 -22 -45 0 0 20 -19 29 -26 12z m134 -39 c-2 -13 -10 -23 -18 -23 -8 0 -16 10 -18 23 -3 17 2 22 18 22 16 0 21 -5 18 -22z"/>
 <path d="M892 1438 c-7 -7 -12 -27 -12 -45 0 -40 40 -74 65 -53 8 6 19 9 24 6 6 -4 15 4 22 16 l12 22 8 -22 c10 -26 24 -28 37 -6 8 14 10 14 15 1 4 -11 20 -14 64 -13 l58 2 0 44 c0 25 -5 45 -10 45 -5 0 -8 -7 -7 -15 2 -8 -4 -5 -13 8 -17 23 -49 30 -60 12 -3 -6 3 -14 14 -18 21 -7 21 -7 1 -20 -18 -11 -21 -9 -30 12 -12 33 -27 40 -39 19 -11 -17 -12 -17 -22 0 -10 17 -12 17 -28 2 -16 -14 -19 -14 -31 0 -15 18 -51 20 -68 3z m56 -40 c-2 -13 -10 -23 -18 -23 -8 0 -16 10 -18 23 -3 17 2 22 18 22 16 0 21 -5 18 -22z m212 -17 c0 -14 -5 -18 -20 -14 -19 5 -20 6 -3 19 23 17 23 17 23 -5z"/>
 <path d="M3059 1423 c-13 -16 -30 -38 -37 -50 -14 -26 -6 -47 37 -95 22 -25 32 -28 83 -28 54 0 59 2 68 26 6 14 10 49 10 78 0 69 -26 96 -91 96 -37 0 -50 -5 -70 -27z m110 -42 c38 -54 22 -91 -39 -91 -20 0 -41 5 -48 12 -16 16 -16 80 0 96 22 22 65 14 87 -17z"/>
 <path d="M236 1303 c-3 -3 -6 -21 -6 -39 0 -20 -6 -34 -16 -38 -26 -10 -5 -26 35 -26 22 0 44 6 51 15 11 13 14 13 26 -2 13 -17 15 -17 28 0 12 16 14 16 20 1 4 -10 12 -14 22 -10 8 3 25 1 36 -5 16 -9 24 -6 44 12 29 27 31 60 5 83 -26 23 -63 17 -78 -14 -8 -16 -13 -19 -13 -9 0 9 -6 22 -14 28 -11 10 -17 8 -25 -6 -11 -17 -11 -17 -22 0 -14 24 -35 7 -44 -34 -9 -40 -25 -37 -25 5 0 34 -11 52 -24 39z m232 -45 c-2 -13 -10 -23 -18 -23 -8 0 -16 10 -18 23 -3 17 2 22 18 22 16 0 21 -5 18 -22z"/>
 <path d="M524 1296 c-3 -8 -4 -31 -2 -52 3 -37 5 -39 38 -39 27 0 37 6 49 26 13 24 13 29 -2 53 -19 29 -73 37 -83 12z m60 -25 c9 -14 -4 -41 -20 -41 -8 0 -14 10 -14 25 0 25 23 35 34 16z"/>
 <path d="M617 1304 c-9 -9 42 -106 52 -99 12 7 41 92 33 99 -3 3 -13 -1 -22 -9 -15 -14 -18 -14 -30 0 -13 16 -23 19 -33 9z"/>
 <path d="M724 1293 c-3 -10 -12 -32 -19 -50 -17 -38 -1 -58 22 -27 13 17 15 17 23 3 7 -13 23 -16 67 -15 l58 2 0 44 c0 25 -5 45 -10 45 -6 0 -9 -6 -7 -15 2 -8 -4 -5 -13 8 -17 23 -49 29 -60 11 -4 -6 2 -13 13 -16 19 -5 19 -5 -2 -26 -18 -19 -23 -20 -33 -7 -7 8 -13 23 -13 32 0 24 -19 32 -26 11z m126 -52 c0 -14 -5 -18 -20 -14 -19 5 -20 6 -3 19 23 17 23 17 23 -5z"/>
 <path d="M916 1303 c-10 -10 -7 -91 4 -98 5 -3 17 7 27 21 l17 27 6 -24 c5 -21 12 -24 55 -25 40 -2 53 2 68 20 l17 21 18 -21 c13 -17 29 -21 78 -22 72 -2 82 6 80 62 -2 45 -22 59 -34 25 -8 -22 -9 -22 -14 -2 -4 16 -13 20 -44 19 -35 -1 -39 -4 -42 -30 l-4 -29 -19 33 c-16 26 -22 30 -34 20 -8 -7 -15 -19 -15 -27 0 -10 -6 -13 -16 -9 -9 3 -21 6 -27 7 -7 0 -2 4 11 10 36 14 16 29 -35 26 -36 -2 -48 -8 -59 -27 -13 -24 -13 -24 -14 -3 0 23 -13 37 -24 26z m154 -63 c0 -5 -10 -10 -22 -9 -22 0 -22 1 -3 9 11 5 21 9 23 9 1 1 2 -3 2 -9z"/>
 <path d="M1324 1296 c-3 -8 -4 -31 -2 -52 3 -34 6 -39 31 -42 16 -2 34 2 42 8 9 8 15 8 20 0 12 -20 25 2 25 44 0 48 -7 61 -26 45 -8 -7 -14 -7 -19 1 -9 15 -65 12 -71 -4z m60 -25 c9 -14 -4 -41 -20 -41 -8 0 -14 10 -14 25 0 25 23 35 34 16z"/>
 <path d="M1454 1295 c-3 -7 -4 -30 -2 -51 l3 -39 75 0 75 0 0 45 c0 25 -5 45 -10 45 -6 0 -9 -6 -7 -15 2 -9 -3 -6 -12 7 -13 17 -26 21 -66 21 -34 1 -53 -4 -56 -13z m84 -26 c-8 -4 -25 -5 -38 -2 -22 6 -22 7 -5 13 11 4 28 5 38 2 16 -4 17 -6 5 -13z m42 -28 c0 -14 -5 -18 -20 -14 -19 5 -20 6 -3 19 23 17 23 17 23 -5z"/>
 <path d="M214 1156 c-3 -8 -4 -31 -2 -52 3 -34 6 -39 31 -42 17 -2 29 2 33 12 5 13 10 12 35 -6 21 -16 32 -19 40 -11 6 6 26 9 45 6 18 -3 41 -2 51 1 17 7 17 8 1 20 -9 7 -18 28 -20 47 -4 45 -21 40 -29 -8 -4 -27 -7 -31 -8 -12 -2 47 -59 77 -89 47 -9 -9 -15 -9 -24 0 -16 16 -57 15 -64 -2z m144 -38 c-2 -13 -10 -23 -18 -23 -8 0 -16 10 -18 23 -3 17 2 22 18 22 16 0 21 -5 18 -22z"/>
 <path d="M456 1161 c-4 -5 -2 -12 3 -15 5 -4 12 -2 15 3 4 5 2 12 -3 15 -5 4 -12 2 -15 -3z"/>
 <path d="M527 1159 c-22 -13 -22 -62 1 -81 12 -11 42 -16 114 -16 93 -1 125 7 94 25 -8 4 -16 24 -18 43 -4 45 -22 45 -26 0 -4 -39 -15 -50 -45 -42 -20 5 -20 5 2 14 24 9 20 28 -7 29 -12 0 -10 3 6 10 13 5 21 13 18 18 -8 12 -117 12 -139 0z m34 -33 c-14 -17 2 -31 24 -22 9 3 15 0 15 -8 0 -11 -7 -12 -27 -7 -32 8 -46 51 -17 51 13 0 14 -3 5 -14z"/>
 <path d="M793 1158 c-16 -21 -33 -79 -26 -91 3 -5 14 0 24 14 15 19 19 21 19 7 0 -25 21 -33 35 -14 11 14 13 14 18 2 8 -20 49 -16 55 6 6 23 30 23 34 1 3 -15 18 -18 95 -20 92 -3 126 8 81 26 -16 7 -18 10 -6 10 27 1 31 20 7 29 l-23 9 25 6 c31 8 12 30 -22 25 -20 -2 -25 -10 -27 -40 -4 -48 -20 -49 -24 -3 -4 46 -22 46 -26 0 -4 -46 -20 -45 -24 2 -2 30 -7 37 -27 38 -16 1 -25 -4 -29 -17 -6 -25 -28 -23 -35 3 -7 26 -27 16 -28 -14 l0 -22 -9 21 c-12 31 -27 37 -39 17 -9 -17 -10 -17 -23 0 -12 15 -16 16 -25 5z"/>
 <path d="M1185 1160 c-4 -7 2 -14 14 -17 20 -5 20 -5 -2 -23 -36 -30 -13 -54 54 -58 69 -3 91 4 67 22 -9 7 -18 28 -20 47 -4 44 -22 44 -26 -1 -4 -39 -15 -50 -43 -43 -17 5 -17 6 4 23 18 15 20 22 11 37 -13 21 -49 29 -59 13z"/>
 <path d="M1317 1164 c-3 -4 5 -29 20 -57 24 -48 26 -50 39 -32 8 10 15 26 15 34 1 9 4 3 8 -14 4 -21 13 -31 29 -33 44 -6 56 25 42 108 0 3 -9 -5 -19 -17 -18 -21 -19 -22 -24 -3 -5 20 -26 21 -50 2 -11 -10 -17 -9 -27 3 -13 16 -23 19 -33 9z"/>
 <path d="M1513 1154 c-2 -6 -3 -29 -1 -50 2 -31 7 -38 26 -39 14 -1 31 8 42 22 l19 24 3 -23 c6 -41 23 -19 23 29 0 54 -19 68 -37 27 -13 -27 -13 -27 -18 -4 -6 26 -48 36 -57 14z"/>
 <path d="M214 1017 c-3 -8 -4 -32 -2 -53 l3 -39 63 0 c47 0 66 4 72 15 8 13 10 13 22 -2 10 -12 27 -16 68 -15 l55 2 3 38 c4 44 31 51 55 13 15 -22 15 -24 -4 -29 -12 -3 -18 -10 -15 -15 8 -13 197 -12 214 1 8 6 17 6 26 -3 17 -13 62 -10 59 5 -1 6 -12 12 -25 15 -28 7 -39 50 -12 50 13 0 14 -3 4 -15 -10 -12 -9 -16 3 -21 21 -8 37 3 37 26 0 13 5 17 20 13 19 -5 19 -6 -3 -23 -18 -15 -20 -22 -11 -37 14 -22 42 -29 57 -14 9 9 6 13 -10 17 l-22 6 22 18 c18 15 20 22 11 37 -16 26 -160 27 -179 0 -12 -17 -13 -17 -17 1 -5 18 -17 19 -164 19 -90 0 -164 -4 -171 -10 -9 -6 -18 -6 -27 2 -19 16 -31 -3 -17 -26 6 -12 5 -24 -2 -38 -11 -18 -12 -15 -17 25 -5 45 -22 58 -28 21 -2 -13 -9 -17 -23 -14 -10 3 -19 11 -19 19 0 19 -19 28 -26 11z m256 -21 c0 -10 -7 -12 -22 -8 -21 5 -21 6 -2 13 10 4 20 8 22 8 1 1 2 -5 2 -13z m140 -23 l0 -38 -18 30 c-19 30 -17 35 16 44 1 1 2 -16 2 -36z m70 23 c0 -10 -7 -12 -22 -8 -21 5 -21 6 -2 13 10 4 20 8 22 8 1 1 2 -5 2 -13z m-280 -23 c0 -21 -3 -24 -9 -14 -5 8 -7 20 -4 28 8 21 13 15 13 -14z m70 -17 c0 -10 -7 -12 -22 -8 -21 5 -21 6 -2 13 10 4 20 8 22 8 1 1 2 -5 2 -13z m210 0 c0 -10 -7 -12 -22 -8 -21 5 -21 6 -2 13 10 4 20 8 22 8 1 1 2 -5 2 -13z"/>
 <path d="M944 1015 c-8 -21 0 -90 11 -90 6 0 11 16 13 36 2 26 9 38 22 42 16 4 19 -2 22 -37 3 -34 7 -42 27 -44 35 -5 50 15 20 27 -16 7 -19 10 -7 10 27 1 31 20 7 29 -22 9 -22 9 -2 14 17 5 24 -2 39 -34 24 -53 32 -55 49 -16 14 32 14 33 15 6 0 -31 17 -47 26 -23 5 13 9 13 21 3 9 -7 50 -14 94 -15 75 -3 80 -1 96 23 15 24 15 29 2 53 -14 25 -18 26 -103 27 -67 0 -89 -3 -93 -14 -5 -11 -7 -11 -14 0 -11 17 -30 18 -50 1 -14 -11 -18 -11 -27 0 -16 19 -161 21 -168 2z m296 -42 c0 -34 -1 -35 -14 -18 -10 15 -11 23 -2 37 15 25 16 23 16 -19z m70 23 c0 -10 -7 -12 -22 -8 -21 5 -21 6 -2 13 10 4 20 8 22 8 1 1 2 -5 2 -13z m63 -8 c6 -19 -3 -38 -19 -38 -8 0 -14 10 -14 25 0 26 25 35 33 13z m-63 -32 c0 -10 -7 -12 -22 -8 -21 5 -21 6 -2 13 10 4 20 8 22 8 1 1 2 -5 2 -13z"/>
 <path d="M3154 226 c-3 -7 -4 -38 -2 -67 3 -54 3 -54 41 -60 l37 -6 0 74 0 73 -35 0 c-21 0 -38 -6 -41 -14z"/>
 </g>

<g fill="#272422" stroke="none">
 <path d="M772 2993 c3 -26 7 -28 53 -33 35 -4 42 -7 25 -10 -16 -3 -26 -13 -28 -27 -2 -14 -11 -23 -25 -25 -18 -2 -22 -9 -22 -43 0 -34 3 -40 23 -43 17 -3 22 -9 20 -25 -2 -13 -10 -22 -20 -22 -9 0 -20 -3 -24 -7 -4 -4 -17 -5 -29 -2 -24 6 -43 -10 -25 -21 6 -3 7 -14 2 -23 -7 -16 -8 -34 -2 -57 4 -15 8 -29 9 -38 0 -4 9 -3 20 2 11 7 17 19 16 34 l-3 24 40 -19 c31 -15 42 -17 54 -7 12 9 20 9 40 -2 20 -10 29 -11 45 0 14 8 24 9 33 2 14 -12 87 -18 103 -8 10 6 23 -13 23 -34 0 -5 -84 -10 -187 -11 -179 -3 -188 -4 -191 -23 -3 -11 -11 -24 -19 -28 -10 -6 -11 -12 -3 -21 7 -10 6 -17 -6 -27 -10 -8 -20 -13 -23 -11 -3 1 -6 -6 -6 -15 0 -10 7 -18 15 -19 8 -1 21 -2 28 -2 6 -1 12 -15 12 -31 0 -27 -3 -30 -37 -33 l-38 -3 0 -190 0 -190 45 -3 c24 -2 50 -8 57 -14 9 -7 14 -6 19 5 10 26 -5 37 -52 37 l-44 0 0 166 c0 164 0 165 22 162 23 -3 74 -79 80 -120 2 -15 11 -24 25 -26 14 -2 23 -11 25 -25 3 -20 10 -22 65 -25 l62 -3 3 -42 c4 -52 22 -51 26 0 2 21 10 42 18 46 8 4 14 15 14 23 0 8 11 19 25 24 23 9 25 15 27 82 2 69 2 68 7 -27 l6 -100 40 0 40 0 3 143 c2 138 3 142 22 132 17 -9 27 -4 66 35 46 44 84 59 84 31 0 -8 -10 -16 -22 -18 -19 -2 -23 -9 -23 -35 0 -37 18 -50 23 -16 2 14 11 23 25 25 14 2 23 11 25 25 2 14 11 23 25 25 14 2 23 11 25 26 2 12 10 22 17 22 7 0 15 -10 17 -22 3 -21 9 -23 75 -26 65 -3 72 -5 75 -25 2 -14 11 -23 25 -25 13 -2 23 -12 25 -23 5 -32 23 -22 23 14 0 25 -4 33 -22 35 -14 2 -23 11 -25 25 -3 20 -10 22 -75 25 -65 3 -72 5 -75 25 -3 19 -9 22 -45 22 -35 0 -42 4 -46 21 -3 18 0 21 20 19 13 -1 26 2 29 7 3 5 14 6 24 3 12 -4 27 2 39 14 17 17 21 18 32 5 6 -8 14 -12 16 -10 3 3 15 -7 27 -21 l23 -26 21 21 c12 12 28 19 37 16 9 -4 24 1 35 11 16 15 22 15 35 5 10 -8 44 -12 95 -12 73 1 80 -1 80 -19 0 -11 8 -22 18 -25 9 -3 29 -12 44 -20 23 -13 28 -13 35 0 4 8 26 16 48 18 32 2 41 7 43 25 2 14 11 23 25 25 20 3 22 10 25 75 3 65 5 72 25 75 20 3 22 9 22 68 0 60 -2 65 -22 68 -24 3 -32 35 -13 47 6 3 10 15 10 26 0 18 -8 19 -155 19 l-156 0 3 -62 c3 -57 5 -63 28 -69 23 -7 23 -7 -7 -8 -26 -1 -32 3 -35 22 -3 19 -9 22 -43 22 l-40 0 -3 -87 c-2 -76 -6 -89 -23 -98 -11 -6 -17 -15 -14 -21 4 -5 10 -7 15 -4 4 3 6 -4 3 -15 -3 -12 -11 -19 -17 -17 -6 3 -19 -3 -29 -12 -15 -13 -18 -13 -15 -1 2 8 10 20 18 27 13 10 13 12 -2 18 -27 11 -49 -1 -41 -22 6 -16 5 -16 -10 -5 -22 18 -37 7 -37 -28 0 -16 -3 -31 -7 -33 -5 -3 -8 16 -8 41 0 44 -1 46 -30 48 -16 0 -34 2 -40 4 -5 1 -12 2 -15 0 -19 -7 -59 -7 -55 0 9 15 -15 22 -30 10 -12 -10 -15 -9 -15 3 0 8 7 18 16 21 11 4 14 18 12 58 l-3 53 -132 2 c-76 1 -135 -2 -138 -7 -4 -6 -12 -10 -20 -10 -9 0 -15 15 -17 48 -3 41 -6 48 -28 52 -17 3 -10 6 25 10 46 5 50 7 53 33 l3 27 -196 0 -196 0 3 -27z m1130 -10 c3 -28 3 -28 83 -28 80 0 80 0 83 28 6 47 32 33 32 -17 0 -39 -3 -45 -22 -48 -18 -2 -23 -10 -23 -33 0 -27 3 -30 30 -30 23 0 31 5 33 23 6 40 32 26 32 -17 0 -33 -4 -40 -22 -43 -21 -3 -23 -9 -26 -75 -3 -65 -5 -72 -25 -75 -14 -2 -23 -11 -25 -25 -3 -21 -9 -23 -67 -23 -58 0 -64 2 -67 23 -2 14 -11 23 -25 25 -20 3 -22 10 -25 75 l-3 72 -30 0 -30 0 -3 -72 c-2 -56 -6 -73 -17 -73 -12 0 -15 21 -15 115 0 93 3 115 14 115 8 0 16 -10 18 -22 3 -21 9 -23 58 -23 54 0 55 0 55 30 0 23 -5 31 -22 33 -20 3 -23 9 -23 48 0 50 26 64 32 17z m-922 -28 c0 -8 -7 -15 -15 -15 -8 0 -15 7 -15 15 0 8 7 15 15 15 8 0 15 -7 15 -15z m52 -57 c2 -15 11 -24 25 -26 14 -2 23 -11 25 -25 2 -14 11 -23 26 -25 12 -2 22 -10 22 -17 0 -7 -10 -15 -22 -17 -18 -2 -23 -10 -23 -33 0 -23 5 -31 23 -33 12 -2 22 -10 22 -18 0 -11 -19 -14 -89 -14 -85 0 -90 1 -93 23 -2 14 -11 23 -25 25 -13 2 -23 10 -23 17 0 7 10 15 23 17 17 2 22 10 22 33 0 27 -3 30 -30 30 -23 0 -31 -5 -33 -22 -2 -13 -10 -23 -17 -23 -7 0 -15 10 -17 23 -2 14 -11 23 -25 25 -13 2 -23 10 -23 17 0 11 22 15 98 17 92 3 97 4 100 26 2 12 10 22 17 22 7 0 15 -10 17 -22z m158 -78 c0 -11 -4 -20 -10 -20 -5 0 -10 9 -10 20 0 11 5 20 10 20 6 0 10 -9 10 -20z m120 -16 c0 -27 5 -37 20 -41 11 -3 20 -9 20 -13 0 -4 -9 -10 -20 -13 -17 -4 -20 -14 -20 -60 0 -46 -3 -55 -20 -60 -15 -4 -20 -14 -20 -41 0 -33 -2 -36 -30 -36 -28 0 -30 3 -30 36 0 27 -5 37 -20 41 -25 7 -29 63 -4 63 9 0 18 9 21 19 4 14 15 21 42 23 l36 3 3 58 c3 62 22 80 22 21z m80 6 c0 -16 -4 -30 -10 -30 -5 0 -10 14 -10 30 0 17 5 30 10 30 6 0 10 -13 10 -30z m447 -52 c-3 -7 -5 -2 -5 12 0 14 2 19 5 13 2 -7 2 -19 0 -25z m-657 -3 c0 -8 -7 -15 -15 -15 -8 0 -15 7 -15 15 0 8 7 15 15 15 8 0 15 -7 15 -15z m180 -65 c0 -11 -4 -20 -10 -20 -5 0 -10 9 -10 20 0 11 5 20 10 20 6 0 10 -9 10 -20z m-210 -100 c0 -5 -4 -10 -10 -10 -5 0 -10 5 -10 10 0 6 5 10 10 10 6 0 10 -4 10 -10z m200 0 c0 -5 -4 -10 -10 -10 -5 0 -10 5 -10 10 0 6 5 10 10 10 6 0 10 -4 10 -10z m-277 -34 c4 -10 -2 -16 -16 -18 -20 -3 -22 -9 -22 -58 0 -54 0 -55 30 -55 30 0 30 0 31 60 3 84 2 83 19 51 22 -41 22 -346 0 -346 -11 0 -15 20 -17 98 l-3 97 -30 0 -30 0 -3 -72 c-3 -65 -5 -72 -25 -75 -14 -2 -23 -11 -25 -25 -3 -21 -9 -23 -67 -23 -58 0 -64 2 -67 23 -2 14 -11 23 -25 25 -20 3 -22 10 -25 75 -3 66 -5 72 -25 75 -19 3 -23 10 -23 42 0 32 4 39 23 42 17 2 22 10 22 33 0 23 -5 31 -22 33 -13 2 -23 10 -23 18 0 21 315 21 323 0z m307 -6 c0 -5 -8 -10 -17 -10 -15 0 -16 2 -3 10 19 12 20 12 20 0z"/>
 <path d="M984 2826 c-12 -31 0 -51 31 -51 27 0 30 3 30 30 0 25 -4 30 -28 33 -17 2 -29 -2 -33 -12z"/>
 <path d="M834 2326 c-12 -31 0 -51 31 -51 27 0 30 3 30 30 0 25 -4 30 -28 33 -17 2 -29 -2 -33 -12z"/>
 <path d="M934 2326 c-12 -31 0 -51 31 -51 27 0 30 3 30 30 0 25 -4 30 -28 33 -17 2 -29 -2 -33 -12z"/>
 <path d="M585 2531 c-6 -11 1 -15 18 -12 5 1 5 -4 1 -11 -13 -20 -11 -41 6 -62 8 -11 10 -16 3 -13 -6 4 -14 3 -18 -2 -10 -17 32 -33 55 -21 16 9 18 15 10 30 -6 11 -17 20 -25 20 -20 0 -29 19 -16 34 8 10 6 17 -8 30 -12 11 -21 14 -26 7z"/>
 <path d="M1913 2524 c-9 -23 11 -38 26 -20 13 16 7 36 -10 36 -5 0 -12 -7 -16 -16z"/>
 <path d="M1997 2494 c-3 -4 6 -24 20 -45 l26 -39 288 2 c182 2 290 7 292 13 1 6 -90 11 -255 13 -165 1 -258 6 -258 12 0 11 -44 32 -71 35 -9 1 -21 5 -26 8 -6 4 -13 4 -16 1z"/>
 <path d="M2705 2328 c-9 -24 -1 -128 10 -131 13 -3 19 123 6 136 -7 7 -12 5 -16 -5z"/>
 <path d="M1914 2095 c-3 -8 -4 -22 0 -30 7 -19 62 -20 73 -1 4 8 18 16 31 18 47 7 25 23 -36 26 -49 2 -64 0 -68 -13z"/>
 <path d="M2094 2096 c-3 -8 -3 -20 1 -26 8 -13 62 -13 70 0 3 6 17 10 30 10 13 0 27 -4 30 -10 8 -13 58 -13 71 0 5 5 78 11 162 12 91 2 153 7 155 13 1 6 -90 11 -256 13 -219 2 -258 0 -263 -12z"/>
 <path d="M846 2001 c-4 -5 -2 -12 3 -15 5 -4 12 -2 15 3 4 5 2 12 -3 15 -5 4 -12 2 -15 -3z"/>
 <path d="M3092 1545 c-35 -19 -81 -66 -97 -99 -18 -36 -19 -99 -2 -129 20 -36 70 -87 101 -102 37 -19 103 -19 122 -1 20 21 20 311 0 332 -18 17 -92 17 -124 -1z m101 -140 c31 -27 39 -88 12 -99 -8 -3 -15 -12 -15 -21 0 -10 -10 -15 -33 -15 -18 0 -38 -5 -45 -12 -9 -9 -19 -5 -42 17 -37 36 -66 87 -44 78 8 -3 17 3 20 13 23 65 95 84 147 39z"/>
 <path d="M2417 803 c-4 -3 -7 -186 -7 -405 l0 -398 290 0 c283 0 290 0 290 20 0 11 7 20 15 20 8 0 15 -9 15 -20 0 -11 7 -20 15 -20 8 0 15 7 15 15 0 12 14 15 70 15 56 0 70 -3 70 -15 0 -8 9 -15 20 -15 17 0 20 7 20 49 0 47 -2 50 -27 53 -27 3 -28 6 -31 61 l-3 57 31 0 c29 0 30 2 30 45 0 43 -1 45 -30 45 -23 0 -30 4 -30 20 0 16 7 20 30 20 l30 0 0 230 0 230 -403 0 c-222 0 -407 -3 -410 -7z m615 -545 c2 -28 8 -34 31 -36 19 -2 27 -9 27 -22 0 -13 -8 -20 -27 -22 -22 -2 -29 -9 -31 -30 -3 -26 -6 -28 -53 -28 l-49 0 0 85 0 85 49 0 c49 0 50 -1 53 -32z"/>
 </g>

<g fill="#d1d3e9" stroke="none">
 <path d="M0 1510 l0 -1510 1215 0 1216 0 -3 117 -3 118 -32 3 c-28 3 -32 7 -35 35 l-3 32 -190 0 -190 0 -3 -32 c-2 -25 -8 -33 -23 -33 -19 0 -19 18 -21 903 l-3 902 -75 3 c-53 2 -81 -1 -95 -12 -19 -14 -19 -15 6 -40 49 -49 51 -76 51 -565 -1 -249 -4 -474 -8 -500 -7 -51 -25 -91 -48 -111 -12 -9 -13 -16 -5 -26 17 -20 -46 -27 -197 -22 -73 3 -136 2 -141 -2 -4 -4 -116 -4 -248 0 -132 4 -244 4 -250 0 -5 -4 -118 -4 -250 0 -132 4 -244 4 -249 -1 -9 -8 -202 -2 -266 7 -29 5 -31 7 -17 15 16 9 15 13 -11 39 -50 49 -53 83 -54 584 -1 591 -1 588 134 616 31 6 132 11 225 12 207 0 203 -1 203 109 0 43 -5 81 -10 84 -6 4 -10 28 -10 53 2 72 -6 130 -19 146 -7 8 -11 32 -9 53 3 38 3 38 49 39 60 1 83 10 75 29 -3 9 4 25 16 37 l22 22 -22 14 c-26 17 -29 57 -4 67 16 6 16 7 0 19 -24 17 -23 24 5 28 14 2 23 11 25 24 2 12 12 24 23 27 15 4 18 11 13 37 -4 17 -1 49 6 71 10 29 10 45 3 62 -6 12 -14 30 -17 40 -5 16 -33 17 -391 17 l-385 0 0 -1510z m609 1263 c28 -17 30 -21 26 -67 -3 -56 -22 -76 -67 -76 -42 0 -67 31 -66 83 0 36 5 46 27 59 34 21 44 21 80 1z m-119 -232 c34 -27 34 -85 0 -112 -14 -10 -32 -19 -40 -19 -33 0 -64 37 -64 75 0 38 31 75 64 75 8 0 26 -9 40 -19z"/>
 <path d="M1157 2994 c-16 -21 -17 -28 -6 -41 11 -13 27 -14 85 -10 47 4 90 2 125 -7 30 -8 58 -11 64 -6 21 17 46 -16 47 -63 0 -36 -5 -53 -26 -78 -32 -38 -29 -53 9 -57 16 -2 35 -11 41 -20 12 -16 13 -16 19 0 6 15 21 17 91 17 46 0 88 2 94 6 5 3 10 17 10 30 0 13 5 27 10 30 6 3 10 22 10 41 0 19 11 57 25 84 17 34 23 58 19 75 l-6 25 -297 0 -296 -1 -18 -25z"/>
 <path d="M1546 2701 c-4 -5 -2 -12 3 -15 5 -4 12 -2 15 3 4 5 2 12 -3 15 -5 4 -12 2 -15 -3z"/>
 <path d="M1696 2661 c-4 -5 -2 -12 3 -15 5 -4 12 -2 15 3 4 5 2 12 -3 15 -5 4 -12 2 -15 -3z"/>
 <path d="M1752 2628 c-17 -11 -35 -30 -38 -43 -3 -13 -14 -31 -25 -41 -45 -40 -7 -74 83 -74 64 0 67 1 102 40 43 48 45 68 9 102 -38 34 -89 41 -131 16z"/>
 <path d="M611 2496 c-11 -13 -11 -17 2 -22 25 -9 62 0 62 16 0 21 -49 25 -64 6z"/>
 <path d="M1033 2179 c-19 -7 -23 -16 -23 -48 0 -23 8 -48 19 -62 18 -22 27 -24 110 -24 55 0 95 5 102 12 16 16 -82 113 -115 113 -14 0 -35 4 -48 9 -13 5 -33 5 -45 0z"/>
 <path d="M2995 1370 c-16 -26 50 -113 112 -147 48 -27 123 -8 123 31 0 17 -25 22 -35 6 -9 -15 -47 -12 -82 5 -35 17 -48 32 -73 77 -19 35 -35 45 -45 28z"/>
 </g>

<g fill="#e4e2df" stroke="none">
 <path d="M1957 2814 c-4 -4 -7 -15 -7 -25 0 -14 -10 -19 -47 -21 l-48 -3 0 -55 c0 -49 2 -55 22 -58 14 -2 23 -11 25 -25 3 -21 8 -22 83 -22 75 0 80 1 83 22 2 14 11 23 25 25 20 3 22 9 22 58 l0 55 -47 3 c-39 3 -47 6 -50 25 -2 15 -11 23 -28 25 -14 2 -29 0 -33 -4z"/>
 <path d="M1194 2686 c-13 -33 4 -47 48 -44 38 3 43 6 43 28 0 22 -5 25 -43 28 -31 2 -44 -1 -48 -12z"/>
 <path d="M1906 2485 l-36 -55 -302 0 -302 0 -28 -27 c-27 -26 -28 -29 -28 -138 l0 -111 33 -32 33 -32 690 0 690 0 32 33 32 33 0 109 c0 105 -1 110 -27 137 l-27 28 -308 0 -308 0 -36 55 c-21 31 -44 55 -54 55 -10 0 -33 -24 -54 -55z"/>
 <path d="M886 2055 l-36 -55 -342 0 -342 0 -28 -27 -28 -27 0 -531 0 -531 33 -32 33 -32 765 0 765 0 32 33 32 33 0 530 0 530 -28 27 -28 27 -342 0 -342 0 -36 55 c-21 31 -44 55 -54 55 -10 0 -33 -24 -54 -55z"/>
 <path d="M3094 1356 c-10 -26 4 -48 28 -44 17 2 23 10 23 28 0 18 -6 26 -23 28 -13 2 -25 -3 -28 -12z"/>
 </g>

<g fill="#380000" stroke="none">
 <path d="M2150 3006 c0 -7 -9 -16 -21 -19 -30 -8 -24 -71 9 -75 19 -3 22 -9 22 -52 0 -43 -3 -49 -22 -52 -21 -3 -23 -9 -26 -68 -1 -36 -7 -75 -13 -87 -16 -30 -5 -53 26 -53 24 0 25 -3 25 -54 0 -52 -1 -55 -27 -58 -24 -3 -28 -8 -28 -33 l0 -30 282 -5 c349 -6 328 4 328 -155 0 -101 -1 -106 -28 -132 l-27 -28 -173 -3 c-101 -2 -181 -8 -194 -14 -18 -9 -29 -8 -46 1 -13 7 -37 11 -53 9 -27 -3 -29 -6 -32 -55 -3 -48 -5 -52 -30 -55 -21 -2 -28 -9 -30 -30 -3 -21 -9 -27 -30 -30 -21 -2 -28 -9 -30 -30 -2 -20 -9 -28 -23 -28 -16 0 -19 7 -19 49 0 47 2 50 28 53 26 3 27 5 27 63 0 59 0 60 -30 63 -17 2 -33 -2 -40 -11 -6 -8 -22 -17 -35 -19 l-25 -3 0 -635 0 -635 658 -3 657 -2 0 70 0 71 -67 -3 c-66 -3 -68 -4 -71 -31 -3 -25 -6 -27 -53 -27 -42 0 -49 3 -49 19 0 14 8 21 28 23 21 2 28 9 30 30 3 21 9 27 30 30 22 2 28 9 30 35 l3 33 60 0 59 0 0 100 c0 91 -8 118 -25 90 -9 -15 -68 -12 -101 5 -55 27 -104 95 -104 145 0 50 49 118 104 145 33 17 92 20 101 5 3 -5 10 -10 16 -10 5 0 9 288 9 750 l0 750 -540 0 c-453 0 -540 -2 -540 -14z m-60 -1211 c0 -48 -2 -55 -20 -55 -18 0 -20 7 -20 55 0 48 2 55 20 55 18 0 20 -7 20 -55z m-58 -102 c2 -22 9 -29 30 -31 21 -3 27 -9 30 -30 2 -21 9 -28 31 -30 26 -3 27 -6 27 -57 0 -51 -1 -54 -27 -57 -22 -2 -29 -9 -31 -30 -3 -21 -9 -27 -30 -30 -21 -2 -28 -9 -30 -30 -2 -20 -9 -28 -23 -28 -16 0 -19 7 -19 49 0 47 2 50 28 53 27 3 27 4 27 73 0 69 0 70 -27 73 -26 3 -28 6 -28 53 0 42 3 49 19 49 14 0 21 -8 23 -27z m58 -398 c0 -48 -2 -55 -20 -55 -18 0 -20 7 -20 55 0 48 2 55 20 55 18 0 20 -7 20 -55z m-58 -102 c2 -22 9 -29 30 -31 21 -3 27 -9 30 -30 2 -21 9 -28 31 -30 19 -2 27 -9 27 -22 0 -13 -8 -20 -27 -22 -25 -3 -28 -7 -28 -43 0 -39 1 -40 35 -40 32 0 35 3 38 33 3 26 8 32 27 32 19 0 24 -6 27 -32 2 -27 8 -34 30 -36 21 -3 27 -9 30 -30 2 -21 9 -28 31 -30 19 -2 27 -9 27 -23 0 -18 -8 -19 -114 -19 l-115 0 -3 28 c-2 21 -9 28 -30 30 -21 3 -27 9 -30 30 -2 21 -9 28 -30 30 l-28 3 0 115 c0 106 1 114 19 114 14 0 21 -8 23 -27z m690 -185 c2 -27 8 -34 30 -36 21 -3 27 -9 30 -30 2 -21 9 -28 31 -30 19 -2 27 -9 27 -23 0 -16 -7 -19 -49 -19 -47 0 -50 2 -53 28 -3 27 -4 27 -73 27 -69 0 -70 0 -73 -27 -3 -26 -6 -28 -53 -28 -42 0 -49 3 -49 19 0 14 8 21 28 23 21 2 28 9 30 30 3 21 9 27 30 30 22 2 28 9 30 36 3 32 4 32 57 32 53 0 54 0 57 -32z m-252 -58 c0 -18 -7 -20 -55 -20 -48 0 -55 2 -55 20 0 18 7 20 55 20 48 0 55 -2 55 -20z m500 0 c0 -18 -7 -20 -55 -20 -48 0 -55 2 -55 20 0 18 7 20 55 20 48 0 55 -2 55 -20z m-940 -60 c0 -13 -7 -20 -20 -20 -13 0 -20 7 -20 20 0 13 7 20 20 20 13 0 20 -7 20 -20z"/>
 <path d="M2064 2895 c-4 -9 -2 -21 4 -27 15 -15 44 -1 40 19 -4 23 -36 29 -44 8z"/>
 <path d="M1914 2596 c-3 -8 -4 -27 -2 -43 2 -21 9 -29 28 -31 14 -2 37 -15 52 -29 43 -41 60 -26 56 49 -3 61 -4 63 -31 66 -16 2 -35 -2 -43 -9 -11 -9 -18 -9 -26 -1 -16 16 -27 15 -34 -2z"/>
 <path d="M1087 2583 c-15 -15 -5 -43 22 -63 38 -26 47 -11 20 34 -21 36 -30 42 -42 29z"/>
 <path d="M1396 2571 c-4 -5 -2 -12 3 -15 5 -4 12 -2 15 3 4 5 2 12 -3 15 -5 4 -12 2 -15 -3z"/>
 <path d="M1344 2445 c-9 -22 9 -37 37 -33 16 2 24 10 24 23 0 26 -52 35 -61 10z"/>
 <path d="M1544 2445 c-10 -26 10 -36 62 -33 41 3 49 6 49 23 0 17 -8 20 -53 23 -41 2 -54 0 -58 -13z"/>
 <path d="M685 2371 c-7 -12 12 -24 25 -16 11 7 4 25 -10 25 -5 0 -11 -4 -15 -9z"/>
 </g>

</svg>