<!DOCTYPE svg PUBLIC "-//W3C//DTD SVG 20010904//EN" "http://www.w3.org/TR/2001/REC-SVG-20010904/DTD/svg10.dtd">
<svg version="1.0" xmlns="http://www.w3.org/2000/svg" width="323px" height="302px" viewBox="0 0 3230 3020" preserveAspectRatio="xMidYMid meet"><g fill="#545353" stroke="none">
 <path d="M890 2995 c0 -9 9 -15 25 -15 16 0 25 6 25 15 0 9 -9 15 -25 15 -16 0 -25 -6 -25 -15z"/>
 <path d="M1841 2968 c-1 -10 4 -18 9 -18 6 0 10 -9 10 -20 0 -19 7 -20 125 -20 l125 0 0 25 0 25 -129 0 c-94 0 -131 3 -134 13 -3 7 -6 5 -6 -5z"/>
 <path d="M1185 2905 c-22 -8 -50 -15 -62 -15 -18 0 -23 -6 -23 -25 0 -20 5 -25 24 -25 14 0 27 4 30 8 3 5 42 8 87 8 l82 -1 13 -35 12 -35 1 33 c1 25 6 35 21 39 29 8 25 30 -10 48 -36 19 -122 19 -175 0z"/>
 <path d="M1410 2825 c0 -31 -3 -35 -25 -35 -14 0 -25 -4 -25 -10 0 -5 5 -10 10 -10 6 0 10 -13 10 -30 0 -29 13 -40 25 -20 10 16 75 12 81 -5 8 -19 28 -19 44 1 20 23 64 14 68 -13 2 -13 7 -23 10 -23 4 0 12 10 17 23 6 12 20 23 31 25 17 2 23 -3 27 -25 7 -37 -18 -67 -44 -53 -24 13 -26 13 -32 -9 -8 -32 -68 -36 -204 -15 -31 5 -33 3 -33 -23 0 -48 -39 -74 -112 -76 -58 -2 -63 0 -66 21 -3 20 1 22 42 22 39 0 46 3 46 20 0 16 -7 20 -32 20 -50 0 -76 -10 -81 -31 -3 -10 -12 -19 -21 -19 -22 0 -20 -9 6 -31 19 -17 20 -22 8 -44 -15 -29 -14 -32 20 -38 14 -2 19 -2 12 0 -23 8 -6 28 22 26 20 -1 26 2 23 12 -7 16 13 25 58 25 28 0 32 -3 28 -20 -3 -11 -9 -20 -14 -20 -5 0 -9 -7 -9 -15 0 -8 -7 -15 -15 -15 -8 0 -15 -4 -15 -10 0 -5 18 -10 39 -10 33 0 40 4 43 23 3 19 9 22 48 22 39 0 45 -3 48 -22 2 -17 10 -23 27 -23 17 0 25 6 27 23 2 16 11 23 33 25 143 12 119 28 -37 24 -108 -3 -131 -1 -120 9 6 7 12 32 12 55 0 43 15 67 26 41 3 -8 14 -17 25 -20 11 -3 19 -14 19 -26 0 -19 6 -21 65 -21 69 0 79 8 50 46 -8 10 -15 22 -15 26 0 4 32 10 70 14 62 6 70 9 70 27 0 16 3 18 12 9 7 -7 20 -12 31 -12 15 0 13 4 -10 24 -25 22 -27 27 -15 46 16 26 8 38 -13 20 -9 -8 -15 -8 -15 -2 0 14 -160 15 -177 0 -9 -7 -13 -7 -13 1 0 6 -18 11 -45 11 -54 0 -67 18 -36 49 25 25 28 71 6 71 -10 0 -15 -11 -15 -35z"/>
 <path d="M1810 2835 c0 -23 3 -25 50 -25 47 0 50 2 50 25 0 23 -3 25 -50 25 -47 0 -50 -2 -50 -25z"/>
 <path d="M2060 2835 c0 -23 3 -25 50 -25 47 0 50 2 50 25 0 23 -3 25 -50 25 -47 0 -50 -2 -50 -25z"/>
 <path d="M1160 2800 c0 -5 5 -10 10 -10 6 0 10 5 10 10 0 6 -4 10 -10 10 -5 0 -10 -4 -10 -10z"/>
 <path d="M1222 2787 c-12 -13 -22 -31 -22 -41 0 -10 -9 -20 -20 -23 -15 -4 -20 -14 -20 -39 0 -27 4 -34 20 -34 12 0 20 7 20 16 0 9 9 18 20 21 11 3 20 12 20 20 0 8 9 17 20 20 28 7 30 83 2 83 -10 0 -28 -10 -40 -23z"/>
 <path d="M780 2770 c0 -5 9 -10 20 -10 11 0 20 5 20 10 0 6 -9 10 -20 10 -11 0 -20 -4 -20 -10z"/>
 <path d="M514 2756 c-14 -11 -19 -26 -19 -61 0 -55 20 -75 75 -75 55 0 75 20 75 75 0 55 -20 75 -75 75 -20 0 -45 -6 -56 -14z m86 -45 c0 -11 5 -23 11 -26 6 -4 0 -13 -15 -20 -22 -12 -30 -12 -52 0 -15 7 -21 16 -15 20 6 3 11 15 11 26 0 14 7 19 30 19 23 0 30 -5 30 -19z"/>
 <path d="M1101 2754 c0 -11 3 -14 6 -6 3 7 2 16 -1 19 -3 4 -6 -2 -5 -13z"/>
 <path d="M690 2730 c0 -11 5 -20 12 -20 9 0 9 -3 0 -12 -27 -27 -7 -78 31 -78 15 0 14 3 -8 23 l-26 22 20 22 c25 26 26 33 6 33 -26 0 -16 19 13 23 22 3 20 4 -10 6 -32 1 -38 -2 -38 -19z"/>
 <path d="M772 2720 c0 -14 2 -19 5 -12 2 6 2 18 0 25 -3 6 -5 1 -5 -13z"/>
 <path d="M1820 2701 c0 -43 25 -47 28 -5 2 25 -1 34 -13 34 -10 0 -15 -10 -15 -29z"/>
 <path d="M1347 2703 c-4 -3 -6 -25 -6 -47 1 -23 4 -31 6 -18 2 12 9 22 14 22 5 0 9 11 9 25 0 24 -10 32 -23 18z"/>
 <path d="M1540 2701 c0 -5 7 -11 15 -15 9 -3 15 0 15 9 0 8 -7 15 -15 15 -8 0 -15 -4 -15 -9z"/>
 <path d="M1420 2690 c0 -5 5 -10 10 -10 6 0 10 5 10 10 0 6 -4 10 -10 10 -5 0 -10 -4 -10 -10z"/>
 <path d="M900 2660 c0 -5 9 -10 20 -10 11 0 20 5 20 10 0 6 -9 10 -20 10 -11 0 -20 -4 -20 -10z"/>
 <path d="M970 2659 c0 -7 14 -10 35 -7 19 2 35 0 35 -4 0 -13 20 -9 36 7 14 13 9 15 -45 15 -38 0 -61 -4 -61 -11z"/>
 <path d="M1106 2654 c-3 -9 -6 -27 -6 -42 0 -25 1 -25 15 -6 16 22 19 50 6 58 -5 3 -12 -1 -15 -10z"/>
 <path d="M818 2653 c6 -2 18 -2 25 0 6 3 1 5 -13 5 -14 0 -19 -2 -12 -5z"/>
 <path d="M1838 2643 c7 -3 16 -2 19 1 4 3 -2 6 -13 5 -11 0 -14 -3 -6 -6z"/>
 <path d="M890 2605 c0 -20 -5 -25 -24 -25 -18 0 -25 -6 -28 -22 -2 -15 -10 -23 -23 -23 -13 0 -21 8 -23 23 -3 16 -10 22 -28 22 -22 0 -24 -4 -24 -45 0 -46 13 -58 38 -33 9 9 12 8 12 -4 0 -10 10 -18 23 -20 36 -5 30 -42 -8 -46 -16 -1 -45 -5 -62 -8 l-33 -5 0 -74 0 -75 40 0 c39 0 40 -1 40 -34 0 -22 6 -36 16 -40 22 -8 22 -8 30 42 6 42 6 42 -23 42 -25 0 -31 5 -36 28 -3 15 -15 37 -27 50 l-21 22 55 0 c49 0 55 2 58 23 2 14 11 23 25 25 14 2 23 11 25 25 2 14 10 22 23 22 13 0 21 -8 23 -22 2 -14 11 -23 25 -25 14 -2 23 -11 25 -25 3 -20 9 -23 50 -23 l47 0 0 100 c0 96 -1 100 -22 100 -15 0 -23 -7 -25 -22 -2 -15 -10 -23 -23 -23 -17 0 -20 8 -23 48 l-3 47 -50 0 c-46 0 -49 -2 -49 -25z m176 -131 c-3 -9 -6 -22 -6 -30 0 -11 -9 -14 -32 -12 -42 4 -47 38 -8 49 42 12 53 10 46 -7z"/>
 <path d="M2053 2603 c-9 -3 -13 -26 -13 -64 0 -59 0 -59 30 -59 l30 0 0 65 c0 67 -7 75 -47 58z"/>
 <path d="M394 2546 c-14 -11 -19 -26 -19 -61 0 -55 20 -75 75 -75 55 0 75 20 75 75 0 55 -20 75 -75 75 -20 0 -45 -6 -56 -14z m86 -45 c0 -11 5 -23 11 -26 6 -4 0 -13 -15 -20 -22 -12 -30 -12 -52 0 -15 7 -21 16 -15 20 6 3 11 15 11 26 0 14 7 19 30 19 23 0 30 -5 30 -19z"/>
 <path d="M623 2533 c30 -5 36 -19 10 -26 -12 -3 -8 -5 9 -6 14 0 29 -7 31 -13 4 -9 6 -9 6 1 1 8 8 22 16 31 15 16 12 17 -42 17 -32 0 -46 -2 -30 -4z"/>
 <path d="M570 2487 c0 -50 22 -77 61 -76 22 0 22 1 4 8 -37 16 -58 48 -52 81 4 17 2 30 -3 30 -6 0 -10 -20 -10 -43z"/>
 <path d="M600 2480 c0 -7 3 -10 7 -7 3 4 3 10 0 14 -4 3 -7 0 -7 -7z"/>
 <path d="M1861 2465 c-47 -33 -107 -41 -155 -21 -48 20 -46 20 -46 -4 0 -19 7 -20 109 -20 110 0 110 0 130 29 12 16 21 32 21 35 0 13 -26 4 -59 -19z"/>
 <path d="M1090 2265 c0 -84 0 -85 25 -85 25 0 25 1 25 85 0 84 0 85 -25 85 -25 0 -25 -1 -25 -85z"/>
 <path d="M1202 2325 c-6 -14 -18 -25 -27 -25 -11 0 -15 -10 -15 -35 0 -24 5 -35 15 -35 8 0 21 -12 29 -27 14 -27 15 -24 16 60 0 48 -2 87 -3 87 -2 0 -9 -11 -15 -25z"/>
 <path d="M1320 2311 c0 -6 5 -13 11 -17 8 -4 8 -9 0 -17 -16 -16 -14 -40 4 -33 8 3 19 -2 24 -12 10 -16 10 -16 11 1 0 26 -27 87 -39 87 -6 0 -11 -4 -11 -9z"/>
 <path d="M1456 2293 c4 -16 10 -30 14 -33 3 -3 10 -14 15 -25 7 -17 9 -18 12 -3 2 9 -3 32 -11 52 -18 43 -40 49 -30 9z"/>
 <path d="M1050 2290 c0 -5 -13 -10 -30 -10 -25 0 -30 -4 -30 -25 0 -16 6 -25 16 -25 14 0 14 -3 4 -15 -7 -9 -10 -18 -7 -21 9 -9 27 5 27 22 0 8 7 14 15 14 10 0 15 11 15 35 0 19 -2 35 -5 35 -3 0 -5 -4 -5 -10z"/>
 <path d="M1380 2275 c0 -9 7 -18 16 -22 8 -3 13 -11 10 -19 -3 -9 4 -12 25 -12 17 1 29 6 29 15 0 7 -4 13 -10 13 -5 0 -10 9 -10 20 0 16 -7 20 -30 20 -20 0 -30 -5 -30 -15z m37 -12 c-4 -3 -7 0 -7 7 0 7 3 10 7 7 3 -4 3 -10 0 -14z"/>
 <path d="M1553 2245 c0 -27 2 -38 4 -22 2 15 2 37 0 50 -2 12 -4 0 -4 -28z"/>
 <path d="M1607 2256 c-4 -24 -2 -45 5 -53 14 -17 42 -18 31 0 -4 6 -8 14 -9 17 0 3 -3 12 -7 20 -3 8 -7 24 -9 35 -3 12 -7 5 -11 -19z"/>
 <path d="M1650 2255 c0 -29 4 -35 21 -35 12 0 28 8 35 18 13 16 13 16 14 0 0 -12 8 -18 24 -18 13 0 27 8 32 18 6 13 9 10 14 -18 6 -30 7 -28 8 20 0 30 -2 47 -5 38 -3 -11 -14 -18 -29 -18 -28 0 -32 16 -6 23 10 3 6 5 -10 6 -19 1 -28 -4 -28 -14 0 -9 -9 -15 -25 -15 -29 0 -34 16 -7 23 10 3 6 5 -10 6 -25 1 -28 -2 -28 -34z"/>
 <path d="M1859 2281 c9 -6 10 -11 2 -15 -16 -10 -13 -46 4 -46 9 0 12 6 9 15 -4 8 -1 15 5 15 6 0 11 9 11 20 0 14 -7 20 -22 20 -17 0 -19 -3 -9 -9z"/>
 <path d="M1912 2258 c2 -28 7 -33 28 -33 21 0 26 5 28 33 3 30 1 32 -28 32 -29 0 -31 -2 -28 -32z m38 -4 c0 -16 -16 -19 -25 -4 -8 13 4 32 16 25 5 -4 9 -13 9 -21z"/>
 <path d="M2017 2256 c-4 -24 -2 -45 5 -53 14 -17 42 -18 31 0 -4 6 -8 14 -9 17 0 3 -3 12 -7 20 -3 8 -7 24 -9 35 -3 12 -7 5 -11 -19z"/>
 <path d="M2050 2275 c0 -9 7 -18 16 -22 8 -3 13 -12 10 -19 -7 -17 16 -18 32 -2 9 9 12 9 12 0 0 -14 46 -16 55 -2 3 5 2 22 -2 37 -7 27 -7 27 -12 5 -8 -30 -25 -33 -29 -4 -3 18 -10 22 -43 22 -28 0 -39 -4 -39 -15z m37 -12 c-4 -3 -7 0 -7 7 0 7 3 10 7 7 3 -4 3 -10 0 -14z"/>
 <path d="M2202 2258 c-12 -34 -7 -52 8 -28 9 14 14 60 7 60 -1 0 -8 -14 -15 -32z"/>
 <path d="M2242 2258 c2 -28 7 -33 28 -33 21 0 26 5 28 33 3 30 1 32 -28 32 -29 0 -31 -2 -28 -32z m38 -4 c0 -16 -16 -19 -25 -4 -8 13 4 32 16 25 5 -4 9 -13 9 -21z"/>
 <path d="M2321 2253 c1 -37 2 -37 8 -8 7 35 25 36 29 2 2 -19 9 -24 32 -25 21 0 27 3 23 14 -3 8 0 14 6 14 6 0 11 9 11 20 0 18 -7 20 -55 20 l-55 0 1 -37z m84 17 c-3 -5 -10 -10 -16 -10 -5 0 -9 5 -9 10 0 6 7 10 16 10 8 0 12 -4 9 -10z"/>
 <path d="M2494 2276 c-19 -15 -19 -15 1 -30 11 -8 27 -15 35 -15 12 0 12 2 -2 13 -16 12 -16 14 0 29 14 15 14 17 1 17 -8 0 -24 -6 -35 -14z"/>
 <path d="M2573 2283 c19 -5 22 -18 7 -28 -8 -5 -8 -11 0 -20 8 -10 7 -16 -7 -24 -16 -9 -15 -10 10 -11 25 0 27 3 27 45 0 43 -1 45 -27 44 -17 -1 -21 -3 -10 -6z"/>
 <path d="M755 2230 c-3 -5 -15 -10 -26 -10 -14 0 -19 -7 -19 -25 0 -20 5 -25 25 -25 18 0 25 5 25 19 0 11 5 23 10 26 13 8 13 25 1 25 -6 0 -13 -4 -16 -10z"/>
 <path d="M875 2160 c3 -5 13 -10 21 -10 8 0 14 5 14 10 0 6 -9 10 -21 10 -11 0 -17 -4 -14 -10z"/>
 <path d="M971 2148 c-1 -27 -3 -28 -56 -28 -52 0 -55 -1 -55 -25 0 -27 -52 -68 -80 -62 -23 4 -18 32 8 35 16 3 22 10 22 28 0 22 -4 24 -44 24 -25 0 -48 5 -51 10 -3 6 -17 10 -31 10 -21 0 -24 -4 -24 -39 0 -33 4 -40 23 -43 14 -2 23 -11 25 -25 3 -21 0 -23 -45 -22 -107 2 -455 -9 -460 -15 -4 -3 143 -6 325 -6 l332 0 36 55 c37 55 74 74 74 37 0 -9 11 -34 25 -55 l26 -37 332 0 c191 0 326 4 318 9 -7 5 -108 7 -225 5 -116 -1 -249 0 -296 3 -80 6 -86 8 -124 43 -30 28 -41 48 -46 81 -5 30 -8 35 -9 17z"/>
 <path d="M1304 2093 c10 -11 616 -11 616 -1 0 4 -140 8 -312 8 -171 0 -308 -3 -304 -7z"/>
 <path d="M2038 2043 c-3 -55 -4 -58 -30 -61 -24 -3 -28 -8 -28 -33 0 -25 4 -29 29 -29 25 0 30 4 33 28 2 21 9 28 31 30 26 3 27 5 27 63 0 59 0 59 -30 59 -28 0 -29 -1 -32 -57z"/>
 <path d="M1762 1415 c1 -396 3 -482 10 -385 5 69 8 186 7 260 -3 185 -3 293 1 445 1 72 -2 143 -8 160 -7 21 -10 -116 -10 -480z"/>
 <path d="M110 1861 c0 -28 -4 -53 -10 -56 -11 -7 -14 -68 -3 -79 11 -11 13 -415 2 -422 -13 -7 -11 -71 2 -79 7 -5 8 -44 4 -118 -3 -62 -2 -132 3 -157 7 -31 10 114 11 458 1 276 -1 502 -4 502 -3 0 -5 -22 -5 -49z"/>
 <path d="M220 1815 c0 -43 1 -45 28 -44 26 0 27 0 4 10 -25 10 -21 29 6 30 12 0 10 3 -6 10 -13 5 -20 13 -17 19 12 20 44 9 69 -22 l26 -33 -23 -7 c-18 -5 -17 -6 10 -7 26 -1 30 2 26 19 -3 11 -9 23 -14 26 -15 9 -10 32 9 37 9 3 -13 5 -50 6 l-68 1 0 -45z"/>
 <path d="M432 1825 c0 -16 2 -22 5 -12 2 9 2 23 0 30 -3 6 -5 -1 -5 -18z"/>
 <path d="M224 1706 c-3 -8 -4 -27 -2 -43 3 -24 8 -28 38 -30 28 -2 31 -1 15 6 -12 5 -27 16 -34 25 -12 15 -12 19 1 33 20 19 45 8 27 -13 -9 -11 -8 -14 5 -14 10 0 16 9 16 25 0 21 -5 25 -30 25 -17 0 -33 -6 -36 -14z"/>
 <path d="M310 1675 l0 -45 68 0 c50 1 63 3 50 11 -12 6 -19 23 -19 47 l-2 37 -6 -40 c-5 -35 -10 -40 -35 -43 -39 -5 -57 14 -25 27 16 7 19 10 7 10 -27 1 -31 20 -6 30 23 10 22 10 -4 10 -27 1 -28 -1 -28 -44z"/>
 <path d="M480 1712 c0 -4 4 -12 9 -17 5 -6 12 -20 15 -32 5 -16 2 -23 -11 -26 -10 -2 10 -4 44 -5 57 0 62 1 68 25 9 38 -3 63 -31 63 -20 0 -24 -5 -24 -31 0 -34 -16 -31 -30 7 -9 22 -40 35 -40 16z m110 -32 c0 -25 -18 -36 -26 -16 -8 21 3 49 16 41 5 -3 10 -15 10 -25z"/>
 <path d="M668 1709 c24 -9 22 -29 -4 -29 -8 0 -14 -10 -14 -25 0 -24 2 -25 68 -25 50 1 63 3 50 11 -12 6 -19 23 -19 47 l-2 37 -6 -40 c-5 -36 -9 -40 -38 -43 -34 -3 -46 14 -18 24 8 4 15 17 15 30 0 20 -5 24 -27 23 -27 0 -28 0 -5 -10z"/>
 <path d="M780 1715 c0 -3 9 -24 20 -46 20 -39 40 -44 40 -10 0 9 7 26 15 37 13 18 14 16 15 -23 0 -41 2 -43 29 -43 28 0 29 2 28 45 -2 48 -11 59 -20 24 -6 -23 -27 -17 -27 7 0 20 -36 18 -45 -3 -6 -17 -7 -17 -19 0 -12 16 -36 24 -36 12z m124 -66 c-3 -5 -10 -7 -15 -3 -5 3 -7 10 -3 15 3 5 10 7 15 3 5 -3 7 -10 3 -15z"/>
 <path d="M968 1709 c24 -9 22 -29 -4 -29 -8 0 -14 -10 -14 -25 0 -21 5 -25 28 -24 16 1 20 3 10 6 -22 5 -23 22 -3 29 8 4 15 17 15 30 0 20 -5 24 -27 23 -27 0 -28 0 -5 -10z"/>
 <path d="M1051 1678 c-1 -46 0 -48 27 -47 26 0 26 1 5 9 -13 5 -23 12 -23 15 0 3 10 10 23 15 17 7 18 9 4 9 -10 1 -22 11 -27 24 -7 18 -9 13 -9 -25z"/>
 <path d="M1120 1675 c0 -39 3 -45 25 -51 18 -4 32 -1 45 11 12 11 20 13 20 7 0 -7 13 -12 29 -12 28 0 29 2 28 45 -1 25 -5 45 -9 45 -5 0 -8 -6 -8 -14 0 -26 -20 -28 -29 -4 -6 13 -10 16 -10 9 -1 -12 -4 -12 -13 -3 -7 7 -27 12 -45 12 -32 0 -33 -1 -33 -45z m59 21 c9 -11 9 -19 -1 -35 -7 -12 -15 -21 -18 -21 -3 0 -11 9 -18 21 -10 16 -10 24 -1 35 6 8 15 14 19 14 4 0 13 -6 19 -14z m65 -47 c-3 -5 -10 -7 -15 -3 -5 3 -7 10 -3 15 3 5 10 7 15 3 5 -3 7 -10 3 -15z"/>
 <path d="M1321 1678 l-1 -48 59 0 59 0 0 45 c-1 25 -5 45 -10 45 -4 0 -8 -6 -8 -14 0 -26 -20 -28 -29 -4 l-10 23 0 -22 c-1 -16 -7 -23 -21 -23 -12 0 -24 10 -30 23 -7 18 -9 13 -9 -25z m59 -23 c0 -16 -35 -21 -44 -6 -8 12 4 21 26 21 10 0 18 -7 18 -15z m34 -6 c-3 -5 -10 -7 -15 -3 -5 3 -7 10 -3 15 3 5 10 7 15 3 5 -3 7 -10 3 -15z"/>
 <path d="M1460 1675 c0 -43 1 -45 28 -44 26 0 26 1 5 9 -13 5 -23 12 -23 15 0 3 10 10 23 15 16 6 17 9 5 9 -27 1 -31 20 -6 30 23 10 22 10 -4 10 -27 1 -28 -1 -28 -44z"/>
 <path d="M1530 1675 c0 -43 1 -45 28 -44 26 0 26 1 5 9 -13 5 -23 12 -23 15 0 3 10 10 23 15 16 6 17 9 5 9 -27 1 -31 20 -6 30 23 10 22 10 -4 10 -27 1 -28 -1 -28 -44z"/>
 <path d="M1980 1641 c0 -25 4 -30 28 -33 26 -3 27 -5 27 -63 0 -58 -1 -60 -27 -63 -24 -3 -28 -8 -28 -33 0 -25 4 -29 29 -29 25 0 30 4 33 28 2 21 9 28 31 30 26 3 27 5 27 67 0 62 -1 64 -27 67 -22 2 -29 9 -31 31 -3 23 -8 27 -33 27 -25 0 -29 -4 -29 -29z"/>
 <path d="M1036 1568 c24 -77 31 -84 71 -80 34 4 35 6 15 13 -25 10 -21 29 6 30 12 0 10 3 -6 10 -13 5 -20 13 -17 19 12 20 44 9 69 -22 l26 -33 -23 -7 c-12 -3 6 -6 43 -6 50 -1 60 1 42 9 -25 10 -21 29 6 30 12 0 11 3 -5 9 -13 5 -23 16 -23 25 0 12 -14 15 -75 15 l-75 0 0 -41 c0 -48 -12 -45 -30 10 -7 23 -17 41 -22 41 -5 0 -6 -10 -2 -22z m194 -33 c0 -37 -14 -48 -23 -17 -2 9 -8 25 -12 35 -5 13 -2 17 14 17 17 0 21 -6 21 -35z"/>
 <path d="M241 1548 c0 -24 -7 -41 -18 -47 -14 -8 -8 -10 30 -11 l47 0 -2 48 -1 47 -4 -43 c-3 -34 -8 -43 -21 -40 -11 2 -19 17 -23 43 l-6 40 -2 -37z"/>
 <path d="M321 1538 c0 -27 4 -48 9 -48 6 0 10 6 10 13 0 7 9 18 20 25 18 11 20 10 20 -13 0 -27 26 -35 48 -13 9 9 15 9 24 0 23 -23 48 -14 48 17 0 62 43 59 53 -4 3 -22 4 -17 6 18 l1 47 -35 0 c-34 0 -35 -1 -35 -42 l-1 -43 -24 30 c-14 17 -25 37 -25 45 0 8 -10 -5 -22 -30 l-22 -45 -4 43 c-4 49 -13 53 -38 15 l-18 -28 -7 30 c-6 26 -7 23 -8 -17z"/>
 <path d="M581 1538 c-1 -46 0 -48 28 -48 28 0 29 2 29 45 -1 25 -5 45 -10 45 -4 0 -8 -6 -8 -14 0 -26 -20 -28 -29 -4 -8 19 -10 15 -10 -24z m33 -29 c-3 -5 -10 -7 -15 -3 -5 3 -7 10 -3 15 3 5 10 7 15 3 5 -3 7 -10 3 -15z"/>
 <path d="M661 1533 l2 -48 6 40 c5 34 10 41 36 46 29 6 29 7 -7 8 l-38 1 1 -47z"/>
 <path d="M757 1573 c-13 -12 -7 -71 8 -83 12 -10 21 -10 38 -2 22 11 22 11 1 11 -48 2 -56 53 -12 71 23 9 23 9 -3 9 -14 1 -29 -2 -32 -6z"/>
 <path d="M830 1536 c0 -40 3 -46 25 -52 37 -9 57 12 53 55 -3 34 -5 36 -40 39 l-38 3 0 -45z m59 20 c9 -11 9 -19 -1 -35 -7 -12 -15 -21 -18 -21 -3 0 -11 9 -18 21 -10 16 -10 24 -1 35 6 8 15 14 19 14 4 0 13 -6 19 -14z"/>
 <path d="M931 1538 c-1 -53 22 -69 33 -23 4 14 10 25 15 25 5 0 12 -11 15 -25 11 -42 26 -28 25 23 0 34 -3 42 -9 27 -7 -18 -8 -19 -15 -2 -10 25 -24 21 -37 -10 l-11 -28 -7 30 c-7 26 -8 24 -9 -17z"/>
 <path d="M1290 1575 c0 -15 42 -86 48 -81 9 10 32 80 26 85 -2 2 -11 -4 -18 -15 -14 -18 -15 -18 -21 -1 -6 15 -35 25 -35 12z"/>
 <path d="M1391 1538 c-1 -53 22 -69 33 -23 4 14 10 25 15 25 5 0 12 -11 15 -25 11 -42 26 -28 25 23 0 34 -3 42 -9 27 -7 -18 -8 -19 -15 -2 -10 25 -24 21 -37 -10 l-11 -28 -7 30 c-7 26 -8 24 -9 -17z"/>
 <path d="M1500 1535 c0 -43 1 -45 28 -44 26 0 26 1 5 9 -13 5 -23 12 -23 15 0 3 10 10 23 15 16 6 17 9 5 9 -27 1 -31 20 -6 30 23 10 22 10 -4 10 -27 1 -28 -1 -28 -44z"/>
 <path d="M210 1435 c0 -15 42 -86 48 -81 9 10 32 80 26 85 -2 2 -11 -4 -18 -15 -14 -18 -15 -18 -21 -1 -6 15 -35 25 -35 12z"/>
 <path d="M311 1393 c2 -35 3 -40 6 -18 10 63 53 66 53 4 0 -28 2 -29 48 -29 37 1 43 3 30 11 -12 6 -19 23 -19 47 l-2 37 -6 -40 c-4 -27 -12 -41 -23 -43 -15 -3 -18 4 -18 37 0 40 -1 41 -35 41 l-35 0 1 -47z"/>
 <path d="M470 1396 c0 -40 3 -46 25 -52 37 -9 57 12 53 55 -3 34 -5 36 -40 39 l-38 3 0 -45z m59 20 c9 -11 9 -19 -1 -35 -7 -12 -15 -21 -18 -21 -3 0 -11 9 -18 21 -10 16 -10 24 -1 35 6 8 15 14 19 14 4 0 13 -6 19 -14z"/>
 <path d="M591 1398 c-1 -46 0 -48 27 -47 26 0 26 1 5 9 -13 5 -23 12 -23 15 0 3 10 10 23 15 17 7 18 9 4 9 -10 1 -22 11 -27 24 -7 18 -9 13 -9 -25z"/>
 <path d="M660 1396 c0 -40 3 -46 25 -52 37 -9 57 12 53 55 -3 34 -5 36 -40 39 l-38 3 0 -45z m59 20 c9 -11 9 -19 -1 -35 -7 -12 -15 -21 -18 -21 -3 0 -11 9 -18 21 -10 16 -10 24 -1 35 6 8 15 14 19 14 4 0 13 -6 19 -14z"/>
 <path d="M761 1393 l2 -48 6 40 c5 32 11 41 29 43 20 3 22 -1 23 -40 l2 -43 6 39 c4 26 13 42 26 47 13 5 1 8 -37 8 l-58 1 1 -47z"/>
 <path d="M890 1395 c0 -39 3 -45 25 -51 15 -4 32 -1 40 6 8 7 15 9 15 5 0 -5 9 0 19 9 18 17 20 17 30 -1 9 -17 10 -17 24 1 11 16 15 16 19 4 4 -10 21 -15 50 -15 23 0 35 1 26 4 -22 6 -23 22 -3 29 8 4 15 17 15 30 0 20 -5 24 -27 23 -27 0 -28 0 -5 -10 24 -9 22 -29 -4 -29 -8 0 -14 -7 -14 -16 0 -25 -18 -6 -25 26 -8 37 -20 38 -33 3 l-9 -28 -13 28 c-16 33 -26 34 -34 5 l-7 -23 -9 23 c-7 17 -17 22 -45 22 -35 0 -35 0 -35 -45z m59 21 c9 -11 9 -19 -1 -35 -7 -12 -15 -21 -18 -21 -3 0 -11 9 -18 21 -10 16 -10 24 -1 35 6 8 15 14 19 14 4 0 13 -6 19 -14z"/>
 <path d="M3064 1418 c-38 -45 -45 -66 -32 -90 32 -57 49 -68 107 -68 51 0 57 3 69 27 6 15 12 48 12 74 0 39 -4 49 -25 63 -37 24 -107 21 -131 -6z m90 -50 c23 -30 24 -34 9 -50 -20 -22 -41 -23 -65 -1 -22 20 -23 41 -1 65 22 24 28 23 57 -14z"/>
 <path d="M1172 1380 c0 -19 2 -27 5 -17 2 9 2 25 0 35 -3 9 -5 1 -5 -18z"/>
 <path d="M241 1268 c0 -24 -7 -41 -18 -47 -14 -8 -8 -10 28 -11 40 0 48 3 53 23 l7 22 9 -22 c11 -27 28 -30 37 -7 6 16 7 15 18 0 7 -9 17 -16 21 -15 5 1 21 -1 37 -5 39 -11 59 8 55 53 -3 34 -5 36 -40 39 -37 3 -38 3 -38 -33 0 -42 -15 -39 -25 5 -8 37 -20 38 -33 3 l-9 -28 -13 28 c-17 35 -27 34 -35 -2 -3 -16 -13 -35 -21 -41 -16 -14 -20 -6 -27 45 -4 27 -4 26 -6 -7z m228 8 c9 -11 9 -19 -1 -35 -7 -12 -15 -21 -18 -21 -3 0 -11 9 -18 21 -10 16 -10 24 -1 35 6 8 15 14 19 14 4 0 13 -6 19 -14z"/>
 <path d="M530 1255 c0 -45 0 -45 34 -45 39 0 53 22 42 66 -5 20 -13 24 -41 24 -35 0 -35 0 -35 -45z m55 0 c0 -23 -4 -30 -20 -30 -21 0 -31 25 -21 51 11 28 41 12 41 -21z"/>
 <path d="M620 1295 c0 -15 42 -86 48 -81 9 10 32 80 26 85 -2 2 -11 -4 -18 -15 -14 -18 -15 -18 -21 -1 -6 15 -35 25 -35 12z"/>
 <path d="M718 1258 c-20 -45 -17 -58 7 -38 12 10 18 10 30 0 25 -20 29 -4 8 27 -11 15 -22 33 -24 40 -2 7 -12 -6 -21 -29z"/>
 <path d="M808 1289 c24 -9 22 -29 -4 -29 -8 0 -14 -10 -14 -25 0 -21 5 -25 28 -24 16 1 20 3 10 6 -22 5 -23 22 -3 29 8 4 15 17 15 30 0 20 -5 24 -27 23 -27 0 -28 0 -5 -10z"/>
 <path d="M921 1258 c0 -27 4 -48 9 -48 6 0 10 6 10 13 0 7 9 18 19 24 18 11 20 9 24 -15 2 -16 5 -8 6 21 1 54 -9 59 -35 20 l-18 -28 -7 30 c-6 26 -7 23 -8 -17z"/>
 <path d="M1010 1254 l0 -45 37 3 c31 2 41 9 53 33 12 26 15 27 18 10 8 -38 22 -45 92 -45 l68 0 0 45 c-1 47 -12 60 -21 24 -6 -23 -27 -17 -27 7 0 9 -11 14 -35 14 -34 0 -35 -1 -35 -37 l0 -38 -20 25 c-11 14 -20 31 -20 38 0 28 -28 9 -39 -28 -8 -28 -17 -40 -31 -40 -29 0 -34 19 -8 29 16 7 18 10 6 10 -27 1 -31 20 -6 30 23 10 22 10 -4 10 -27 1 -28 -1 -28 -45z m210 21 c0 -16 -35 -21 -44 -6 -8 12 4 21 26 21 10 0 18 -7 18 -15z m0 -40 c0 -16 -35 -21 -44 -6 -8 12 4 21 26 21 10 0 18 -7 18 -15z m34 -6 c-3 -5 -10 -7 -15 -3 -5 3 -7 10 -3 15 3 5 10 7 15 3 5 -3 7 -10 3 -15z"/>
 <path d="M1330 1255 c0 -44 0 -45 34 -45 23 0 36 6 41 18 7 16 8 15 15 -3 6 -14 9 -6 9 30 0 36 -3 44 -9 30 -7 -18 -8 -19 -15 -2 -5 11 -18 17 -41 17 -34 0 -34 -1 -34 -45z m55 0 c0 -23 -4 -30 -20 -30 -21 0 -31 25 -21 51 11 28 41 12 41 -21z"/>
 <path d="M1460 1255 c0 -43 1 -45 28 -44 26 0 27 0 4 10 -25 10 -21 29 6 30 12 0 10 3 -6 10 -32 12 -18 29 23 29 39 0 57 -19 26 -27 -14 -3 -21 -13 -21 -29 0 -20 5 -24 28 -23 16 1 20 3 10 6 -22 5 -23 22 -3 29 8 4 15 17 15 30 0 22 -4 24 -55 24 l-55 0 0 -45z"/>
 <path d="M862 1240 c0 -19 2 -27 5 -17 2 9 2 25 0 35 -3 9 -5 1 -5 -18z"/>
 <path d="M1592 1240 c0 -19 2 -27 5 -17 2 9 2 25 0 35 -3 9 -5 1 -5 -18z"/>
 <path d="M2038 1143 c-2 -22 -9 -29 -30 -31 -23 -3 -28 -8 -28 -32 0 -24 5 -29 28 -32 26 -3 27 -5 27 -63 0 -58 -1 -60 -27 -63 -24 -3 -28 -8 -28 -33 0 -25 4 -29 29 -29 25 0 30 4 33 28 3 26 5 27 58 27 53 0 55 -1 58 -27 3 -24 8 -28 37 -28 29 0 34 4 37 28 2 21 9 28 31 30 23 3 27 8 27 33 0 25 -4 29 -29 29 -25 0 -30 -4 -33 -27 -3 -24 -8 -28 -33 -28 -25 0 -31 4 -33 27 -3 21 -9 27 -30 30 -22 2 -28 9 -30 35 -3 26 -8 32 -30 35 -21 2 -27 8 -27 28 0 20 6 26 28 28 23 3 27 8 27 33 0 25 -4 29 -29 29 -25 0 -30 -4 -33 -27z"/>
 <path d="M220 1114 c0 -44 1 -45 28 -42 24 3 27 7 30 46 3 41 2 42 -27 42 -30 0 -31 -1 -31 -46z m45 26 c3 -6 -1 -13 -10 -16 -19 -8 -30 0 -20 15 8 14 22 14 30 1z m-15 -51 c0 -6 -4 -7 -10 -4 -5 3 -10 11 -10 16 0 6 5 7 10 4 6 -3 10 -11 10 -16z"/>
 <path d="M300 1116 c0 -40 3 -46 24 -52 14 -3 31 -2 38 2 7 4 31 7 53 6 32 -2 37 0 23 8 -12 7 -19 25 -19 48 l-2 37 -6 -39 c-8 -53 -29 -58 -33 -9 -3 36 -5 38 -40 41 l-38 3 0 -45z m59 20 c9 -11 9 -19 -1 -35 -7 -12 -15 -21 -18 -21 -3 0 -11 9 -18 21 -10 16 -10 24 -1 35 6 8 15 14 19 14 4 0 13 -6 19 -14z"/>
 <path d="M524 1146 c-3 -8 -4 -27 -2 -43 3 -24 8 -28 38 -30 28 -2 31 -1 15 6 -12 5 -27 16 -34 25 -12 15 -12 19 1 33 20 19 45 8 27 -13 -9 -11 -8 -14 5 -14 10 0 16 9 16 25 0 21 -5 25 -30 25 -17 0 -33 -6 -36 -14z"/>
 <path d="M610 1115 l0 -45 68 0 c50 1 63 3 50 11 -12 6 -19 23 -19 47 l-2 37 -6 -40 c-5 -35 -10 -40 -35 -43 -39 -5 -57 14 -25 27 16 7 19 10 7 10 -27 1 -31 20 -6 30 23 10 22 10 -4 10 -27 1 -28 -1 -28 -44z"/>
 <path d="M782 1121 c-16 -52 -15 -57 7 -37 18 17 20 17 30 -1 9 -17 10 -17 24 1 12 17 14 17 20 2 9 -23 44 -20 50 4 7 27 35 25 47 -2 7 -18 9 -13 9 27 0 40 -2 45 -9 28 -5 -13 -16 -23 -25 -23 -9 0 -20 10 -25 23 -8 19 -9 17 -9 -16 -1 -43 -16 -42 -26 3 -8 37 -20 38 -33 3 l-9 -28 -13 28 c-18 36 -25 34 -38 -12z"/>
 <path d="M992 1118 l-2 -48 78 1 c58 0 71 3 54 10 -25 10 -21 29 6 30 12 0 11 3 -5 9 -13 5 -23 12 -23 15 0 3 10 10 23 15 21 8 21 9 -5 9 -26 1 -28 -2 -28 -40 0 -33 -3 -40 -17 -37 -13 2 -19 15 -22 43 l-5 40 -5 -40 c-4 -26 -12 -41 -23 -43 -13 -3 -18 6 -21 40 l-4 43 -1 -47z"/>
 <path d="M1208 1149 c24 -9 22 -29 -4 -29 -8 0 -14 -10 -14 -25 0 -24 2 -25 68 -25 50 1 63 3 50 11 -12 6 -19 23 -19 47 l-2 37 -6 -40 c-5 -36 -9 -40 -38 -43 -34 -3 -46 14 -18 24 8 4 15 17 15 30 0 20 -5 24 -27 23 -27 0 -28 0 -5 -10z"/>
 <path d="M1320 1155 c0 -3 9 -24 20 -46 20 -39 40 -44 40 -10 0 9 7 26 15 37 13 18 14 16 15 -23 0 -41 2 -43 29 -43 28 0 29 2 28 45 -2 48 -11 59 -20 24 -6 -23 -27 -17 -27 7 0 20 -36 18 -45 -3 -6 -17 -7 -17 -19 0 -12 16 -36 24 -36 12z m124 -66 c-3 -5 -10 -7 -15 -3 -5 3 -7 10 -3 15 3 5 10 7 15 3 5 -3 7 -10 3 -15z"/>
 <path d="M1523 1115 c0 -27 2 -38 4 -22 2 15 2 37 0 50 -2 12 -4 0 -4 -28z"/>
 <path d="M1551 1118 c-1 -55 9 -60 35 -20 l18 27 7 -30 c6 -26 7 -23 8 18 1 54 -9 59 -35 20 l-18 -28 -7 30 c-6 26 -7 23 -8 -17z"/>
 <path d="M221 977 l-1 -48 40 3 40 2 -1 45 c-1 27 -4 35 -6 20 -3 -22 -8 -25 -29 -21 -14 2 -29 14 -34 26 -7 16 -9 10 -9 -27z m33 -28 c-3 -5 -10 -7 -15 -3 -5 3 -7 10 -3 15 3 5 10 7 15 3 5 -3 7 -10 3 -15z"/>
 <path d="M335 992 c3 -13 1 -30 -6 -38 -16 -19 -3 -30 16 -14 12 10 19 10 27 2 7 -7 30 -12 53 -11 34 0 37 2 18 9 -13 5 -23 12 -23 15 0 3 10 10 23 15 16 6 17 9 5 9 -27 1 -31 20 -6 30 23 10 22 10 -4 10 -26 1 -28 -2 -28 -40 0 -36 -2 -40 -15 -29 -11 9 -14 22 -10 40 5 24 3 27 -25 27 -28 0 -31 -3 -25 -25z"/>
 <path d="M482 973 c1 -45 2 -45 5 -10 6 53 29 59 65 16 l29 -34 -23 -7 c-19 -5 -18 -6 10 -7 l32 -1 -15 36 c-18 45 -19 42 3 47 9 3 -11 5 -45 6 l-63 1 2 -47z"/>
 <path d="M620 975 c0 -43 1 -45 28 -44 26 0 26 1 5 9 -13 5 -23 12 -23 15 0 3 10 10 23 15 16 6 17 9 5 9 -27 1 -31 20 -6 30 23 10 22 10 -4 10 -27 1 -28 -1 -28 -44z"/>
 <path d="M691 978 c-1 -47 0 -48 29 -48 17 0 30 5 30 12 0 9 3 9 12 0 7 -7 26 -12 43 -11 26 0 27 1 10 9 -12 4 -27 15 -34 24 -12 15 -12 19 1 33 20 19 45 8 27 -13 -9 -11 -8 -14 5 -14 11 0 16 9 16 26 0 23 -3 25 -32 22 -25 -2 -34 -8 -36 -25 -2 -13 -8 -23 -14 -23 -6 0 -8 10 -4 25 4 14 2 25 -4 25 -5 0 -10 -6 -10 -14 0 -26 -20 -28 -29 -4 -8 19 -10 15 -10 -24z m33 -29 c-3 -5 -10 -7 -15 -3 -5 3 -7 10 -3 15 3 5 10 7 15 3 5 -3 7 -10 3 -15z"/>
 <path d="M868 1009 c24 -9 22 -29 -4 -29 -8 0 -14 -10 -14 -25 0 -21 5 -25 28 -24 16 1 20 3 10 6 -22 5 -23 22 -3 29 8 4 15 17 15 30 0 20 -5 24 -27 23 -27 0 -28 0 -5 -10z"/>
 <path d="M951 973 l2 -48 6 39 c4 26 13 42 26 47 17 7 16 8 -7 8 -27 1 -28 -1 -27 -46z"/>
 <path d="M1020 975 c0 -43 1 -45 28 -44 26 0 27 0 4 10 -25 10 -21 29 6 30 12 0 10 3 -6 10 -26 10 -21 29 8 29 13 0 27 -14 40 -40 20 -40 40 -46 40 -11 0 9 7 26 15 37 13 18 14 16 16 -26 1 -25 3 -37 6 -27 5 18 6 18 24 1 23 -21 35 -13 21 13 -7 12 -7 25 0 37 13 24 0 36 -16 13 -16 -21 -26 -22 -26 -2 0 21 -36 19 -45 -2 -6 -17 -7 -17 -19 0 -9 11 -27 17 -55 17 l-41 0 0 -45z"/>
 <path d="M1250 975 c0 -43 1 -45 28 -44 26 0 26 1 5 9 -13 5 -23 12 -23 15 0 3 10 10 23 15 16 6 17 9 5 9 -27 1 -31 20 -6 30 23 10 22 10 -4 10 -27 1 -28 -1 -28 -44z"/>
 <path d="M1320 975 c0 -45 0 -45 34 -45 39 0 53 22 42 66 -5 20 -13 24 -41 24 -35 0 -35 0 -35 -45z m55 0 c0 -23 -4 -30 -20 -30 -21 0 -31 25 -21 51 11 28 41 12 41 -21z"/>
 <path d="M2598 953 c-2 -22 -9 -29 -30 -31 -24 -3 -28 -8 -28 -33 0 -25 4 -29 29 -29 25 0 30 4 33 28 3 26 5 27 63 27 58 0 60 -1 63 -27 3 -24 8 -28 33 -28 25 0 29 4 29 29 0 25 -4 30 -27 33 -22 2 -29 9 -31 31 -3 26 -5 27 -67 27 -62 0 -64 -1 -67 -27z"/>
 <path d="M3098 953 c-2 -22 -9 -29 -30 -31 -24 -3 -28 -8 -28 -33 0 -25 4 -29 29 -29 25 0 30 4 33 28 3 26 6 27 66 30 61 3 62 3 62 32 l0 30 -64 0 c-63 0 -65 -1 -68 -27z"/>
 <path d="M215 821 c19 -8 130 -14 238 -13 28 1 142 1 252 0 110 0 223 0 250 0 43 1 359 0 495 -1 25 0 88 4 140 10 72 8 -82 10 -650 11 -410 0 -736 -3 -725 -7z"/>
 <path d="M1920 735 l0 -65 250 0 250 0 0 65 0 65 -250 0 -250 0 0 -65z"/>
 <path d="M3160 330 c0 -28 3 -30 35 -30 32 0 35 2 35 30 0 28 -3 30 -35 30 -32 0 -35 -2 -35 -30z"/>
 <path d="M2920 205 l0 -95 59 0 c58 0 60 1 63 28 2 21 9 28 31 30 22 3 27 8 27 32 0 24 -5 29 -27 32 -23 2 -29 8 -31 36 l-3 32 -60 0 -59 0 0 -95z"/>
 <path d="M3162 163 l3 -68 33 -3 32 -3 0 70 0 71 -35 0 -36 0 3 -67z"/>
 <path d="M2980 26 l0 -26 110 0 c103 0 110 1 110 20 0 18 -7 20 -72 20 -40 0 -90 3 -110 6 -36 6 -38 5 -38 -20z"/>
 </g>

<g fill="#333231" stroke="none">
 <path d="M816 3012 c6 -4 13 -15 17 -24 3 -10 16 -18 27 -18 27 0 26 -28 -2 -32 -18 -2 -23 -10 -23 -33 l0 -30 80 0 c75 0 80 1 83 23 4 28 32 29 32 2 0 -11 8 -23 18 -26 9 -3 24 -9 33 -14 23 -12 27 -5 20 38 -5 28 -11 38 -29 40 -29 4 -29 30 1 34 14 2 23 11 25 26 3 22 3 22 -145 22 -81 0 -143 -4 -137 -8z m164 -57 c0 -8 -7 -15 -15 -15 -8 0 -15 7 -15 15 0 8 7 15 15 15 8 0 15 -7 15 -15z"/>
 <path d="M1878 3013 c13 -3 22 -12 22 -23 0 -12 -8 -20 -22 -22 -18 -2 -23 -10 -23 -33 l0 -30 97 -3 97 -3 3 -47 c3 -40 6 -47 26 -50 20 -3 22 -9 22 -67 0 -58 -2 -64 -22 -67 -15 -2 -24 -11 -26 -25 -3 -21 -9 -23 -67 -23 -35 0 -66 -4 -69 -9 -3 -5 9 -18 27 -30 27 -17 34 -18 43 -7 5 8 28 16 50 18 31 2 40 7 42 25 2 14 11 23 25 25 20 3 22 10 25 75 3 65 5 72 25 75 20 3 22 9 22 68 0 60 -2 65 -22 68 -20 3 -23 9 -23 48 l0 44 -137 -1 c-76 -1 -128 -4 -115 -6z m222 -23 c0 -11 -7 -20 -15 -20 -8 0 -15 9 -15 20 0 11 7 20 15 20 8 0 15 -9 15 -20z m50 -105 c0 -8 -7 -15 -15 -15 -8 0 -15 7 -15 15 0 8 7 15 15 15 8 0 15 -7 15 -15z"/>
 <path d="M1233 2897 c-17 -7 -35 -15 -39 -19 -4 -5 -19 -8 -33 -8 -14 0 -37 -9 -51 -20 l-25 -20 23 -6 c12 -4 22 -12 22 -19 0 -8 -10 -15 -22 -17 -18 -2 -23 -10 -23 -33 0 -23 5 -31 23 -33 12 -2 22 -10 22 -18 0 -11 -19 -14 -89 -14 -85 0 -90 1 -93 23 -2 14 -11 23 -25 25 -13 2 -23 10 -23 17 0 7 10 15 23 17 17 2 22 10 22 33 0 27 -3 30 -30 30 -23 0 -31 -5 -33 -22 -2 -15 -10 -23 -22 -23 -10 0 -22 -5 -25 -10 -5 -8 -12 -7 -22 2 -13 10 -18 9 -32 -8 -10 -12 -28 -20 -45 -20 -23 1 -29 -4 -31 -22 -1 -13 5 -27 14 -32 14 -7 14 -11 2 -22 -8 -8 -11 -8 -7 -1 3 6 2 14 -3 18 -6 3 -15 -4 -21 -15 -9 -17 -6 -25 15 -45 20 -21 28 -24 45 -15 11 6 18 15 15 21 -4 5 -9 7 -13 5 -11 -6 -8 51 2 61 5 4 6 3 3 -3 -4 -6 2 -19 13 -29 11 -10 20 -14 20 -9 0 5 5 1 11 -8 12 -21 40 -23 57 -6 9 9 18 8 37 -2 21 -11 30 -12 46 -1 13 7 25 9 32 3 18 -14 89 -23 101 -12 7 5 15 0 23 -16 l11 -24 -146 0 c-178 0 -223 -6 -230 -32 -2 -10 -11 -18 -18 -18 -8 0 -23 -9 -34 -20 -24 -24 -34 -26 -26 -5 7 18 -16 30 -40 21 -9 -4 -12 -11 -7 -18 4 -7 8 -17 8 -23 0 -5 9 -10 20 -10 11 0 23 -5 28 -12 4 -7 14 -10 21 -7 17 7 36 -25 36 -60 0 -19 -5 -26 -19 -26 -26 0 -36 -16 -17 -27 9 -5 16 -27 18 -53 3 -43 5 -45 37 -50 28 -4 32 -7 20 -16 -8 -7 -23 -14 -34 -16 -15 -2 -20 -11 -20 -33 0 -27 3 -30 30 -30 23 0 31 5 33 23 4 24 39 31 60 10 9 -9 13 -7 18 5 8 22 -3 37 -27 37 -17 0 -19 7 -19 64 0 59 2 65 23 68 17 2 22 10 22 33 0 28 -2 30 -45 33 -48 3 -73 18 -53 30 6 4 72 6 147 4 107 -2 136 -6 136 -17 0 -7 -10 -15 -22 -17 -18 -2 -23 -10 -23 -33 0 -30 1 -30 55 -30 62 0 57 -11 59 125 1 64 1 65 16 36 8 -15 15 -48 15 -72 0 -44 15 -67 26 -39 4 10 14 15 25 12 21 -6 69 28 69 48 0 23 22 30 90 30 60 0 65 2 68 23 2 12 10 22 17 22 7 0 15 -10 17 -22 3 -21 8 -23 66 -23 68 0 86 18 23 23 -32 3 -40 7 -43 25 -3 20 -9 22 -59 22 -42 0 -55 3 -52 12 3 7 9 10 14 7 19 -12 27 7 13 34 -7 15 -14 30 -14 34 0 9 25 5 52 -6 23 -10 38 1 32 22 -5 16 -5 16 5 0 7 -11 20 -15 36 -12 20 4 27 -1 35 -21 14 -37 29 -22 27 25 -2 26 2 41 11 45 7 3 10 9 7 15 -9 15 -48 12 -73 -6 -12 -8 -22 -12 -22 -8 0 3 -8 0 -17 -7 -16 -13 -17 -12 -5 3 16 21 1 32 -33 24 -27 -7 -57 2 -49 15 3 5 -2 12 -10 15 -10 4 -16 18 -16 35 0 40 18 37 22 -3 4 -48 23 -36 23 15 0 39 -2 42 -30 45 -16 2 -37 10 -46 18 -22 20 -69 25 -106 11z m-40 -77 c3 -11 13 -20 22 -20 9 0 13 -4 10 -10 -8 -13 -55 18 -55 36 0 21 17 17 23 -6z m117 -16 c0 -27 5 -37 20 -41 11 -3 20 -9 20 -13 0 -4 -9 -10 -20 -13 -17 -4 -20 -14 -20 -60 0 -39 -4 -57 -14 -60 -8 -3 -18 -22 -22 -41 -5 -31 -10 -36 -35 -36 -27 0 -29 3 -29 36 0 27 -5 37 -20 41 -25 7 -29 63 -4 63 9 0 18 9 21 19 4 14 15 21 42 23 l36 3 3 58 c3 62 22 80 22 21z m-130 -49 c0 -8 -7 -15 -15 -15 -8 0 -15 7 -15 15 0 8 7 15 15 15 8 0 15 -7 15 -15z m267 -42 c-4 -3 -10 -3 -14 0 -3 4 0 7 7 7 7 0 10 -3 7 -7z m-722 -63 c3 -5 4 -10 1 -10 -3 0 -8 5 -11 10 -3 6 -4 10 -1 10 3 0 8 -4 11 -10z m425 -60 c0 -5 -4 -10 -9 -10 -6 0 -13 5 -16 10 -3 6 1 10 9 10 9 0 16 -4 16 -10z m205 0 c3 -5 -1 -10 -9 -10 -8 0 -19 -8 -25 -17 -5 -10 -12 -15 -16 -11 -7 6 24 46 37 47 4 1 10 -3 13 -9z m-525 -35 c0 -8 -7 -15 -15 -15 -8 0 -15 7 -15 15 0 8 7 15 15 15 8 0 15 -7 15 -15z m200 0 c0 -8 -7 -15 -15 -15 -8 0 -15 7 -15 15 0 8 7 15 15 15 8 0 15 -7 15 -15z m350 -5 c0 -5 -8 -10 -17 -10 -15 0 -16 2 -3 10 19 12 20 12 20 0z m-670 -34 c0 -3 -4 -8 -10 -11 -5 -3 -10 -1 -10 4 0 6 5 11 10 11 6 0 10 -2 10 -4z m510 -40 c0 -3 -5 -8 -12 -12 -7 -4 -8 -3 -4 4 7 12 16 16 16 8z"/>
 <path d="M1804 2856 c-15 -38 -1 -51 56 -51 54 0 55 0 55 30 0 29 -1 30 -53 33 -39 2 -54 -1 -58 -12z"/>
 <path d="M984 2826 c-12 -31 0 -51 31 -51 27 0 30 3 30 30 0 25 -4 30 -28 33 -17 2 -29 -2 -33 -12z"/>
 <path d="M533 2760 c-22 -9 -40 -61 -28 -80 9 -14 48 19 42 34 -3 6 8 11 23 11 17 0 26 -5 23 -11 -2 -7 0 -15 6 -18 6 -4 2 -15 -10 -27 -20 -20 -21 -20 -34 -2 -11 15 -16 16 -27 5 -11 -11 -10 -16 5 -26 19 -15 64 -13 80 3 6 6 12 32 13 57 2 40 0 46 -22 55 -30 11 -42 11 -71 -1z"/>
 <path d="M1617 2734 c-26 -14 -28 -18 -22 -58 6 -39 5 -44 -16 -49 -45 -12 -5 -24 60 -19 51 4 65 8 68 23 4 14 10 16 22 10 23 -12 66 5 53 22 -6 6 -12 28 -14 47 -4 40 -29 51 -58 25 -16 -14 -18 -14 -23 0 -8 19 -34 19 -70 -1z m14 -57 c-10 -9 -11 -8 -5 6 3 10 9 15 12 12 3 -3 0 -11 -7 -18z m49 -1 c0 -8 -7 -17 -16 -20 -13 -5 -14 -4 -6 7 7 8 9 17 5 20 -3 4 -1 7 5 7 7 0 12 -6 12 -14z"/>
 <path d="M1807 2744 c-4 -4 -7 -24 -7 -45 0 -30 6 -42 25 -55 37 -24 52 -7 46 53 -5 42 -9 48 -31 51 -14 2 -29 0 -33 -4z"/>
 <path d="M427 2549 c-14 -8 -16 -14 -6 -25 15 -18 43 -18 58 0 10 12 8 17 -8 25 -23 13 -21 13 -44 0z"/>
 <path d="M1913 2524 c-9 -23 11 -38 26 -20 13 16 7 36 -10 36 -5 0 -12 -7 -16 -16z"/>
 <path d="M396 2512 c-18 -30 20 -102 54 -102 37 0 78 88 49 106 -16 10 -36 -13 -22 -27 8 -8 6 -16 -8 -30 -19 -19 -19 -19 -38 0 -13 13 -16 22 -9 29 11 11 3 32 -12 32 -5 0 -11 -4 -14 -8z"/>
 <path d="M564 2506 c-10 -26 6 -66 38 -89 27 -20 57 -15 39 6 -5 7 -10 15 -10 20 -1 4 -4 6 -8 5 -5 -2 -7 -7 -5 -12 2 -5 -4 -4 -12 4 -19 15 -21 31 -3 28 6 -2 12 3 12 10 0 6 -3 11 -7 10 -4 -2 -14 6 -22 17 -14 19 -15 19 -22 1z"/>
 <path d="M1996 2491 c-4 -5 -2 -12 3 -15 5 -4 12 -2 15 3 4 5 2 12 -3 15 -5 4 -12 2 -15 -3z"/>
 <path d="M2035 2491 c-7 -12 12 -24 25 -16 11 7 4 25 -10 25 -5 0 -11 -4 -15 -9z"/>
 <path d="M1325 2481 c-7 -12 12 -24 25 -16 11 7 4 25 -10 25 -5 0 -11 -4 -15 -9z"/>
 <path d="M1867 2446 c-26 -21 -27 -36 -1 -36 14 0 47 47 36 54 -4 2 -19 -6 -35 -18z"/>
 <path d="M1444 2445 c-9 -22 9 -37 37 -33 16 2 24 10 24 23 0 26 -52 35 -61 10z"/>
 <path d="M1644 2447 c-7 -20 3 -37 21 -37 23 0 26 16 5 35 -18 16 -20 16 -26 2z"/>
 <path d="M1285 2440 c-4 -6 -3 -16 3 -22 6 -6 12 -6 17 2 4 6 3 16 -3 22 -6 6 -12 6 -17 -2z"/>
 <path d="M2035 2431 c-7 -12 12 -24 25 -16 11 7 4 25 -10 25 -5 0 -11 -4 -15 -9z"/>
 <path d="M2095 2430 c-3 -6 0 -12 7 -15 26 -10 518 0 521 10 3 14 -519 19 -528 5z"/>
 <path d="M1084 2347 c-2 -7 -4 -49 -2 -93 l3 -79 30 0 30 0 0 90 0 90 -28 3 c-16 2 -29 -2 -33 -11z"/>
 <path d="M834 2326 c-12 -31 0 -51 31 -51 27 0 30 3 30 30 0 25 -4 30 -28 33 -17 2 -29 -2 -33 -12z"/>
 <path d="M934 2326 c-12 -31 0 -51 31 -51 27 0 30 3 30 30 0 25 -4 30 -28 33 -17 2 -29 -2 -33 -12z"/>
 <path d="M2705 2328 c-9 -24 -1 -128 10 -131 13 -3 19 123 6 136 -7 7 -12 5 -16 -5z"/>
 <path d="M1317 2324 c-4 -4 -2 -13 4 -21 9 -10 8 -21 -4 -45 -19 -40 -10 -59 13 -28 l17 23 6 -23 c3 -13 10 -19 17 -15 7 4 9 18 5 33 -5 22 -4 24 10 12 8 -7 14 -20 13 -29 -4 -20 40 -22 63 -3 14 11 18 10 23 -4 5 -12 10 -14 17 -7 8 8 8 21 0 46 -13 39 -46 74 -55 58 -4 -5 -2 -12 4 -16 5 -3 10 -11 10 -18 0 -8 -3 -8 -12 1 -15 15 -50 16 -65 1 -9 -9 -18 -5 -35 15 -13 15 -27 24 -31 20z"/>
 <path d="M1545 2288 c-9 -24 -2 -93 10 -93 14 0 19 85 6 98 -7 7 -12 5 -16 -5z"/>
 <path d="M1606 2288 c-15 -45 -12 -68 10 -89 26 -24 53 -17 32 8 -11 14 -10 15 10 9 13 -5 29 -3 37 4 10 8 18 8 33 -1 16 -10 23 -10 35 0 13 10 16 9 19 -9 6 -42 23 -19 23 33 l0 52 -80 0 -80 0 -6 -30 c-7 -30 -7 -30 -8 -3 -1 29 -19 47 -25 26z"/>
 <path d="M1849 2296 c-9 -18 -5 -67 6 -76 15 -13 39 -4 30 11 -16 24 9 26 30 2 23 -27 23 -28 44 -9 24 21 27 48 9 64 -10 8 -115 15 -119 8z m101 -35 c0 -6 -4 -13 -10 -16 -5 -3 -10 1 -10 9 0 9 5 16 10 16 6 0 10 -4 10 -9z"/>
 <path d="M2016 2289 c-15 -46 -12 -69 10 -90 26 -24 53 -17 32 8 -11 14 -10 15 9 9 12 -4 24 -2 28 4 3 6 12 7 18 3 23 -15 89 -9 101 9 10 16 12 16 33 -4 22 -20 24 -20 42 -4 17 15 19 15 25 1 9 -23 26 -9 27 23 1 27 1 27 8 -3 5 -26 10 -30 41 -30 24 0 34 5 32 14 -1 7 2 19 9 27 22 27 3 42 -55 43 -30 0 -58 -4 -62 -10 -4 -7 -10 -6 -19 1 -7 6 -30 9 -51 7 -31 -3 -40 -9 -42 -26 -4 -28 -20 -27 -24 2 -4 32 -22 27 -29 -8 l-6 -30 -4 30 c-3 25 -9 30 -41 33 -20 2 -39 -2 -43 -8 -5 -8 -11 -8 -21 1 -11 9 -15 8 -18 -2z m52 -55 c-10 -10 -28 6 -28 24 0 15 1 15 17 -1 9 -9 14 -19 11 -23z m212 27 c0 -6 -4 -13 -10 -16 -5 -3 -10 1 -10 9 0 9 5 16 10 16 6 0 10 -4 10 -9z"/>
 <path d="M2495 2283 c-33 -18 -32 -29 5 -48 36 -19 63 -9 34 12 -16 12 -17 15 -4 23 8 6 21 8 28 5 8 -3 19 -5 25 -5 6 0 2 -6 -9 -14 -19 -14 -19 -15 0 -22 18 -7 18 -8 -3 -16 -12 -4 -19 -12 -16 -18 9 -14 42 -12 52 3 12 18 12 70 1 84 -12 15 -80 13 -113 -4z"/>
 <path d="M987 2233 c-4 -3 -7 -14 -7 -24 0 -15 -10 -19 -55 -21 -66 -4 -78 -22 -17 -26 61 -5 57 -30 -5 -34 -42 -3 -48 -6 -51 -27 -2 -13 1 -28 7 -34 8 -8 3 -16 -17 -29 -37 -24 -72 -24 -72 1 0 13 8 21 23 23 17 2 22 10 22 33 0 28 -3 30 -40 33 -22 1 -50 7 -61 13 -41 21 -59 8 -59 -41 0 -39 3 -45 23 -48 28 -4 29 -18 0 -25 -21 -6 -21 -7 -3 -27 15 -17 30 -20 100 -20 l82 0 37 55 c39 59 46 63 66 40 18 -22 25 -11 21 35 -2 27 5 50 23 78 14 22 22 43 19 46 -8 8 -28 8 -36 -1z"/>
 <path d="M1914 2095 c-11 -27 4 -45 36 -45 18 0 33 6 36 15 8 20 40 19 48 -1 4 -10 16 -14 38 -12 28 2 33 7 33 28 0 25 -1 25 -93 28 -76 2 -93 0 -98 -13z"/>
 <path d="M2157 2104 c-12 -12 4 -24 33 -24 16 0 32 -4 35 -10 8 -13 58 -13 71 0 5 5 78 11 162 12 93 2 152 7 152 13 0 11 -442 20 -453 9z"/>
 <path d="M997 2033 c-3 -3 1 -16 10 -29 15 -24 37 -31 47 -16 6 10 -49 54 -57 45z"/>
 <path d="M1974 1976 c-3 -8 -4 -25 -2 -38 2 -19 9 -23 38 -23 33 0 35 2 35 35 0 32 -3 35 -33 38 -21 2 -34 -2 -38 -12z"/>
 <path d="M407 1869 c-9 -6 -15 -15 -12 -20 4 -5 11 -7 16 -4 5 4 9 -3 9 -14 0 -12 -3 -20 -7 -18 -5 1 -8 -2 -8 -8 0 -5 4 -9 8 -7 4 1 3 -7 -3 -17 -6 -13 -7 -22 0 -26 11 -7 40 46 40 73 0 31 -22 53 -43 41z"/>
 <path d="M214 1855 c-3 -7 -4 -30 -2 -51 l3 -39 60 -2 c86 -3 91 0 66 41 l-21 34 21 5 c41 11 7 26 -57 26 -44 -1 -67 -5 -70 -14z m87 -67 c-11 -4 -29 -4 -42 -1 l-23 6 23 9 c24 9 20 28 -7 29 -14 0 -13 2 3 9 15 6 25 2 42 -18 22 -26 22 -27 4 -34z"/>
 <path d="M456 1861 c-4 -5 -2 -12 3 -15 5 -4 12 -2 15 3 4 5 2 12 -3 15 -5 4 -12 2 -15 -3z"/>
 <path d="M227 1719 c-22 -13 -22 -62 1 -81 12 -11 42 -16 114 -16 93 -1 125 7 94 25 -8 4 -16 24 -18 43 -4 45 -22 45 -26 0 -4 -39 -15 -50 -45 -42 -20 5 -20 5 2 14 24 9 20 28 -7 29 -12 0 -10 3 6 10 13 5 21 13 18 18 -8 12 -117 12 -139 0z m34 -33 c-14 -17 2 -31 24 -22 9 3 15 0 15 -8 0 -11 -7 -12 -27 -7 -32 8 -46 51 -17 51 13 0 14 -3 5 -14z"/>
 <path d="M477 1724 c-3 -3 3 -21 13 -39 18 -33 18 -33 -2 -38 -40 -11 -6 -27 50 -24 51 2 58 5 70 30 12 24 11 31 -3 53 -23 35 -58 29 -66 -11 -4 -16 -7 -23 -8 -14 0 9 -9 23 -19 32 -20 18 -26 20 -35 11z m100 -61 c-3 -10 -5 -4 -5 12 0 17 2 24 5 18 2 -7 2 -21 0 -30z"/>
 <path d="M645 1720 c-4 -7 2 -14 14 -17 20 -5 20 -5 -2 -23 -36 -30 -13 -54 54 -58 69 -3 91 4 67 22 -9 7 -18 28 -20 47 -4 44 -22 44 -26 -1 -4 -39 -15 -50 -43 -43 -17 5 -17 6 4 23 18 15 20 22 11 37 -13 21 -49 29 -59 13z"/>
 <path d="M777 1724 c-3 -4 5 -29 20 -57 24 -48 26 -50 39 -32 8 10 15 26 15 34 1 9 4 3 8 -14 7 -33 41 -46 67 -24 11 9 18 9 26 1 15 -15 45 -15 53 -1 4 6 -2 13 -14 16 -20 5 -20 5 2 23 18 15 20 22 11 37 -15 25 -81 25 -99 0 -12 -17 -13 -17 -18 2 -5 21 -26 22 -50 3 -11 -10 -17 -9 -27 3 -13 16 -23 19 -33 9z m196 -24 c12 0 -23 -29 -35 -30 -5 0 -8 9 -8 21 0 15 4 19 16 15 9 -3 21 -6 27 -6z m-66 -47 c-4 -3 -10 -3 -14 0 -3 4 0 7 7 7 7 0 10 -3 7 -7z"/>
 <path d="M1044 1717 c-3 -8 -4 -32 -2 -53 2 -32 7 -40 27 -42 34 -5 51 15 21 26 l-24 9 22 5 c15 4 22 2 22 -8 0 -7 11 -21 25 -30 24 -16 27 -15 44 0 13 11 21 14 26 7 9 -15 50 -14 63 2 7 9 9 61 2 97 0 3 -9 -5 -19 -17 l-19 -22 -5 21 c-5 17 -9 19 -20 10 -9 -8 -17 -8 -24 -1 -16 16 -56 7 -68 -16 -11 -22 -45 -22 -45 0 0 20 -19 29 -26 12z m134 -39 c-2 -13 -10 -23 -18 -23 -8 0 -16 10 -18 23 -3 17 2 22 18 22 16 0 21 -5 18 -22z m69 -25 c-4 -3 -10 -3 -14 0 -3 4 0 7 7 7 7 0 10 -3 7 -7z"/>
 <path d="M1314 1717 c-3 -8 -4 -32 -2 -53 l3 -39 54 -2 c30 -1 60 2 67 8 8 6 14 6 18 0 8 -12 124 -12 132 0 3 5 -5 13 -18 18 -16 7 -18 10 -6 10 27 1 32 22 7 28 l-23 6 23 9 c42 15 10 27 -71 25 -70 -2 -82 -5 -88 -21 -6 -19 -7 -18 -13 3 -6 24 -27 21 -27 -5 0 -8 -7 -14 -15 -14 -8 0 -15 6 -15 14 0 21 -19 30 -26 13z m206 -21 c0 -10 -7 -12 -22 -8 -21 5 -21 6 -2 13 10 4 20 8 22 8 1 1 2 -5 2 -13z m-73 -18 c-3 -8 -6 -5 -6 6 -1 11 2 17 5 13 3 -3 4 -12 1 -19z m73 -22 c0 -10 -7 -12 -22 -8 -21 5 -21 6 -2 13 10 4 20 8 22 8 1 1 2 -5 2 -13z m-153 -2 c-3 -3 -12 -4 -19 -1 -8 3 -5 6 6 6 11 1 17 -2 13 -5z m50 -1 c-4 -3 -10 -3 -14 0 -3 4 0 7 7 7 7 0 10 -3 7 -7z"/>
 <path d="M1974 1666 c-3 -8 -4 -25 -2 -38 2 -19 9 -23 38 -23 33 0 35 2 35 35 0 32 -3 35 -33 38 -21 2 -34 -2 -38 -12z"/>
 <path d="M1012 1585 c-15 -11 -23 -12 -28 -4 -5 9 -11 7 -19 -5 -12 -15 -13 -15 -20 1 -6 17 -7 17 -19 0 -12 -15 -15 -15 -26 -2 -15 18 -51 20 -68 3 -7 -7 -12 -25 -12 -40 0 -23 -4 -28 -25 -28 -20 0 -25 5 -25 25 0 18 5 25 19 25 11 0 23 5 26 10 10 16 -24 24 -51 12 -19 -9 -24 -19 -24 -46 0 -42 32 -68 68 -55 15 6 31 5 44 -2 17 -9 24 -7 41 10 19 18 22 19 32 4 14 -19 33 -10 45 21 8 20 8 20 19 -7 14 -37 35 -30 41 14 l5 34 17 -43 c11 -28 21 -41 29 -37 6 4 53 7 105 7 93 0 126 10 83 26 l-23 9 23 6 c24 6 21 27 -3 27 -8 0 -16 8 -19 19 -4 16 -14 18 -83 17 l-79 -1 -6 -30 -6 -30 -7 27 c-12 40 -28 50 -54 33z m159 -77 c-11 -4 -29 -4 -42 -1 l-23 6 23 9 c24 9 20 28 -7 29 -14 0 -13 2 3 9 15 6 25 2 42 -18 22 -26 22 -27 4 -34z m-283 30 c-2 -13 -10 -23 -18 -23 -8 0 -16 10 -18 23 -3 17 2 22 18 22 16 0 21 -5 18 -22z m332 0 c0 -12 -1 -19 -3 -17 -1 2 -9 12 -16 22 -12 14 -11 17 3 17 10 0 16 -8 16 -22z"/>
 <path d="M236 1583 c-3 -3 -6 -21 -6 -39 0 -20 -6 -34 -16 -38 -34 -13 0 -27 58 -23 49 3 64 8 78 27 l18 24 4 -24 c4 -28 38 -36 56 -13 11 16 13 16 25 0 6 -9 21 -15 32 -13 15 2 21 12 23 39 4 50 30 50 34 1 3 -35 5 -37 42 -41 21 -2 44 1 51 7 9 8 15 8 20 0 12 -19 25 0 25 36 0 23 5 34 15 35 31 3 35 4 35 14 0 6 -25 11 -56 11 -47 1 -57 -2 -63 -19 -7 -20 -8 -20 -14 3 -5 19 -9 21 -21 11 -10 -8 -16 -9 -21 -1 -8 14 -48 13 -63 -2 -7 -7 -12 -26 -12 -42 0 -29 -1 -29 -14 -11 -7 11 -15 29 -17 40 -6 29 -22 21 -33 -17 l-10 -33 -5 34 c-8 44 -27 51 -43 15 l-13 -27 -5 24 c-4 17 -13 23 -30 23 -22 1 -25 -5 -28 -37 -4 -47 -22 -49 -22 -3 0 34 -11 52 -24 39z m411 -45 c-3 -8 -6 -5 -6 6 -1 11 2 17 5 13 3 -3 4 -12 1 -19z m-30 -25 c-4 -3 -10 -3 -14 0 -3 4 0 7 7 7 7 0 10 -3 7 -7z"/>
 <path d="M1287 1584 c-9 -10 42 -106 53 -99 5 3 15 25 22 48 l13 42 5 -45 c6 -51 27 -60 47 -20 l12 24 9 -25 c8 -21 17 -25 55 -27 51 -2 71 13 35 27 -16 7 -18 10 -6 10 27 1 32 22 7 28 l-23 6 23 9 c12 4 19 13 16 18 -7 11 -72 9 -92 -3 -6 -4 -15 -2 -19 4 -5 9 -11 7 -19 -5 -10 -13 -14 -14 -18 -3 -6 16 -39 16 -60 -1 -11 -10 -17 -9 -27 3 -13 16 -23 19 -33 9z"/>
 <path d="M3092 1545 c-35 -19 -81 -66 -97 -99 -18 -36 -19 -99 -2 -129 20 -36 70 -87 101 -102 36 -18 103 -19 119 -2 8 8 13 65 15 164 3 126 1 155 -11 168 -19 18 -92 18 -125 0z m77 -164 c38 -54 22 -91 -39 -91 -20 0 -41 5 -48 12 -16 16 -16 80 0 96 22 22 65 14 87 -17z m-152 2 c-4 -3 -7 0 -7 7 0 7 3 10 7 7 3 -4 3 -10 0 -14z"/>
 <path d="M1974 1476 c-3 -8 -4 -25 -2 -38 2 -19 9 -23 38 -23 33 0 35 2 35 35 0 32 -3 35 -33 38 -21 2 -34 -2 -38 -12z"/>
 <path d="M207 1444 c-9 -9 42 -106 52 -99 12 7 41 92 33 99 -3 3 -13 -1 -22 -9 -15 -14 -18 -14 -30 0 -13 16 -23 19 -33 9z"/>
 <path d="M311 1436 c-14 -17 -11 -91 4 -91 6 0 11 17 13 38 2 23 8 37 17 37 9 0 15 -14 17 -37 l3 -38 61 -1 c33 0 66 -4 73 -8 17 -11 61 32 61 59 0 43 -60 71 -88 43 -7 -7 -12 -25 -12 -40 0 -40 -18 -34 -22 7 -2 20 -7 35 -13 35 -5 0 -11 -15 -13 -35 -4 -41 -22 -47 -22 -7 0 15 -5 33 -12 40 -16 16 -53 15 -67 -2z m217 -38 c-2 -13 -10 -23 -18 -23 -8 0 -16 10 -18 23 -3 17 2 22 18 22 16 0 21 -5 18 -22z"/>
 <path d="M584 1437 c-3 -8 -4 -32 -2 -53 2 -32 7 -40 27 -42 34 -5 51 15 21 26 l-24 9 22 5 c15 4 22 2 22 -8 0 -7 11 -21 25 -30 25 -16 27 -16 49 5 21 19 24 20 30 6 10 -26 26 -7 26 31 0 49 28 46 32 -3 4 -49 22 -49 26 -2 2 27 8 38 24 42 37 10 8 26 -48 26 -39 0 -57 -5 -61 -15 -5 -13 -8 -13 -23 1 -23 21 -62 16 -75 -10 -11 -22 -45 -22 -45 0 0 20 -19 29 -26 12z m134 -39 c-2 -13 -10 -23 -18 -23 -8 0 -16 10 -18 23 -3 17 2 22 18 22 16 0 21 -5 18 -22z"/>
 <path d="M892 1438 c-7 -7 -12 -27 -12 -45 0 -40 40 -74 65 -53 8 6 19 9 24 6 6 -4 15 4 22 16 l12 22 8 -22 c10 -26 24 -28 37 -6 8 14 10 14 15 1 4 -11 20 -14 64 -13 l58 2 0 44 c0 25 -5 45 -10 45 -5 0 -8 -7 -7 -15 2 -8 -4 -5 -13 8 -17 23 -49 30 -60 12 -3 -6 3 -14 14 -18 21 -7 21 -7 1 -20 -18 -11 -21 -9 -30 12 -12 33 -27 40 -39 19 -11 -17 -12 -17 -22 0 -10 17 -12 17 -28 2 -16 -14 -19 -14 -31 0 -15 18 -51 20 -68 3z m56 -40 c-2 -13 -10 -23 -18 -23 -8 0 -16 10 -18 23 -3 17 2 22 18 22 16 0 21 -5 18 -22z m212 -17 c0 -14 -5 -18 -20 -14 -19 5 -20 6 -3 19 23 17 23 17 23 -5z"/>
 <path d="M236 1303 c-3 -3 -6 -21 -6 -39 0 -20 -6 -34 -16 -38 -26 -10 -5 -26 35 -26 22 0 44 6 51 15 11 13 14 13 26 -2 13 -17 15 -17 28 0 12 16 14 16 20 1 4 -10 12 -14 22 -10 8 3 25 1 36 -5 16 -9 24 -6 44 12 29 27 31 60 5 83 -26 23 -63 17 -78 -14 -8 -16 -13 -19 -13 -9 0 9 -6 22 -14 28 -11 10 -17 8 -25 -6 -11 -17 -11 -17 -22 0 -14 24 -35 7 -44 -34 -9 -40 -25 -37 -25 5 0 34 -11 52 -24 39z m232 -45 c-2 -13 -10 -23 -18 -23 -8 0 -16 10 -18 23 -3 17 2 22 18 22 16 0 21 -5 18 -22z"/>
 <path d="M524 1296 c-3 -8 -4 -31 -2 -52 3 -37 5 -39 38 -39 27 0 37 6 49 26 13 24 13 29 -2 53 -19 29 -73 37 -83 12z m60 -25 c9 -14 -4 -41 -20 -41 -8 0 -14 10 -14 25 0 25 23 35 34 16z"/>
 <path d="M617 1304 c-9 -9 42 -106 52 -99 12 7 41 92 33 99 -3 3 -13 -1 -22 -9 -15 -14 -18 -14 -30 0 -13 16 -23 19 -33 9z"/>
 <path d="M724 1293 c-3 -10 -12 -32 -19 -50 -17 -38 -1 -58 22 -27 13 17 15 17 23 3 7 -13 23 -16 67 -15 l58 2 0 44 c0 25 -5 45 -10 45 -6 0 -9 -6 -7 -15 2 -8 -4 -5 -13 8 -17 23 -49 29 -60 11 -4 -6 2 -13 13 -16 19 -5 19 -5 -2 -26 -18 -19 -23 -20 -33 -7 -7 8 -13 23 -13 32 0 24 -19 32 -26 11z m126 -52 c0 -14 -5 -18 -20 -14 -19 5 -20 6 -3 19 23 17 23 17 23 -5z"/>
 <path d="M916 1303 c-10 -10 -7 -91 4 -98 5 -3 17 7 27 21 l17 27 6 -24 c5 -21 12 -24 55 -25 40 -2 53 2 68 20 l17 21 18 -21 c13 -17 29 -21 78 -22 72 -2 82 6 80 62 -2 45 -22 59 -34 25 -8 -22 -9 -22 -14 -2 -4 16 -13 20 -44 19 -35 -1 -39 -4 -42 -30 l-4 -29 -19 33 c-16 26 -22 30 -34 20 -8 -7 -15 -19 -15 -27 0 -10 -6 -13 -16 -9 -9 3 -21 6 -27 7 -7 0 -2 4 11 10 36 14 16 29 -35 26 -36 -2 -48 -8 -59 -27 -13 -24 -13 -24 -14 -3 0 23 -13 37 -24 26z m291 -29 c-3 -3 -12 -4 -19 -1 -8 3 -5 6 6 6 11 1 17 -2 13 -5z m-137 -34 c0 -5 -10 -10 -22 -9 -22 0 -22 1 -3 9 11 5 21 9 23 9 1 1 2 -3 2 -9z m137 -6 c-3 -3 -12 -4 -19 -1 -8 3 -5 6 6 6 11 1 17 -2 13 -5z m50 -1 c-4 -3 -10 -3 -14 0 -3 4 0 7 7 7 7 0 10 -3 7 -7z"/>
 <path d="M1324 1296 c-3 -8 -4 -31 -2 -52 3 -34 6 -39 31 -42 16 -2 34 2 42 8 9 8 15 8 20 0 12 -20 25 2 25 44 0 48 -7 61 -26 45 -8 -7 -14 -7 -19 1 -9 15 -65 12 -71 -4z m60 -25 c9 -14 -4 -41 -20 -41 -8 0 -14 10 -14 25 0 25 23 35 34 16z"/>
 <path d="M1454 1295 c-3 -7 -4 -30 -2 -51 l3 -39 75 0 75 0 0 45 c0 25 -5 45 -10 45 -6 0 -9 -6 -7 -15 2 -9 -3 -6 -12 7 -13 17 -26 21 -66 21 -34 1 -53 -4 -56 -13z m84 -26 c-8 -4 -25 -5 -38 -2 -22 6 -22 7 -5 13 11 4 28 5 38 2 16 -4 17 -6 5 -13z m42 -28 c0 -14 -5 -18 -20 -14 -19 5 -20 6 -3 19 23 17 23 17 23 -5z m-73 -7 c-3 -3 -12 -4 -19 -1 -8 3 -5 6 6 6 11 1 17 -2 13 -5z"/>
 <path d="M2034 1166 c-3 -8 -4 -25 -2 -38 2 -19 9 -23 38 -23 33 0 35 2 35 35 0 32 -3 35 -33 38 -21 2 -34 -2 -38 -12z"/>
 <path d="M214 1156 c-3 -8 -4 -31 -2 -52 3 -34 6 -39 31 -42 17 -2 29 2 33 12 5 13 10 12 35 -6 21 -16 32 -19 40 -11 6 6 26 9 45 6 18 -3 41 -2 51 1 17 7 17 8 1 20 -9 7 -18 28 -20 47 -4 45 -21 40 -29 -8 -4 -27 -7 -31 -8 -12 -2 47 -59 77 -89 47 -9 -9 -15 -9 -24 0 -16 16 -57 15 -64 -2z m43 -23 c-4 -3 -10 -3 -14 0 -3 4 0 7 7 7 7 0 10 -3 7 -7z m101 -15 c-2 -13 -10 -23 -18 -23 -8 0 -16 10 -18 23 -3 17 2 22 18 22 16 0 21 -5 18 -22z m-71 -15 c-4 -3 -7 0 -7 7 0 7 3 10 7 7 3 -4 3 -10 0 -14z"/>
 <path d="M456 1161 c-4 -5 -2 -12 3 -15 5 -4 12 -2 15 3 4 5 2 12 -3 15 -5 4 -12 2 -15 -3z"/>
 <path d="M527 1159 c-22 -13 -22 -62 1 -81 12 -11 42 -16 114 -16 93 -1 125 7 94 25 -8 4 -16 24 -18 43 -4 45 -22 45 -26 0 -4 -39 -15 -50 -45 -42 -20 5 -20 5 2 14 24 9 20 28 -7 29 -12 0 -10 3 6 10 13 5 21 13 18 18 -8 12 -117 12 -139 0z m34 -33 c-14 -17 2 -31 24 -22 9 3 15 0 15 -8 0 -11 -7 -12 -27 -7 -32 8 -46 51 -17 51 13 0 14 -3 5 -14z"/>
 <path d="M793 1158 c-16 -21 -33 -79 -26 -91 3 -5 14 0 24 14 15 19 19 21 19 7 0 -25 21 -33 35 -14 11 14 13 14 18 2 8 -20 49 -16 55 6 6 23 30 23 34 1 3 -15 18 -18 95 -20 92 -3 126 8 81 26 -16 7 -18 10 -6 10 27 1 31 20 7 29 l-23 9 25 6 c31 8 12 30 -22 25 -20 -2 -25 -10 -27 -40 -4 -48 -20 -49 -24 -3 -4 46 -22 46 -26 0 -4 -46 -20 -45 -24 2 -2 30 -7 37 -27 38 -16 1 -25 -4 -29 -17 -6 -25 -28 -23 -35 3 -7 26 -27 16 -28 -14 l0 -22 -9 21 c-12 31 -27 37 -39 17 -9 -17 -10 -17 -23 0 -12 15 -16 16 -25 5z"/>
 <path d="M1185 1160 c-4 -7 2 -14 14 -17 20 -5 20 -5 -2 -23 -36 -30 -13 -54 54 -58 69 -3 91 4 67 22 -9 7 -18 28 -20 47 -4 44 -22 44 -26 -1 -4 -39 -15 -50 -43 -43 -17 5 -17 6 4 23 18 15 20 22 11 37 -13 21 -49 29 -59 13z"/>
 <path d="M1317 1164 c-3 -4 5 -29 20 -57 24 -48 26 -50 39 -32 8 10 15 26 15 34 1 9 4 3 8 -14 4 -21 13 -31 29 -33 44 -6 56 25 42 108 0 3 -9 -5 -19 -17 -18 -21 -19 -22 -24 -3 -5 20 -26 21 -50 2 -11 -10 -17 -9 -27 3 -13 16 -23 19 -33 9z m130 -71 c-4 -3 -10 -3 -14 0 -3 4 0 7 7 7 7 0 10 -3 7 -7z"/>
 <path d="M1513 1154 c-2 -6 -3 -29 -1 -50 2 -31 7 -38 26 -39 14 -1 31 8 42 22 l19 24 3 -23 c6 -41 23 -19 23 29 0 54 -19 68 -37 27 -13 -27 -13 -27 -18 -4 -6 26 -48 36 -57 14z"/>
 <path d="M2034 1047 c-3 -8 -4 -41 -2 -73 l3 -59 65 0 65 0 0 35 c0 31 -3 35 -27 38 -22 3 -27 9 -30 35 -3 28 -7 32 -36 35 -21 2 -34 -2 -38 -11z"/>
 <path d="M214 1017 c-3 -8 -4 -32 -2 -53 l3 -39 63 0 c47 0 66 4 72 15 8 13 10 13 22 -2 10 -12 27 -16 68 -15 l55 2 3 38 c4 44 31 51 55 13 15 -22 15 -24 -4 -29 -12 -3 -18 -10 -15 -15 8 -13 197 -12 214 1 8 6 17 6 26 -3 17 -13 62 -10 59 5 -1 6 -12 12 -25 15 -28 7 -39 50 -12 50 13 0 14 -3 4 -15 -10 -12 -9 -16 3 -21 21 -8 37 3 37 26 0 13 5 17 20 13 19 -5 19 -6 -3 -23 -18 -15 -20 -22 -11 -37 14 -22 42 -29 57 -14 9 9 6 13 -10 17 l-22 6 22 18 c18 15 20 22 11 37 -16 26 -160 27 -179 0 -12 -17 -13 -17 -17 1 -5 18 -17 19 -164 19 -90 0 -164 -4 -171 -10 -9 -6 -18 -6 -27 2 -19 16 -31 -3 -17 -26 6 -12 5 -24 -2 -38 -11 -18 -12 -15 -17 25 -5 45 -22 58 -28 21 -2 -13 -9 -17 -23 -14 -10 3 -19 11 -19 19 0 19 -19 28 -26 11z m256 -21 c0 -10 -7 -12 -22 -8 -21 5 -21 6 -2 13 10 4 20 8 22 8 1 1 2 -5 2 -13z m140 -23 l0 -38 -18 30 c-19 30 -17 35 16 44 1 1 2 -16 2 -36z m70 23 c0 -10 -7 -12 -22 -8 -21 5 -21 6 -2 13 10 4 20 8 22 8 1 1 2 -5 2 -13z m-280 -23 c0 -21 -3 -24 -9 -14 -5 8 -7 20 -4 28 8 21 13 15 13 -14z m70 -17 c0 -10 -7 -12 -22 -8 -21 5 -21 6 -2 13 10 4 20 8 22 8 1 1 2 -5 2 -13z m210 0 c0 -10 -7 -12 -22 -8 -21 5 -21 6 -2 13 10 4 20 8 22 8 1 1 2 -5 2 -13z m-423 -3 c-4 -3 -10 -3 -14 0 -3 4 0 7 7 7 7 0 10 -3 7 -7z m470 0 c-4 -3 -10 -3 -14 0 -3 4 0 7 7 7 7 0 10 -3 7 -7z"/>
 <path d="M944 1015 c-8 -21 0 -90 11 -90 6 0 11 16 13 36 2 26 9 38 22 42 16 4 19 -2 22 -37 3 -34 7 -42 27 -44 35 -5 50 15 20 27 -16 7 -19 10 -7 10 27 1 31 20 7 29 -22 9 -22 9 -2 14 17 5 24 -2 39 -34 24 -53 32 -55 49 -16 14 32 14 33 15 6 0 -31 17 -47 26 -23 5 13 9 13 21 3 9 -7 50 -14 94 -15 75 -3 80 -1 96 23 15 24 15 29 2 53 -14 25 -18 26 -103 27 -67 0 -89 -3 -93 -14 -5 -11 -7 -11 -14 0 -11 17 -30 18 -50 1 -14 -11 -18 -11 -27 0 -16 19 -161 21 -168 2z m296 -42 c0 -34 -1 -35 -14 -18 -10 15 -11 23 -2 37 15 25 16 23 16 -19z m70 23 c0 -10 -7 -12 -22 -8 -21 5 -21 6 -2 13 10 4 20 8 22 8 1 1 2 -5 2 -13z m63 -8 c6 -19 -3 -38 -19 -38 -8 0 -14 10 -14 25 0 26 25 35 33 13z m-63 -32 c0 -10 -7 -12 -22 -8 -21 5 -21 6 -2 13 10 4 20 8 22 8 1 1 2 -5 2 -13z"/>
 <path d="M2224 976 c-3 -8 -4 -25 -2 -38 2 -19 9 -23 38 -23 33 0 35 2 35 35 0 32 -3 35 -33 38 -21 2 -34 -2 -38 -12z"/>
 <path d="M2534 916 c-3 -8 -4 -25 -2 -38 2 -19 9 -23 38 -23 33 0 35 2 35 35 0 32 -3 35 -33 38 -21 2 -34 -2 -38 -12z"/>
 <path d="M2724 916 c-3 -8 -4 -25 -2 -38 2 -19 9 -23 38 -23 33 0 35 2 35 35 0 32 -3 35 -33 38 -21 2 -34 -2 -38 -12z"/>
 <path d="M3034 916 c-3 -8 -4 -25 -2 -38 2 -19 9 -23 38 -23 33 0 35 2 35 35 0 32 -3 35 -33 38 -21 2 -34 -2 -38 -12z"/>
 <path d="M2415 797 c-3 -7 -4 -67 -3 -133 l3 -119 35 0 c31 0 35 3 38 27 3 25 7 27 60 30 l57 3 0 65 c0 63 -1 65 -27 68 -22 3 -27 9 -30 35 -3 32 -3 32 -66 35 -45 2 -64 -1 -67 -11z"/>
 <path d="M2915 797 c-3 -7 -4 -67 -3 -133 l3 -119 35 0 c31 0 35 3 38 27 3 25 7 27 60 30 l57 3 0 65 c0 63 -1 65 -27 68 -22 3 -27 9 -30 35 -3 32 -3 32 -66 35 -45 2 -64 -1 -67 -11z"/>
 <path d="M2654 727 c-3 -8 -4 -39 -2 -68 3 -53 4 -54 35 -57 26 -3 32 -8 35 -30 3 -26 5 -27 68 -27 l65 0 0 95 0 95 -98 3 c-76 2 -99 0 -103 -11z"/>
 <path d="M3154 726 c-3 -7 -4 -38 -2 -67 l3 -54 38 -3 37 -3 0 70 0 71 -35 0 c-21 0 -38 -6 -41 -14z"/>
 <path d="M2537 554 c-4 -4 -7 -20 -7 -35 0 -27 -2 -28 -57 -31 l-58 -3 0 -35 c0 -31 3 -35 27 -38 21 -3 27 -9 30 -30 3 -26 5 -27 68 -27 63 0 65 1 68 28 2 19 9 27 22 27 16 0 19 -9 22 -57 l3 -58 127 -3 127 -3 3 -122 3 -122 28 -3 c19 -2 27 -9 27 -23 0 -17 8 -19 100 -19 82 0 100 3 100 15 0 8 5 15 10 15 6 0 10 -7 10 -15 0 -8 5 -15 10 -15 6 0 10 9 10 20 0 11 5 20 10 20 6 0 10 72 10 195 l0 195 -30 0 c-29 0 -29 1 -32 63 l-3 62 -65 0 -65 0 -3 -32 c-3 -32 -4 -32 -60 -35 -54 -3 -57 -5 -60 -30 -3 -22 -9 -28 -27 -28 -18 0 -24 6 -27 28 -3 26 -5 27 -68 27 -63 0 -65 -1 -68 -27 -3 -22 -9 -28 -27 -28 -22 0 -24 4 -27 63 l-3 62 -60 3 c-34 2 -64 0 -68 -4z m613 -194 l0 -50 -110 0 c-103 0 -110 1 -110 20 0 17 8 19 88 22 87 3 87 3 90 31 2 19 9 27 23 27 16 0 19 -7 19 -50z m0 -238 c0 -48 -14 -62 -62 -62 l-38 0 0 50 0 50 50 0 50 0 0 -38z"/>
 <path d="M2415 297 c-3 -7 -4 -67 -3 -133 l3 -119 35 0 c31 0 35 3 38 27 3 25 7 27 60 30 l57 3 0 65 c0 63 -1 65 -27 68 -22 3 -27 9 -30 35 -3 32 -3 32 -66 35 -45 2 -64 -1 -67 -11z"/>
 <path d="M2654 227 c-3 -8 -4 -39 -2 -68 3 -53 4 -54 35 -57 26 -3 32 -8 35 -30 3 -26 5 -27 68 -27 l65 0 0 95 0 95 -98 3 c-76 2 -99 0 -103 -11z"/>
 <path d="M2537 54 c-4 -4 -7 -18 -7 -31 0 -22 3 -23 71 -23 l70 0 -3 28 c-3 26 -6 27 -63 30 -34 2 -64 0 -68 -4z"/>
 </g>

<g fill="#27211f" stroke="none">
 <path d="M772 2993 c3 -26 7 -28 53 -33 35 -4 42 -7 25 -10 -16 -3 -26 -13 -28 -27 -2 -14 -11 -23 -25 -25 -18 -2 -22 -9 -22 -43 0 -34 4 -41 22 -43 16 -2 23 -11 25 -35 4 -47 23 -34 23 16 0 36 -3 42 -22 45 -13 2 -23 10 -23 17 0 7 10 15 23 17 14 2 23 11 25 25 2 14 11 23 25 25 30 4 32 61 3 66 -11 2 -26 10 -34 18 -7 8 -27 14 -43 14 -27 0 -30 -3 -27 -27z"/>
 <path d="M1080 3006 c0 -8 -10 -16 -22 -18 -18 -2 -23 -10 -23 -33 0 -23 5 -31 23 -33 16 -3 22 -10 23 -30 2 -53 4 -62 14 -64 6 -2 10 22 10 57 0 56 -2 60 -25 65 -17 3 -10 6 25 10 46 5 50 7 53 33 3 26 1 27 -37 27 -29 0 -41 -4 -41 -14z"/>
 <path d="M1842 2958 c3 -57 5 -63 28 -69 23 -7 23 -7 -7 -8 -26 -1 -32 3 -35 22 -3 19 -9 22 -43 22 l-40 0 0 -92 c0 -118 19 -130 23 -15 2 62 6 82 17 82 7 0 15 -10 17 -22 3 -21 9 -23 58 -23 54 0 55 0 55 30 0 24 -5 31 -23 33 -22 3 -24 8 -20 53 2 42 0 49 -15 49 -16 0 -18 -8 -15 -62z"/>
 <path d="M2112 2998 c2 -13 10 -23 18 -23 8 0 16 10 18 23 3 17 -2 22 -18 22 -16 0 -21 -5 -18 -22z"/>
 <path d="M1975 2980 c-3 -5 0 -13 9 -16 21 -8 71 -1 71 11 0 14 -72 19 -80 5z"/>
 <path d="M1197 2813 c-10 -9 -9 -51 2 -57 12 -8 54 41 46 53 -7 12 -38 15 -48 4z"/>
 <path d="M1804 2807 c-8 -22 -1 -67 11 -70 6 -1 12 12 14 28 l4 30 6 -30 c8 -42 26 -33 26 13 0 33 -3 37 -28 40 -17 2 -29 -2 -33 -11z"/>
 <path d="M1391 2776 c-9 -10 -9 -16 -1 -21 17 -10 37 12 24 25 -8 8 -15 6 -23 -4z"/>
 <path d="M786 2741 c-4 -5 -2 -12 3 -15 5 -4 12 -2 15 3 4 5 2 12 -3 15 -5 4 -12 2 -15 -3z"/>
 <path d="M720 2711 c-6 -12 -6 -22 -1 -26 6 -3 15 3 21 14 6 12 6 22 1 26 -6 3 -15 -3 -21 -14z"/>
 <path d="M1156 2721 c-4 -5 -2 -12 3 -15 5 -4 12 -2 15 3 4 5 2 12 -3 15 -5 4 -12 2 -15 -3z"/>
 <path d="M1364 2716 c-4 -10 -2 -22 4 -28 8 -8 13 -7 18 6 4 10 2 22 -4 28 -8 8 -13 7 -18 -6z"/>
 <path d="M748 2693 c-7 -14 -3 -33 6 -33 12 -1 17 28 6 35 -5 3 -10 2 -12 -2z"/>
 <path d="M785 2680 c-8 -13 20 -24 41 -16 20 8 9 26 -16 26 -10 0 -22 -5 -25 -10z"/>
 <path d="M1407 2683 c-10 -10 -8 -51 2 -58 5 -3 13 -1 16 5 4 6 15 8 25 5 22 -7 64 30 54 47 -5 7 -11 6 -19 -5 -15 -21 -33 -22 -55 -2 -9 8 -20 12 -23 8z"/>
 <path d="M1597 2684 c-11 -11 -8 -52 3 -59 10 -6 17 5 22 39 3 19 -13 32 -25 20z"/>
 <path d="M1516 2672 c-3 -6 1 -15 8 -21 8 -7 17 -8 20 -3 3 6 -1 15 -8 21 -8 7 -17 8 -20 3z"/>
 <path d="M1661 2661 c-14 -11 -19 -21 -13 -25 5 -3 20 2 33 12 29 24 11 36 -20 13z"/>
 <path d="M1745 2670 c-10 -17 2 -26 37 -25 35 0 47 20 13 21 -11 0 -26 3 -32 7 -6 4 -14 3 -18 -3z"/>
 <path d="M1844 2668 c-6 -10 2 -22 17 -24 5 -1 14 -2 19 -3 6 0 10 -10 10 -20 0 -11 5 -23 10 -26 19 -11 28 4 21 37 -5 26 -13 34 -39 39 -18 4 -35 2 -38 -3z"/>
 <path d="M1126 2641 c-4 -5 -2 -12 3 -15 5 -4 12 -2 15 3 4 5 2 12 -3 15 -5 4 -12 2 -15 -3z"/>
 <path d="M1556 2641 c-4 -5 -2 -12 3 -15 5 -4 12 -2 15 3 4 5 2 12 -3 15 -5 4 -12 2 -15 -3z"/>
 <path d="M1346 2631 c-4 -5 -2 -12 3 -15 5 -4 12 -2 15 3 4 5 2 12 -3 15 -5 4 -12 2 -15 -3z"/>
 <path d="M1105 2610 c-4 -6 -3 -16 3 -22 6 -6 12 -6 17 2 4 6 3 16 -3 22 -6 6 -12 6 -17 -2z"/>
 <path d="M1274 2606 c-4 -10 -2 -22 4 -28 8 -8 13 -7 18 6 4 10 2 22 -4 28 -8 8 -13 7 -18 -6z"/>
 <path d="M724 2587 c-3 -8 -3 -27 -1 -43 3 -21 9 -29 24 -29 12 0 20 5 19 10 0 6 -4 9 -8 8 -5 -2 -8 6 -8 16 0 13 8 21 23 23 33 5 27 23 -11 26 -21 2 -34 -2 -38 -11z"/>
 <path d="M1356 2591 c-4 -5 -2 -12 3 -15 5 -4 12 -2 15 3 4 5 2 12 -3 15 -5 4 -12 2 -15 -3z"/>
 <path d="M1305 2580 c-10 -17 12 -37 25 -24 8 8 6 15 -4 23 -10 9 -16 9 -21 1z"/>
 <path d="M1329 2545 c-1 -5 0 -20 1 -32 1 -17 -4 -23 -20 -23 -24 0 -35 -22 -25 -47 6 -16 8 -16 18 -2 7 9 22 21 35 28 12 6 22 20 22 29 0 20 -29 63 -31 47z"/>
 <path d="M585 2531 c-6 -11 1 -15 18 -12 5 1 5 -4 1 -11 -16 -26 -10 -49 21 -73 18 -13 35 -21 38 -18 10 9 -12 43 -28 43 -20 0 -29 19 -16 34 8 10 6 17 -8 30 -12 11 -21 14 -26 7z"/>
 <path d="M1565 2531 c-3 -6 1 -14 9 -17 9 -3 16 -15 16 -25 0 -11 8 -22 18 -25 9 -3 25 -10 34 -15 11 -5 19 -5 23 2 11 17 -3 39 -24 39 -13 0 -21 8 -23 23 -3 24 -41 36 -53 18z"/>
 <path d="M1146 2511 c-4 -5 -2 -12 3 -15 5 -4 12 -2 15 3 4 5 2 12 -3 15 -5 4 -12 2 -15 -3z"/>
 <path d="M1241 2506 c-9 -10 -9 -16 -1 -21 17 -10 37 12 24 25 -8 8 -15 6 -23 -4z"/>
 <path d="M724 2491 c-3 -3 -18 -6 -32 -6 -35 -1 -37 -29 -2 -30 14 0 31 -4 38 -8 8 -6 15 -1 20 13 4 12 11 21 15 21 4 -1 6 2 5 6 -4 9 -36 12 -44 4z"/>
 <path d="M2005 2479 c-11 -16 53 -71 77 -67 36 5 36 45 1 60 -38 16 -71 19 -78 7z"/>
 <path d="M1035 2441 c-7 -13 17 -24 40 -19 9 1 16 8 16 13 0 14 -48 19 -56 6z"/>
 <path d="M1137 2424 c-4 -4 -7 -58 -7 -121 0 -92 -3 -113 -15 -113 -11 0 -15 20 -17 98 l-3 97 -30 0 -30 0 -3 -70 c-2 -44 -8 -76 -18 -86 -19 -21 -7 -30 24 -18 20 7 22 16 24 81 2 69 2 68 7 -27 l6 -100 40 0 40 0 3 124 c2 114 -3 152 -21 135z"/>
 <path d="M644 2377 c-2 -7 -3 -94 -2 -192 2 -142 6 -180 16 -180 11 0 14 35 12 177 0 114 3 179 10 183 6 3 8 11 5 16 -9 13 -35 11 -41 -4z"/>
 <path d="M824 2196 c-8 -21 3 -36 26 -36 30 0 32 16 5 34 -22 15 -26 15 -31 2z"/>
 <path d="M985 2190 c-4 -6 -3 -16 3 -22 6 -6 12 -6 17 2 4 6 3 16 -3 22 -6 6 -12 6 -17 -2z"/>
 <path d="M2094 2095 c-9 -23 9 -37 42 -33 21 2 29 8 29 23 0 26 -62 35 -71 10z"/>
 <path d="M3074 1459 c-10 -17 13 -36 27 -22 12 12 4 33 -11 33 -5 0 -12 -5 -16 -11z"/>
 <path d="M3195 1439 c-4 -6 2 -19 14 -30 16 -15 21 -16 21 -5 0 37 -21 58 -35 35z"/>
 <path d="M3025 1410 c-15 -16 -16 -23 -6 -33 9 -9 16 -7 31 13 29 39 8 56 -25 20z"/>
 <path d="M3223 1300 c0 -30 2 -43 4 -27 2 15 2 39 0 55 -2 15 -4 2 -4 -28z"/>
 <path d="M2534 796 c-3 -8 -4 -27 -2 -43 2 -22 9 -29 31 -31 25 -3 27 -6 27 -52 l0 -49 -57 -3 c-55 -3 -58 -5 -61 -30 -3 -21 -9 -27 -30 -30 -24 -3 -27 -7 -27 -43 l0 -40 65 0 65 0 3 33 c3 31 4 32 53 32 l49 0 0 -54 c0 -52 -1 -55 -27 -58 -22 -2 -29 -9 -31 -30 -3 -26 -6 -28 -52 -28 -46 0 -49 2 -52 28 -3 24 -7 27 -38 27 l-35 0 0 -65 0 -65 57 -3 c56 -3 57 -3 60 -35 2 -27 8 -33 31 -35 25 -3 27 -6 27 -52 l0 -49 -57 -3 c-55 -3 -58 -5 -61 -30 -3 -21 -9 -27 -30 -30 -21 -2 -28 -9 -30 -31 l-3 -27 70 0 c64 0 71 2 71 20 0 17 7 20 50 20 43 0 50 -3 50 -20 0 -19 7 -20 171 -20 l170 0 -3 28 c-2 21 -9 28 -30 30 l-28 3 0 114 0 114 118 3 117 3 3 58 c3 56 4 57 32 57 l30 0 0 105 0 105 -30 0 c-29 0 -30 1 -30 50 0 49 1 50 30 50 29 0 30 2 30 45 l0 46 -97 -3 -98 -3 0 -40 c0 -36 3 -40 28 -43 25 -3 27 -6 27 -52 l0 -49 -57 -3 c-55 -3 -58 -4 -61 -30 -2 -20 -9 -28 -22 -28 -18 0 -20 10 -22 123 l-3 122 -193 3 c-160 2 -193 0 -198 -12z m306 -156 l0 -80 -49 0 c-47 0 -50 2 -53 28 -2 22 -8 28 -35 30 -32 3 -33 4 -33 53 l0 49 85 0 85 0 0 -80z m310 -154 c0 -52 -1 -55 -27 -58 -22 -2 -29 -9 -31 -30 -3 -27 -4 -27 -90 -30 -87 -3 -87 -3 -90 -30 l-3 -28 -120 0 -119 0 0 49 c0 49 1 50 33 53 27 2 33 8 35 31 3 25 6 27 52 27 46 0 49 -2 52 -27 3 -25 7 -28 43 -28 36 0 40 3 43 27 3 25 7 27 60 30 56 3 57 3 60 36 3 31 4 32 53 32 l49 0 0 -54z m-310 -346 l0 -80 -49 0 c-47 0 -50 2 -53 28 -2 22 -8 28 -35 30 -32 3 -33 4 -33 53 l0 49 85 0 85 0 0 -80z"/>
 <path d="M3034 167 c-3 -8 -4 -39 -2 -68 l3 -54 43 -3 c24 -2 49 1 56 7 9 7 16 7 23 0 15 -15 37 -1 24 15 -5 6 -11 34 -13 61 l-3 50 -63 3 c-47 2 -64 -1 -68 -11z"/>
 <path d="M3207 53 c-13 -13 -7 -53 8 -53 10 0 15 10 15 30 0 29 -9 38 -23 23z"/>
 </g>

<g fill="#dbdbe5" stroke="none">
 <path d="M990 2900 c0 -17 -7 -20 -50 -20 -47 0 -50 -2 -50 -25 0 -20 5 -25 25 -25 23 0 25 -3 25 -50 l0 -50 50 0 c47 0 50 2 50 25 0 20 -5 25 -25 25 -20 0 -25 5 -25 25 0 20 5 25 25 25 23 0 25 4 25 45 0 41 -2 45 -25 45 -18 0 -25 -5 -25 -20z"/>
 <path d="M2110 2875 c0 -9 9 -15 25 -15 16 0 25 6 25 15 0 9 -9 15 -25 15 -16 0 -25 -6 -25 -15z"/>
 <path d="M1760 2835 c0 -20 5 -25 25 -25 20 0 25 5 25 25 0 20 -5 25 -25 25 -20 0 -25 -5 -25 -25z"/>
 <path d="M1960 2795 c0 -9 9 -15 25 -15 16 0 25 6 25 15 0 9 -9 15 -25 15 -16 0 -25 -6 -25 -15z"/>
 <path d="M1140 2755 c0 -20 5 -25 25 -25 20 0 25 5 25 25 0 20 -5 25 -25 25 -20 0 -25 -5 -25 -25z"/>
 <path d="M700 2730 c0 -5 9 -10 20 -10 11 0 20 5 20 10 0 6 -9 10 -20 10 -11 0 -20 -4 -20 -10z"/>
 <path d="M1437 2723 c-14 -13 -6 -32 16 -39 l22 -8 -25 -6 c-21 -6 -23 -8 -7 -15 30 -13 47 2 47 40 0 30 -3 35 -23 35 -13 0 -27 -3 -30 -7z m30 -20 c-4 -3 -10 -3 -14 0 -3 4 0 7 7 7 7 0 10 -3 7 -7z"/>
 <path d="M1527 2723 c-22 -21 8 -84 33 -68 6 3 10 -3 10 -14 0 -12 7 -21 15 -21 12 0 15 13 15 55 l0 55 -33 0 c-19 0 -37 -3 -40 -7z m43 -34 c0 -24 -23 -21 -28 4 -2 10 3 17 12 17 10 0 16 -9 16 -21z"/>
 <path d="M1627 2723 c-4 -3 -7 -19 -7 -34 0 -32 32 -48 55 -29 24 20 18 40 -12 41 -21 1 -23 2 -8 6 35 9 41 23 9 23 -17 0 -34 -3 -37 -7z m30 -50 c-4 -3 -10 -3 -14 0 -3 4 0 7 7 7 7 0 10 -3 7 -7z"/>
 <path d="M714 2685 c-15 -11 -17 -17 -8 -32 14 -23 44 -29 44 -9 0 9 -3 15 -7 15 -20 -3 -24 2 -13 16 18 21 8 28 -16 10z"/>
 <path d="M1200 2680 c0 -13 11 -13 30 0 12 8 11 10 -7 10 -13 0 -23 -4 -23 -10z"/>
 <path d="M593 2523 c-20 -7 -16 -68 5 -86 20 -19 48 -22 57 -8 3 5 -4 11 -16 13 -48 7 -51 68 -4 68 14 0 25 5 25 10 0 10 -45 12 -67 3z"/>
 <path d="M1916 2455 l-36 -55 -308 0 c-226 0 -311 -3 -320 -12 -8 -8 -12 -50 -12 -123 0 -96 3 -114 18 -128 17 -16 81 -17 709 -17 656 0 691 1 706 18 14 15 17 40 17 128 0 72 -4 114 -12 122 -9 9 -95 12 -325 12 l-313 0 -36 55 c-20 30 -40 55 -44 55 -4 0 -24 -25 -44 -55z m-556 -191 c7 -20 10 -37 7 -40 -2 -3 -8 7 -11 22 -7 25 -8 26 -21 8 -8 -11 -15 -14 -15 -8 0 5 6 16 12 22 10 10 10 17 -1 35 -13 20 -13 21 2 9 9 -8 21 -29 27 -48z m130 0 c7 -20 9 -38 6 -41 -3 -4 -9 8 -12 26 -5 24 -9 29 -16 19 -7 -9 -8 -8 -4 6 4 10 1 26 -6 35 -12 14 -11 14 4 3 9 -8 22 -29 28 -48z m-50 3 c0 -24 -17 -47 -34 -47 -6 0 -4 5 4 10 13 8 12 12 -8 25 -27 19 -21 35 14 35 18 0 24 -5 24 -23z m117 -44 c-2 -16 -4 -5 -4 22 0 28 2 40 4 28 2 -13 2 -35 0 -50z m76 5 c8 -5 7 -8 -3 -8 -11 -1 -10 -4 4 -15 11 -8 16 -15 11 -15 -24 0 -41 31 -36 67 5 36 6 37 9 8 2 -16 9 -33 15 -37z m50 55 c-31 -6 -29 -21 3 -25 23 -3 24 -5 11 -22 -20 -28 -47 -14 -47 24 0 26 3 30 28 29 23 -2 24 -2 5 -6z m70 0 c-31 -6 -29 -21 3 -25 23 -3 24 -5 11 -22 -20 -28 -47 -14 -47 24 0 26 3 30 28 29 23 -2 24 -2 5 -6z m44 -70 c-2 -16 -4 -3 -4 27 0 30 2 43 4 28 2 -16 2 -40 0 -55z m93 62 c0 -7 -8 -19 -17 -24 -16 -9 -16 -12 -3 -21 11 -7 11 -10 2 -10 -22 0 -27 32 -6 43 17 10 17 11 -1 18 -19 7 -18 8 3 8 13 1 22 -5 22 -14z m78 -11 c2 -11 -4 -27 -13 -34 -20 -17 -45 3 -45 37 0 21 4 24 28 21 18 -2 28 -9 30 -24z m75 -36 c8 -5 7 -8 -3 -8 -11 -1 -10 -4 4 -15 11 -8 16 -15 11 -15 -24 0 -41 31 -36 67 5 36 6 37 9 8 2 -16 9 -33 15 -37z m67 39 c0 -24 -17 -47 -34 -47 -6 0 -4 5 4 10 13 8 12 12 -8 25 -27 19 -21 35 14 35 18 0 24 -5 24 -23z m35 -32 c5 0 12 14 15 30 l6 30 6 -30 c7 -35 6 -37 -27 -40 -23 -3 -25 0 -24 33 1 36 1 36 8 7 3 -16 11 -30 16 -30z m75 37 c0 -10 -6 -27 -14 -38 -13 -17 -13 -15 -3 19 13 41 17 46 17 19z m78 -8 c2 -11 -4 -27 -13 -34 -20 -17 -45 3 -45 37 0 21 4 24 28 21 18 -2 28 -9 30 -24z m82 -9 c0 -19 -4 -35 -10 -35 -5 0 -10 14 -10 30 0 42 -27 40 -33 -2 -4 -32 -4 -32 -5 5 -2 35 0 37 28 37 28 0 30 -3 30 -35z m50 20 c0 -7 -8 -19 -17 -24 -16 -9 -16 -12 -3 -21 11 -7 11 -10 2 -10 -22 0 -27 32 -6 43 17 10 17 11 -1 18 -19 7 -18 8 3 8 13 1 22 -5 22 -14z m100 5 c-33 -23 -50 -30 -50 -22 0 5 10 14 23 20 28 14 47 15 27 2z m75 -35 c0 -35 -3 -40 -25 -42 l-25 -3 25 11 c23 10 24 11 7 24 -15 11 -16 13 -2 19 22 8 18 24 -7 29 -20 5 -20 5 2 4 22 -2 25 -6 25 -42z m-1153 -17 c-7 -7 -12 -8 -12 -2 0 6 3 14 7 17 3 4 9 5 12 2 2 -3 -1 -11 -7 -17z m1078 12 c8 -5 11 -10 5 -10 -5 0 -17 5 -25 10 -8 5 -10 10 -5 10 6 0 17 -5 25 -10z"/>
 <path d="M1400 2270 c0 -5 7 -10 15 -10 8 0 15 5 15 10 0 6 -7 10 -15 10 -8 0 -15 -4 -15 -10z"/>
 <path d="M1665 2240 c4 -6 11 -8 16 -5 14 9 11 15 -7 15 -8 0 -12 -5 -9 -10z"/>
 <path d="M1735 2240 c4 -6 11 -8 16 -5 14 9 11 15 -7 15 -8 0 -12 -5 -9 -10z"/>
 <path d="M1920 2261 c0 -25 19 -38 31 -20 12 19 6 33 -14 37 -11 2 -17 -3 -17 -17z"/>
 <path d="M2070 2270 c0 -5 7 -10 15 -10 8 0 15 5 15 10 0 6 -7 10 -15 10 -8 0 -15 -4 -15 -10z"/>
 <path d="M2250 2261 c0 -25 19 -38 31 -20 12 19 6 33 -14 37 -11 2 -17 -3 -17 -17z"/>
 <path d="M740 2445 c0 -9 9 -15 25 -15 16 0 25 6 25 15 0 9 -9 15 -25 15 -16 0 -25 -6 -25 -15z"/>
 <path d="M1090 2405 c0 -20 5 -25 25 -25 20 0 25 5 25 25 0 20 -5 25 -25 25 -20 0 -25 -5 -25 -25z"/>
 <path d="M790 2330 c0 -47 2 -50 25 -50 20 0 25 5 25 25 0 20 5 25 25 25 20 0 25 -5 25 -25 0 -20 5 -25 25 -25 20 0 25 5 25 25 0 20 5 25 25 25 20 0 25 -5 25 -25 0 -20 5 -25 25 -25 23 0 25 3 25 50 l0 50 -125 0 -125 0 0 -50z"/>
 <path d="M896 2025 l-36 -55 -348 0 c-257 0 -351 -3 -360 -12 -9 -9 -12 -143 -12 -543 0 -503 1 -533 18 -548 17 -16 86 -17 784 -17 728 0 766 1 781 18 15 17 17 69 17 548 0 399 -3 533 -12 542 -9 9 -103 12 -360 12 l-348 0 -36 55 c-20 30 -40 55 -44 55 -4 0 -24 -25 -44 -55z m-643 -172 c-13 -2 -23 -11 -23 -19 0 -8 10 -15 23 -15 l22 -2 -22 -4 c-13 -2 -23 -11 -23 -18 0 -7 10 -16 23 -18 19 -4 18 -4 -5 -6 -27 -1 -28 1 -28 44 0 43 1 45 28 44 23 -2 24 -2 5 -6z m80 0 c-27 -5 -28 -11 -7 -41 24 -35 9 -25 -20 13 l-27 35 38 -1 c23 -1 29 -3 16 -6z m104 -40 c-3 -10 -5 -4 -5 12 0 17 2 24 5 18 2 -7 2 -21 0 -30z m-99 -40 c-10 -2 -26 -2 -35 0 -10 3 -2 5 17 5 19 0 27 -2 18 -5z m-48 -78 c0 -17 -5 -25 -17 -24 -11 0 -13 3 -5 6 20 8 14 33 -8 33 -45 0 -35 -58 11 -71 l24 -7 -26 -1 c-32 -1 -49 16 -49 50 0 29 10 37 48 38 17 1 22 -5 22 -24z m53 18 c-13 -2 -23 -11 -23 -19 0 -8 10 -15 23 -15 l22 -2 -22 -4 c-13 -2 -23 -11 -23 -18 0 -7 10 -16 23 -18 19 -4 18 -4 -5 -6 -27 -1 -28 1 -28 44 0 43 1 45 28 44 23 -2 24 -2 5 -6z m85 -76 c9 -3 -1 -5 -23 -5 -22 0 -32 2 -22 5 12 3 17 16 19 46 l1 42 4 -42 c3 -29 9 -43 21 -46z m93 47 c26 -44 23 -54 -13 -53 -24 1 -27 3 -10 6 27 5 27 4 2 49 -25 43 -4 42 21 -2z m79 17 c14 -27 -4 -74 -28 -69 -12 2 -18 15 -20 46 -3 37 -1 42 17 42 11 0 25 -9 31 -19z m97 2 c4 -11 -1 -22 -15 -31 -27 -17 -28 -29 -4 -35 13 -3 12 -4 -3 -3 -28 1 -33 36 -6 43 28 7 27 30 -1 36 l-23 4 23 2 c13 0 25 -6 29 -16z m71 -66 c9 -3 -1 -5 -23 -5 -22 0 -32 2 -22 5 12 3 17 16 19 46 l1 42 4 -42 c3 -29 9 -43 21 -46z m38 68 c8 -20 24 -19 40 3 12 15 12 15 7 -5 -3 -14 -13 -23 -24 -23 -13 0 -16 -5 -12 -16 5 -13 7 -13 14 -2 5 7 9 9 9 3 0 -5 -4 -16 -8 -22 -5 -9 -15 2 -30 32 -12 25 -17 45 -12 45 6 0 13 -7 16 -15z m90 -25 c8 0 14 6 14 14 0 8 4 18 10 21 7 4 7 -2 0 -19 -6 -17 -6 -26 2 -28 21 -7 -1 -38 -27 -38 -23 0 -25 3 -24 48 1 26 4 37 6 25 2 -13 11 -23 19 -23z m101 23 c4 -11 -1 -22 -15 -31 -27 -17 -28 -29 -4 -35 13 -3 12 -4 -3 -3 -28 1 -33 36 -6 43 28 7 27 30 -1 36 l-23 4 23 2 c13 0 25 -6 29 -16z m86 -24 c22 -2 22 -2 0 -6 -13 -2 -23 -11 -23 -18 0 -7 10 -16 23 -18 19 -4 18 -4 -5 -6 -27 -1 -28 1 -27 47 1 26 4 37 6 25 3 -15 12 -23 26 -24z m105 29 c18 -18 14 -53 -7 -72 -29 -26 -61 -6 -61 38 0 18 3 36 7 39 11 11 48 8 61 -5z m48 -28 c8 0 14 6 14 14 0 8 4 18 10 21 7 4 7 -2 0 -19 -6 -17 -6 -26 2 -28 21 -7 -1 -38 -27 -38 -23 0 -25 3 -24 48 1 26 4 37 6 25 2 -13 11 -23 19 -23z m117 -1 c22 -2 22 -2 0 -6 -13 -2 -23 -11 -23 -18 0 -7 10 -16 23 -18 19 -4 18 -4 -5 -6 -27 -1 -28 1 -27 47 1 26 4 37 6 25 3 -15 12 -23 26 -24z m53 1 c8 0 14 9 14 20 0 11 5 20 10 20 12 0 13 -10 0 -30 -6 -9 -5 -17 2 -21 19 -12 0 -39 -27 -39 -23 0 -25 3 -24 48 1 26 4 37 6 25 2 -13 11 -23 19 -23z m87 33 c-13 -2 -23 -11 -23 -19 0 -8 10 -15 23 -15 l22 -2 -22 -4 c-13 -2 -23 -11 -23 -18 0 -7 10 -16 23 -18 19 -4 18 -4 -5 -6 -27 -1 -28 1 -28 44 0 43 1 45 28 44 23 -2 24 -2 5 -6z m70 0 c-13 -2 -23 -11 -23 -19 0 -8 10 -15 23 -15 l22 -2 -22 -4 c-13 -2 -23 -11 -23 -18 0 -7 10 -16 23 -18 19 -4 18 -4 -5 -6 -27 -1 -28 1 -28 44 0 43 1 45 28 44 23 -2 24 -2 5 -6z m-509 -156 c18 -44 30 -83 23 -77 -8 8 -47 110 -42 110 3 0 11 -15 19 -33z m-786 -60 c9 -3 -1 -5 -23 -5 -22 0 -32 2 -22 5 12 3 17 16 19 46 l1 42 4 -42 c3 -29 9 -43 21 -46z m29 16 c-2 -16 -4 -5 -4 22 0 28 2 40 4 28 2 -13 2 -35 0 -50z m34 25 c2 -20 0 -40 -4 -44 -4 -4 -7 14 -7 41 0 56 7 57 11 3z m57 -5 c-1 -45 -2 -45 -5 -10 l-4 38 -20 -23 -19 -23 17 32 c25 45 33 41 31 -14z m74 -15 c21 -30 14 -39 -8 -10 -13 16 -15 16 -28 0 -21 -28 -28 -21 -11 12 8 16 16 37 16 47 1 15 2 15 6 -2 3 -11 14 -32 25 -47z m94 12 l2 -45 -7 40 c-5 31 -10 40 -26 40 -16 0 -21 -9 -26 -40 l-6 -40 -2 41 c-1 48 5 56 39 52 22 -3 25 -8 26 -48z m50 10 c8 0 14 9 14 20 0 11 5 20 10 20 12 0 13 -10 0 -30 -6 -9 -5 -17 2 -21 19 -12 0 -39 -27 -39 -23 0 -25 3 -24 48 1 26 4 37 6 25 2 -13 11 -23 19 -23z m87 33 c-18 -3 -23 -13 -26 -46 l-4 -42 -1 48 c-2 45 -1 47 26 46 22 -1 23 -2 5 -6z m97 -2 c-19 -5 -25 -13 -25 -36 0 -25 5 -31 30 -35 26 -5 27 -7 9 -12 -30 -8 -54 14 -54 50 0 31 10 41 45 40 15 0 14 -2 -5 -7z m108 -3 c18 -18 14 -53 -7 -72 -29 -26 -61 -6 -61 38 0 18 3 36 7 39 11 11 48 8 61 -5z m62 -23 l18 40 15 -35 15 -35 5 35 c3 30 4 28 5 -12 2 -53 -13 -65 -23 -18 -4 17 -10 30 -15 30 -4 0 -13 -13 -19 -30 -15 -46 -31 -36 -29 18 l1 47 5 -40 4 -40 18 40z m163 28 c-13 -2 -23 -11 -23 -19 0 -8 10 -15 23 -15 l22 -2 -22 -4 c-13 -2 -23 -11 -23 -18 0 -7 10 -16 23 -18 19 -4 18 -4 -5 -6 -27 -1 -28 1 -28 44 0 43 1 45 28 44 23 -2 24 -2 5 -6z m80 0 c-27 -5 -28 -7 -7 -38 24 -37 10 -30 -20 10 l-27 35 38 -1 c23 -1 29 -3 16 -6z m60 -34 c22 -2 22 -2 0 -6 -13 -2 -23 -11 -23 -18 0 -7 10 -16 23 -18 19 -4 18 -4 -5 -6 -27 -1 -28 1 -27 47 1 26 4 37 6 25 3 -15 12 -23 26 -24z m53 26 c8 -20 24 -19 40 3 12 15 12 15 7 -5 -3 -14 -13 -23 -24 -23 -13 0 -16 -5 -12 -16 5 -13 7 -13 14 -2 5 7 9 9 9 3 0 -5 -4 -16 -8 -22 -5 -9 -15 2 -30 32 -12 25 -17 45 -12 45 6 0 13 -7 16 -15z m104 -20 l18 40 15 -35 15 -35 5 35 c3 30 4 28 5 -12 2 -53 -13 -65 -23 -18 -4 17 -10 30 -15 30 -4 0 -13 -13 -19 -30 -15 -46 -31 -36 -29 18 l1 47 5 -40 4 -40 18 40z m113 28 c-13 -2 -23 -11 -23 -19 0 -8 10 -15 23 -15 l22 -2 -22 -4 c-13 -2 -23 -11 -23 -18 0 -7 10 -16 23 -18 19 -4 18 -4 -5 -6 -27 -1 -28 1 -28 44 0 43 1 45 28 44 23 -2 24 -2 5 -6z m-325 -80 c-10 -2 -26 -2 -35 0 -10 3 -2 5 17 5 19 0 27 -2 18 -5z m-972 -68 c8 -20 24 -19 40 3 12 15 12 15 7 -5 -3 -14 -13 -23 -24 -23 -13 0 -16 -5 -12 -16 5 -13 7 -13 14 -2 5 7 9 9 9 3 0 -5 -4 -16 -8 -22 -5 -9 -15 2 -30 32 -12 25 -17 45 -12 45 6 0 13 -7 16 -15z m140 -35 l2 -45 -7 40 c-5 31 -10 40 -26 40 -16 0 -21 -9 -26 -40 l-6 -40 -2 41 c-1 48 5 56 39 52 22 -3 25 -8 26 -48z m72 -33 c9 -3 -1 -5 -23 -5 -22 0 -32 2 -22 5 12 3 17 16 19 46 l1 42 4 -42 c3 -29 9 -43 21 -46z m90 71 c18 -18 14 -53 -7 -72 -29 -26 -61 -6 -61 38 0 18 3 36 7 39 11 11 48 8 61 -5z m85 -29 c22 -2 22 -2 0 -6 -13 -2 -23 -11 -23 -18 0 -7 10 -16 23 -18 19 -4 18 -4 -5 -6 -27 -1 -28 1 -27 47 1 26 4 37 6 25 3 -15 12 -23 26 -24z m105 29 c18 -18 14 -53 -7 -72 -29 -26 -61 -6 -61 38 0 18 3 36 7 39 11 11 48 8 61 -5z m65 5 c-18 -3 -23 -13 -26 -46 l-4 -42 -1 48 c-2 45 -1 47 26 46 22 -1 23 -2 5 -6z m60 0 c-18 -3 -23 -13 -26 -46 l-4 -42 -1 48 c-2 45 -1 47 26 46 22 -1 23 -2 5 -6z m105 -5 c7 -7 12 -23 13 -37 0 -25 1 -24 12 6 16 42 26 50 19 16 -6 -32 -32 -76 -32 -54 0 11 -5 10 -19 -3 -29 -26 -61 -6 -61 38 0 18 3 36 7 39 11 11 48 8 61 -5z m121 -37 c6 -19 9 -37 6 -39 -9 -9 -17 7 -25 48 -9 47 2 42 19 -9z m68 32 c4 -11 -1 -22 -15 -31 -27 -17 -28 -29 -4 -35 13 -3 12 -4 -3 -3 -28 1 -33 36 -6 43 28 7 27 30 -1 36 l-23 4 23 2 c13 0 25 -6 29 -16z m-106 -23 c7 21 8 19 4 -9 -5 -36 -11 -48 -20 -39 -3 2 -7 20 -10 39 -5 32 -5 33 6 9 l12 -25 8 25z m136 -37 c-3 -10 -5 -2 -5 17 0 19 2 27 5 18 2 -10 2 -26 0 -35z m-910 -141 c9 2 21 17 27 35 17 49 27 51 13 2 -13 -43 -14 -44 -57 -46 -25 -1 -37 1 -27 4 12 3 17 16 19 46 l1 42 4 -43 c3 -33 8 -43 20 -40z m122 29 c6 -19 9 -37 6 -39 -8 -9 -13 2 -24 47 -11 49 0 44 18 -8z m89 37 c18 -18 14 -53 -7 -72 -29 -26 -61 -6 -61 38 0 18 3 36 7 39 11 11 48 8 61 -5z m123 -9 c18 -34 -3 -69 -41 -69 -29 0 -30 2 -30 45 0 43 1 45 30 45 20 0 33 -7 41 -21z m45 6 c8 -20 24 -19 40 3 12 15 12 15 7 -5 -3 -14 -13 -23 -24 -23 -13 0 -16 -5 -12 -16 5 -13 7 -13 14 -2 5 7 9 9 9 3 0 -5 -4 -16 -8 -22 -5 -9 -15 2 -30 32 -12 25 -17 45 -12 45 6 0 13 -7 16 -15z m116 -47 c21 -30 14 -39 -8 -10 -13 16 -15 16 -28 0 -21 -28 -28 -21 -11 12 8 16 16 37 16 47 1 15 2 15 6 -2 3 -11 14 -32 25 -47z m75 45 c4 -11 -1 -22 -15 -31 -27 -17 -28 -29 -4 -35 13 -3 12 -4 -3 -3 -28 1 -33 36 -6 43 28 7 27 30 -1 36 l-23 4 23 2 c13 0 25 -6 29 -16z m94 -25 c2 -20 0 -40 -4 -44 -4 -4 -7 14 -7 41 0 56 7 57 11 3z m57 -5 c-1 -45 -2 -45 -5 -10 l-4 38 -20 -23 -19 -23 17 32 c25 45 33 41 31 -14z m55 40 c-13 -2 -23 -11 -23 -19 0 -8 10 -15 23 -15 l22 -2 -22 -4 c-13 -2 -23 -11 -23 -18 0 -7 10 -16 23 -18 19 -4 18 -4 -5 -6 -27 -1 -28 1 -28 44 0 43 1 45 28 44 23 -2 24 -2 5 -6z m56 -41 c-27 -47 -33 -53 -24 -22 17 54 25 71 35 65 5 -3 1 -21 -11 -43z m94 41 c-13 -2 -23 -11 -23 -19 0 -8 10 -15 23 -15 l22 -2 -22 -4 c-13 -2 -23 -11 -23 -18 0 -7 10 -16 23 -18 19 -4 18 -4 -5 -6 -27 -1 -28 1 -28 44 0 43 1 45 28 44 23 -2 24 -2 5 -6z m53 -33 c8 0 14 9 14 20 0 11 5 20 10 20 12 0 13 -10 0 -30 -6 -9 -5 -17 2 -21 19 -12 0 -39 -27 -39 -23 0 -25 3 -24 48 1 26 4 37 6 25 2 -13 11 -23 19 -23z m155 19 c18 -34 -3 -69 -41 -69 -29 0 -30 2 -30 45 0 43 1 45 30 45 20 0 33 -7 41 -21z m26 -46 c-2 -16 -4 -5 -4 22 0 28 2 40 4 28 2 -13 2 -35 0 -50z m66 60 c-13 -2 -23 -11 -23 -19 0 -8 10 -15 23 -15 l22 -2 -22 -4 c-13 -2 -23 -11 -23 -18 0 -7 10 -16 23 -18 19 -4 18 -4 -5 -6 -27 -1 -28 1 -28 44 0 43 1 45 28 44 23 -2 24 -2 5 -6z m74 -10 c4 -11 -1 -22 -15 -31 -27 -17 -28 -29 -4 -35 13 -3 12 -4 -3 -3 -28 1 -33 36 -6 43 28 7 27 30 -1 36 l-23 4 23 2 c13 0 25 -6 29 -16z m-1217 -23 l8 25 1 -25 c0 -14 -4 -32 -9 -40 -9 -13 -11 -13 -20 0 -5 8 -9 26 -9 40 l0 25 11 -25 11 -25 7 25z m517 -37 c-3 -10 -5 -2 -5 17 0 19 2 27 5 18 2 -10 2 -26 0 -35z m283 -7 c0 -6 -7 -1 -15 10 -8 10 -14 26 -14 34 0 16 28 -28 29 -44z m447 7 c-3 -10 -5 -2 -5 17 0 19 2 27 5 18 2 -10 2 -26 0 -35z m-1324 -103 c0 -19 -1 -38 -2 -42 -1 -5 -12 -8 -26 -8 -23 0 -25 4 -25 46 0 44 1 45 28 42 24 -3 27 -7 25 -38z m95 28 c18 -18 14 -53 -7 -72 -29 -26 -61 -6 -61 38 0 18 3 36 7 39 11 11 48 8 61 -5z m70 -71 c9 -3 -1 -5 -23 -5 -22 0 -32 2 -22 5 12 3 17 16 19 46 l1 42 4 -42 c3 -29 9 -43 21 -46z m152 58 c0 -17 -5 -25 -17 -24 -11 0 -13 3 -5 6 20 8 14 33 -8 33 -45 0 -35 -58 11 -71 l24 -7 -25 -1 c-33 -1 -50 16 -50 50 0 29 10 37 48 38 17 1 22 -5 22 -24z m53 18 c-13 -2 -23 -11 -23 -19 0 -8 10 -15 23 -15 l22 -2 -22 -4 c-13 -2 -23 -11 -23 -18 0 -7 10 -16 23 -18 19 -4 18 -4 -5 -6 -27 -1 -28 1 -28 44 0 43 1 45 28 44 23 -2 24 -2 5 -6z m85 -76 c9 -3 -1 -5 -23 -5 -22 0 -32 2 -22 5 12 3 17 16 19 46 l1 42 4 -42 c3 -29 9 -43 21 -46z m74 56 c-3 -16 -11 -37 -19 -48 -14 -19 -15 -19 -8 5 20 67 37 94 27 43z m77 -22 c6 -19 9 -37 6 -39 -9 -9 -17 7 -25 48 -9 47 2 42 19 -9z m56 9 c17 0 25 7 28 23 2 12 4 0 4 -28 0 -27 -2 -40 -4 -27 -3 15 -11 22 -28 22 -17 0 -25 -7 -28 -22 -2 -13 -4 0 -4 27 0 28 2 40 4 28 3 -16 11 -23 28 -23z m62 -27 c-2 -16 -4 -5 -4 22 0 28 2 40 4 28 2 -13 2 -35 0 -50z m71 -16 c9 -3 -1 -5 -23 -5 -22 0 -32 2 -22 5 12 3 17 16 19 46 l1 42 4 -42 c3 -29 9 -43 21 -46z m55 76 c-13 -2 -23 -11 -23 -19 0 -8 10 -15 23 -15 l22 -2 -22 -4 c-13 -2 -23 -11 -23 -18 0 -7 10 -16 23 -18 19 -4 18 -4 -5 -6 -27 -1 -28 1 -28 44 0 43 1 45 28 44 23 -2 24 -2 5 -6z m114 -10 c4 -11 -1 -22 -15 -31 -27 -17 -28 -29 -4 -35 13 -3 12 -4 -3 -3 -28 1 -33 36 -6 43 28 7 27 30 -1 36 l-23 4 23 2 c13 0 25 -6 29 -16z m71 -66 c9 -3 -1 -5 -23 -5 -22 0 -32 2 -22 5 12 3 17 16 19 46 l1 42 4 -42 c3 -29 9 -43 21 -46z m38 68 c8 -20 24 -19 40 3 12 15 12 15 7 -5 -3 -14 -13 -23 -24 -23 -13 0 -16 -5 -12 -16 5 -13 7 -13 14 -2 5 7 9 9 9 3 0 -5 -4 -16 -8 -22 -5 -9 -15 2 -30 32 -12 25 -17 45 -12 45 6 0 13 -7 16 -15z m90 -25 c8 0 14 6 14 14 0 8 4 18 10 21 7 4 7 -2 0 -19 -6 -17 -6 -26 2 -28 21 -7 -1 -38 -27 -38 -23 0 -25 3 -24 48 1 26 4 37 6 25 2 -13 11 -23 19 -23z m91 -27 c-2 -16 -4 -5 -4 22 0 28 2 40 4 28 2 -13 2 -35 0 -50z m59 34 c10 18 22 33 27 33 4 0 6 -21 6 -47 l-2 -48 -7 40 c-4 22 -8 36 -9 30 0 -5 -12 -23 -26 -40 l-24 -30 1 50 c1 46 1 47 7 15 l7 -35 20 32z m-745 -7 c7 21 8 19 4 -9 -5 -36 -11 -48 -20 -39 -3 2 -7 20 -10 39 -5 32 -5 33 6 9 l12 -25 8 25z m-588 -142 c34 -5 29 -42 -5 -46 -27 -3 -28 -2 -27 45 1 26 4 38 6 26 3 -13 13 -23 26 -25z m44 -25 c-2 -16 -4 -5 -4 22 0 28 2 40 4 28 2 -13 2 -35 0 -50z m78 57 c17 14 20 3 5 -20 -6 -10 -4 -22 6 -37 17 -27 7 -31 -12 -5 -13 16 -15 16 -28 0 -19 -26 -29 -22 -12 5 10 15 12 27 6 37 -15 23 -12 34 5 20 12 -10 18 -10 30 0z m68 3 c-13 -2 -23 -11 -23 -19 0 -8 10 -15 23 -15 l22 -2 -22 -4 c-13 -2 -23 -11 -23 -18 0 -7 10 -16 23 -18 19 -4 18 -4 -5 -6 -27 -1 -28 1 -28 44 0 43 1 45 28 44 23 -2 24 -2 5 -6z m140 0 c-27 -5 -27 -6 -7 -41 14 -23 12 -22 -12 6 -16 18 -39 32 -51 32 -18 0 -22 -7 -26 -42 l-4 -43 -1 48 -2 47 63 -1 c34 -1 52 -4 40 -6z m70 0 c-13 -2 -23 -11 -23 -19 0 -8 10 -15 23 -15 l22 -2 -22 -4 c-13 -2 -23 -11 -23 -18 0 -7 10 -16 23 -18 19 -4 18 -4 -5 -6 -27 -1 -28 1 -28 44 0 43 1 45 28 44 23 -2 24 -2 5 -6z m63 -33 c8 0 14 6 14 14 0 8 4 18 10 21 7 4 7 -2 0 -19 -6 -17 -6 -26 2 -28 21 -7 -1 -38 -27 -38 -23 0 -25 3 -24 48 1 26 4 37 6 25 2 -13 11 -23 19 -23z m114 15 c0 -17 -5 -25 -17 -24 -11 0 -13 3 -5 6 20 8 14 33 -8 33 -45 0 -35 -58 11 -71 l24 -7 -26 -1 c-32 -1 -49 16 -49 50 0 29 10 37 48 38 17 1 22 -5 22 -24z m67 8 c4 -11 -1 -22 -15 -31 -27 -17 -28 -29 -4 -35 13 -3 12 -4 -3 -3 -28 1 -33 36 -6 43 28 7 27 30 -1 36 l-23 4 23 2 c13 0 25 -6 29 -16z m86 10 c-18 -3 -23 -13 -26 -46 l-4 -42 -1 48 c-2 45 -1 47 26 46 22 -1 23 -2 5 -6z m70 0 c-13 -2 -23 -11 -23 -19 0 -8 10 -15 23 -15 l22 -2 -22 -4 c-13 -2 -23 -11 -23 -18 0 -7 10 -16 23 -18 19 -4 18 -4 -5 -6 -27 -1 -28 1 -28 44 0 43 1 45 28 44 23 -2 24 -2 5 -6z m53 -8 c8 -20 24 -19 40 3 12 15 12 15 7 -5 -3 -14 -13 -23 -24 -23 -13 0 -16 -5 -12 -16 5 -13 7 -13 14 -2 5 7 9 9 9 3 0 -5 -4 -16 -8 -22 -5 -9 -15 2 -30 32 -12 25 -17 45 -12 45 6 0 13 -7 16 -15z m84 -25 c5 0 12 9 15 20 3 11 11 20 17 20 6 0 4 -9 -4 -22 -14 -20 -14 -26 0 -48 l16 -25 -26 23 -26 24 -5 -24 c-2 -12 -4 0 -4 27 0 28 2 40 4 28 2 -13 8 -23 13 -23z m93 33 c-13 -2 -23 -11 -23 -19 0 -8 10 -15 23 -15 l22 -2 -22 -4 c-13 -2 -23 -11 -23 -18 0 -7 10 -16 23 -18 19 -4 18 -4 -5 -6 -27 -1 -28 1 -28 44 0 43 1 45 28 44 23 -2 24 -2 5 -6z m108 -14 c18 -34 -3 -69 -41 -69 -29 0 -30 2 -30 45 0 43 1 45 30 45 20 0 33 -7 41 -21z m-803 -66 c-10 -2 -26 -2 -35 0 -10 3 -2 5 17 5 19 0 27 -2 18 -5z"/>
 <path d="M562 1678 c2 -18 8 -33 13 -33 6 0 11 15 13 33 3 24 -1 32 -13 32 -12 0 -16 -8 -13 -32z"/>
 <path d="M880 1655 c0 -10 7 -15 18 -13 21 4 19 22 -2 26 -10 2 -16 -3 -16 -13z"/>
 <path d="M1133 1694 c-6 -15 14 -64 27 -64 13 0 33 49 27 64 -4 9 -16 16 -27 16 -11 0 -23 -7 -27 -16z"/>
 <path d="M1220 1655 c0 -10 7 -15 18 -13 21 4 19 22 -2 26 -10 2 -16 -3 -16 -13z"/>
 <path d="M1390 1655 c0 -10 7 -15 18 -13 21 4 19 22 -2 26 -10 2 -16 -3 -16 -13z"/>
 <path d="M590 1515 c0 -10 7 -15 18 -13 21 4 19 22 -2 26 -10 2 -16 -3 -16 -13z"/>
 <path d="M843 1554 c-6 -15 14 -64 27 -64 13 0 33 49 27 64 -4 9 -16 16 -27 16 -11 0 -23 -7 -27 -16z"/>
 <path d="M483 1414 c-6 -15 14 -64 27 -64 13 0 33 49 27 64 -4 9 -16 16 -27 16 -11 0 -23 -7 -27 -16z"/>
 <path d="M673 1414 c-6 -15 14 -64 27 -64 13 0 33 49 27 64 -4 9 -16 16 -27 16 -11 0 -23 -7 -27 -16z"/>
 <path d="M903 1414 c-6 -15 14 -64 27 -64 13 0 33 49 27 64 -4 9 -16 16 -27 16 -11 0 -23 -7 -27 -16z"/>
 <path d="M423 1274 c-6 -15 14 -64 27 -64 13 0 33 49 27 64 -4 9 -16 16 -27 16 -11 0 -23 -7 -27 -16z"/>
 <path d="M540 1255 c0 -30 3 -35 24 -35 16 0 26 7 29 21 8 31 -2 49 -29 49 -21 0 -24 -5 -24 -35z"/>
 <path d="M1230 1235 c0 -10 7 -15 18 -13 21 4 19 22 -2 26 -10 2 -16 -3 -16 -13z"/>
 <path d="M1340 1255 c0 -30 3 -35 24 -35 16 0 26 7 29 21 8 31 -2 49 -29 49 -21 0 -24 -5 -24 -35z"/>
 <path d="M230 1115 c0 -24 5 -35 15 -35 18 0 19 12 3 28 -9 9 -8 12 5 12 9 0 17 7 17 15 0 8 -9 15 -20 15 -16 0 -20 -7 -20 -35z"/>
 <path d="M313 1134 c-6 -15 14 -64 27 -64 13 0 33 49 27 64 -4 9 -16 16 -27 16 -11 0 -23 -7 -27 -16z"/>
 <path d="M1420 1095 c0 -10 7 -15 18 -13 21 4 19 22 -2 26 -10 2 -16 -3 -16 -13z"/>
 <path d="M230 955 c0 -10 7 -15 18 -13 21 4 19 22 -2 26 -10 2 -16 -3 -16 -13z"/>
 <path d="M700 955 c0 -10 7 -15 18 -13 21 4 19 22 -2 26 -10 2 -16 -3 -16 -13z"/>
 <path d="M1330 975 c0 -30 3 -35 24 -35 24 0 35 20 28 53 -2 10 -13 17 -28 17 -21 0 -24 -5 -24 -35z"/>
 <path d="M3100 1340 c0 -11 5 -20 10 -20 6 0 10 9 10 20 0 11 -4 20 -10 20 -5 0 -10 -9 -10 -20z"/>
 </g>

</svg>